<svg width="58" height="16" viewBox="0 0 58 16" fill="none" xmlns="http://www.w3.org/2000/svg">
<path d="M3.32322 15.826C2.83922 15.826 2.37722 15.7453 1.93722 15.584C1.49722 15.4227 1.13789 15.166 0.859219 14.814C0.580552 14.462 0.441219 14.0147 0.441219 13.472C0.441219 13.34 0.470552 13.2227 0.529219 13.12C0.602552 13.0027 0.668552 12.944 0.727219 12.944C0.844552 12.944 0.903219 13.12 0.903219 13.472C0.903219 13.9707 1.11589 14.3593 1.54122 14.638C1.87855 14.858 2.33322 14.968 2.90522 14.968C3.47722 14.968 4.07122 14.8653 4.68722 14.66C5.30322 14.4547 5.88989 14.1613 6.44722 13.78C7.10722 13.34 7.84055 12.7093 8.64722 11.888C9.46855 11.052 10.3192 10.1427 11.1992 9.16C10.4952 9.08667 9.79122 9.006 9.08722 8.918C8.39789 8.83 7.70122 8.786 6.99722 8.786C6.52789 8.786 6.05855 8.83733 5.58922 8.94C5.11989 9.028 4.69455 9.204 4.31322 9.468C3.93189 9.732 3.64589 10.1207 3.45522 10.634C3.44055 10.6927 3.41855 10.7587 3.38922 10.832C3.37455 10.9053 3.36722 10.9787 3.36722 11.052C3.36722 11.1987 3.40389 11.3307 3.47722 11.448C3.50655 11.536 3.52122 11.5873 3.52122 11.602C3.52122 11.734 3.46255 11.8 3.34522 11.8C3.24255 11.8 3.16189 11.7487 3.10322 11.646C2.95655 11.382 2.88322 11.0447 2.88322 10.634C2.88322 9.85667 3.02255 9.26267 3.30122 8.852C3.59455 8.44133 3.98322 8.16267 4.46722 8.016C4.95122 7.86933 5.47189 7.796 6.02922 7.796C6.27855 7.796 6.53522 7.81067 6.79922 7.84C7.07789 7.85467 7.34922 7.87667 7.61322 7.906C8.25855 7.96467 8.92589 8.06733 9.61522 8.214C10.3046 8.346 10.9939 8.48533 11.6832 8.632C12.4459 7.73733 13.1939 6.83533 13.9272 5.926C14.6752 5.01667 15.3719 4.15867 16.0172 3.352C16.6626 2.53067 17.2126 1.82667 17.6672 1.24C17.6819 1.196 17.7112 1.16667 17.7552 1.152C17.7846 1.12267 17.8066 1.108 17.8212 1.108C17.9826 1.02 18.1879 0.946666 18.4372 0.888C18.6866 0.814666 18.8552 0.778 18.9432 0.778C19.0899 0.778 19.1632 0.858666 19.1632 1.02C19.1632 1.064 19.1266 1.14467 19.0532 1.262C18.3199 2.50867 17.6892 3.78467 17.1612 5.09C16.6479 6.39533 16.1932 7.73733 15.7972 9.116L15.7532 9.27C15.8412 9.27 15.9292 9.27733 16.0172 9.292C16.1199 9.292 16.2079 9.292 16.2812 9.292C16.9119 9.336 17.4472 9.27 17.8872 9.094C18.2099 8.97667 18.4299 8.808 18.5472 8.588C18.5912 8.52933 18.6279 8.5 18.6572 8.5C18.7306 8.5 18.7819 8.544 18.8112 8.632C18.8406 8.70533 18.8332 8.77867 18.7892 8.852C18.6279 9.13067 18.3419 9.336 17.9312 9.468C17.6966 9.57067 17.4252 9.63667 17.1172 9.666C16.8239 9.69533 16.5159 9.70267 16.1932 9.688H16.0612L15.7972 9.666H15.6652C15.4452 10.4727 15.2912 11.3087 15.2032 12.174C15.1886 12.2473 15.1812 12.3207 15.1812 12.394C15.1812 12.4527 15.1812 12.5187 15.1812 12.592C15.1812 13.428 15.4086 13.846 15.8632 13.846C16.1566 13.846 16.5012 13.714 16.8972 13.45C17.3079 13.186 17.7186 12.8633 18.1292 12.482C18.5546 12.1007 18.9359 11.7267 19.2732 11.36C19.6106 10.9787 19.8599 10.678 20.0212 10.458C20.0506 10.4287 20.0946 10.414 20.1532 10.414C20.2999 10.414 20.3439 10.4947 20.2852 10.656C20.2559 10.7 20.1312 10.876 19.9112 11.184C19.6912 11.4773 19.3906 11.8367 19.0092 12.262C18.6279 12.6727 18.1806 13.0833 17.6672 13.494C17.2566 13.8167 16.8459 14.022 16.4352 14.11C16.0392 14.2127 15.7386 14.264 15.5332 14.264C15.1226 14.264 14.7926 14.0807 14.5432 13.714C14.3086 13.3327 14.1912 12.8487 14.1912 12.262C14.1912 11.8367 14.2352 11.3967 14.3232 10.942C14.4112 10.4873 14.5139 10.0327 14.6312 9.578C14.2059 9.534 13.7732 9.49 13.3332 9.446C12.8932 9.38733 12.4532 9.32867 12.0132 9.27C11.1332 10.3407 10.2532 11.3453 9.37322 12.284C8.50789 13.208 7.69389 13.956 6.93122 14.528C6.35922 14.9387 5.76522 15.254 5.14922 15.474C4.54789 15.7087 3.93922 15.826 3.32322 15.826ZM14.7192 9.16C14.9832 8.13333 15.2912 7.10667 15.6432 6.08C16.0099 5.03867 16.3692 4.09267 16.7212 3.242L16.8312 2.978C16.2006 3.858 15.5039 4.79667 14.7412 5.794C13.9932 6.79133 13.2306 7.78133 12.4532 8.764C12.8346 8.83733 13.2159 8.91067 13.5972 8.984C13.9786 9.04267 14.3526 9.10133 14.7192 9.16ZM21.1142 14.22C20.4982 14.22 20.0655 14.066 19.8162 13.758C19.5815 13.45 19.4642 13.0687 19.4642 12.614C19.4642 12.1887 19.5595 11.6533 19.7502 11.008C19.9555 10.3627 20.2195 9.666 20.5422 8.918C20.8648 8.17 21.2095 7.42933 21.5762 6.696C21.9575 5.948 22.3315 5.266 22.6982 4.65C23.0795 4.01933 23.4095 3.51333 23.6882 3.132C23.9668 2.76533 24.2675 2.39867 24.5902 2.032C24.9128 1.66533 25.2722 1.35733 25.6682 1.108C26.0642 0.858666 26.5115 0.733999 27.0102 0.733999C27.3475 0.733999 27.6335 0.829332 27.8682 1.02C28.1175 1.196 28.2422 1.46733 28.2422 1.834C28.2422 1.98067 28.2128 2.14933 28.1542 2.34C28.1102 2.53067 28.0295 2.72867 27.9122 2.934C27.0175 4.48867 25.9468 5.926 24.7002 7.246C23.4682 8.566 22.1628 9.79067 20.7842 10.92C20.7255 11.14 20.6668 11.338 20.6082 11.514C20.5642 11.69 20.5275 11.8293 20.4982 11.932C20.4835 12.0053 20.4762 12.086 20.4762 12.174C20.4762 12.2473 20.4762 12.3207 20.4762 12.394C20.4762 12.746 20.5348 13.054 20.6522 13.318C20.7695 13.582 20.9675 13.714 21.2462 13.714C21.5102 13.714 21.8328 13.5893 22.2142 13.34C22.6102 13.076 23.0062 12.7607 23.4022 12.394C23.7982 12.0127 24.1575 11.646 24.4802 11.294C24.8028 10.942 25.0302 10.6707 25.1622 10.48C25.2062 10.436 25.2502 10.414 25.2942 10.414C25.3528 10.414 25.3968 10.4433 25.4262 10.502C25.4702 10.5607 25.4702 10.634 25.4262 10.722C25.2795 10.9713 25.0448 11.2793 24.7222 11.646C24.3995 12.0127 24.0402 12.3867 23.6442 12.768C23.2482 13.1347 22.8668 13.4573 22.5002 13.736C22.0455 14.0587 21.5835 14.22 21.1142 14.22ZM21.0922 10.04C21.6495 9.65867 22.2288 9.16733 22.8302 8.566C23.4315 7.95 24.0182 7.28267 24.5902 6.564C25.1768 5.84533 25.7048 5.134 26.1742 4.43C26.6582 3.726 27.0468 3.088 27.3402 2.516C27.4282 2.35467 27.4868 2.21533 27.5162 2.098C27.5602 1.966 27.5822 1.84867 27.5822 1.746C27.5822 1.46733 27.4648 1.328 27.2302 1.328C27.0248 1.328 26.7682 1.438 26.4602 1.658C25.6682 2.274 24.9348 3.066 24.2602 4.034C23.5855 4.98733 22.9842 5.992 22.4562 7.048C21.9282 8.104 21.4735 9.10133 21.0922 10.04ZM26.2704 14.22C25.6544 14.22 25.2218 14.066 24.9724 13.758C24.7378 13.45 24.6204 13.0687 24.6204 12.614C24.6204 12.1887 24.7158 11.6533 24.9064 11.008C25.1118 10.3627 25.3758 9.666 25.6984 8.918C26.0211 8.17 26.3658 7.42933 26.7324 6.696C27.1138 5.948 27.4878 5.266 27.8544 4.65C28.2358 4.01933 28.5658 3.51333 28.8444 3.132C29.1231 2.76533 29.4238 2.39867 29.7464 2.032C30.0691 1.66533 30.4284 1.35733 30.8244 1.108C31.2204 0.858666 31.6678 0.733999 32.1664 0.733999C32.5038 0.733999 32.7898 0.829332 33.0244 1.02C33.2738 1.196 33.3984 1.46733 33.3984 1.834C33.3984 1.98067 33.3691 2.14933 33.3104 2.34C33.2664 2.53067 33.1858 2.72867 33.0684 2.934C32.1738 4.48867 31.1031 5.926 29.8564 7.246C28.6244 8.566 27.3191 9.79067 25.9404 10.92C25.8818 11.14 25.8231 11.338 25.7644 11.514C25.7204 11.69 25.6838 11.8293 25.6544 11.932C25.6398 12.0053 25.6324 12.086 25.6324 12.174C25.6324 12.2473 25.6324 12.3207 25.6324 12.394C25.6324 12.746 25.6911 13.054 25.8084 13.318C25.9258 13.582 26.1238 13.714 26.4024 13.714C26.6664 13.714 26.9891 13.5893 27.3704 13.34C27.7664 13.076 28.1624 12.7607 28.5584 12.394C28.9544 12.0127 29.3138 11.646 29.6364 11.294C29.9591 10.942 30.1864 10.6707 30.3184 10.48C30.3624 10.436 30.4064 10.414 30.4504 10.414C30.5091 10.414 30.5531 10.4433 30.5824 10.502C30.6264 10.5607 30.6264 10.634 30.5824 10.722C30.4358 10.9713 30.2011 11.2793 29.8784 11.646C29.5558 12.0127 29.1964 12.3867 28.8004 12.768C28.4044 13.1347 28.0231 13.4573 27.6564 13.736C27.2018 14.0587 26.7398 14.22 26.2704 14.22ZM26.2484 10.04C26.8058 9.65867 27.3851 9.16733 27.9864 8.566C28.5878 7.95 29.1744 7.28267 29.7464 6.564C30.3331 5.84533 30.8611 5.134 31.3304 4.43C31.8144 3.726 32.2031 3.088 32.4964 2.516C32.5844 2.35467 32.6431 2.21533 32.6724 2.098C32.7164 1.966 32.7384 1.84867 32.7384 1.746C32.7384 1.46733 32.6211 1.328 32.3864 1.328C32.1811 1.328 31.9244 1.438 31.6164 1.658C30.8244 2.274 30.0911 3.066 29.4164 4.034C28.7418 4.98733 28.1404 5.992 27.6124 7.048C27.0844 8.104 26.6298 9.10133 26.2484 10.04ZM35.8927 14.22C35.6287 14.22 35.394 14.1613 35.1887 14.044C34.9833 13.9267 34.8293 13.7067 34.7267 13.384C34.712 13.3107 34.69 13.23 34.6607 13.142C34.646 13.0393 34.6387 12.9367 34.6387 12.834C34.6387 12.482 34.6827 12.086 34.7707 11.646C34.8733 11.206 34.9833 10.8393 35.1007 10.546C35.042 10.59 34.9393 10.7367 34.7927 10.986C34.646 11.2353 34.4627 11.5287 34.2427 11.866C34.0227 12.1887 33.7733 12.5187 33.4947 12.856C33.2307 13.1787 32.9373 13.45 32.6147 13.67C32.3067 13.8753 31.9767 13.978 31.6247 13.978C31.39 13.978 31.104 13.912 30.7667 13.78C30.444 13.648 30.2093 13.4647 30.0627 13.23C29.916 12.9953 29.8427 12.702 29.8427 12.35C29.8427 11.9247 29.938 11.4627 30.1287 10.964C30.3193 10.4507 30.5613 9.974 30.8547 9.534C30.9573 9.38733 31.0747 9.21133 31.2067 9.006C31.3387 8.80067 31.4707 8.62467 31.6027 8.478C31.7347 8.31667 31.83 8.22867 31.8887 8.214C32.0647 8.15533 32.27 8.126 32.5047 8.126C32.754 8.126 32.9373 8.15533 33.0547 8.214C33.1573 8.258 33.2087 8.30933 33.2087 8.368C33.2087 8.44133 33.15 8.53667 33.0327 8.654C32.8713 8.80067 32.6513 9.02067 32.3727 9.314C32.094 9.60733 31.8153 9.95933 31.5367 10.37C31.2727 10.7807 31.0527 11.2353 30.8767 11.734C30.73 12.13 30.6567 12.4747 30.6567 12.768C30.6567 13.2813 30.862 13.538 31.2727 13.538C31.6247 13.538 31.9987 13.3913 32.3947 13.098C32.7907 12.8047 33.172 12.4453 33.5387 12.02C33.92 11.5947 34.2573 11.1767 34.5507 10.766C34.8587 10.3407 35.0933 10.0033 35.2547 9.754C35.4013 9.54867 35.5627 9.28467 35.7387 8.962C35.9293 8.63933 36.1127 8.324 36.2887 8.016C36.4647 7.708 36.604 7.48067 36.7067 7.334C36.8093 7.334 36.9633 7.356 37.1687 7.4C37.3887 7.42933 37.572 7.488 37.7187 7.576C37.88 7.664 37.924 7.774 37.8507 7.906C37.7627 8.05267 37.6233 8.28 37.4327 8.588C37.2567 8.896 37.0733 9.21133 36.8827 9.534C36.7067 9.842 36.5673 10.0913 36.4647 10.282C36.1127 10.9567 35.8853 11.6827 35.7827 12.46C35.768 12.5187 35.7607 12.5773 35.7607 12.636C35.7607 12.68 35.7607 12.7313 35.7607 12.79C35.7607 13.3767 35.9587 13.67 36.3547 13.67C36.5747 13.67 36.868 13.538 37.2347 13.274C37.6013 13.01 37.9753 12.6947 38.3567 12.328C38.7527 11.9613 39.1047 11.6093 39.4127 11.272C39.7353 10.92 39.9553 10.656 40.0727 10.48C40.102 10.436 40.146 10.414 40.2047 10.414C40.2633 10.414 40.3073 10.436 40.3367 10.48C40.3807 10.524 40.3807 10.5827 40.3367 10.656C40.2047 10.9053 39.9773 11.2207 39.6547 11.602C39.3467 11.9687 39.002 12.3427 38.6207 12.724C38.2393 13.0907 37.8653 13.406 37.4987 13.67C37.308 13.8167 37.066 13.9413 36.7727 14.044C36.4793 14.1613 36.186 14.22 35.8927 14.22ZM42.6981 14.264C42.4487 14.264 42.2287 14.2053 42.0381 14.088C41.8474 13.9853 41.7154 13.78 41.6421 13.472C41.5981 13.3107 41.5761 13.1493 41.5761 12.988C41.5761 12.548 41.6861 12.1227 41.9061 11.712C42.1407 11.2867 42.4121 10.898 42.7201 10.546C43.0281 10.1793 43.2921 9.87133 43.5121 9.622C43.6294 9.50467 43.7614 9.35067 43.9081 9.16C44.0694 8.96933 44.1501 8.77867 44.1501 8.588C44.1501 8.47067 44.0914 8.36067 43.9741 8.258C43.8567 8.14067 43.6441 8.06 43.3361 8.016C43.1601 7.98667 42.9914 7.96467 42.8301 7.95C42.6834 7.92067 42.5294 7.906 42.3681 7.906C41.9574 8.46333 41.5541 9.028 41.1581 9.6C40.7767 10.1573 40.3661 10.7073 39.9261 11.25C39.8234 11.3527 39.7354 11.404 39.6621 11.404C39.5741 11.404 39.5301 11.36 39.5301 11.272C39.5301 11.184 39.5741 11.096 39.6621 11.008C40.4541 10.04 41.1361 9.006 41.7081 7.906C41.6347 7.906 41.5247 7.906 41.3781 7.906C41.2314 7.89133 41.1141 7.87667 41.0261 7.862C40.9234 7.83267 40.8427 7.78867 40.7841 7.73C40.7254 7.67133 40.6961 7.61267 40.6961 7.554C40.6961 7.466 40.7327 7.41467 40.8061 7.4C40.9967 7.34133 41.2021 7.25333 41.4221 7.136C41.6421 7.01867 41.8474 6.86467 42.0381 6.674C42.2434 6.46867 42.4341 6.256 42.6101 6.036C42.7861 5.80133 42.9254 5.62533 43.0281 5.508C43.1307 5.43467 43.2407 5.398 43.3581 5.398C43.4314 5.398 43.4974 5.42 43.5561 5.464C43.6294 5.508 43.6661 5.574 43.6661 5.662C43.6661 5.76467 43.6221 5.89667 43.5341 6.058C43.4021 6.26333 43.2554 6.49067 43.0941 6.74C42.9474 6.98933 42.8081 7.21667 42.6761 7.422C42.9401 7.43667 43.2041 7.45133 43.4681 7.466C43.7321 7.48067 44.0034 7.488 44.2821 7.488C44.4287 7.488 44.5681 7.488 44.7001 7.488C44.8467 7.47333 44.9934 7.466 45.1401 7.466C45.5801 7.466 45.8001 7.576 45.8001 7.796C45.8001 7.94267 45.7194 8.126 45.5581 8.346C45.4114 8.55133 45.2281 8.77867 45.0081 9.028C44.5094 9.6 44.0841 10.2013 43.7321 10.832C43.3801 11.4627 43.1454 11.9467 43.0281 12.284C42.9107 12.636 42.8521 12.9 42.8521 13.076C42.8521 13.428 42.9914 13.604 43.2701 13.604C43.5194 13.604 43.8201 13.4793 44.1721 13.23C44.5387 12.9807 44.9127 12.68 45.2941 12.328C45.6754 11.9613 46.0201 11.6093 46.3281 11.272C46.6361 10.92 46.8561 10.656 46.9881 10.48C47.0174 10.436 47.0614 10.414 47.1201 10.414C47.1787 10.414 47.2301 10.4433 47.2741 10.502C47.3181 10.546 47.3181 10.6047 47.2741 10.678C47.1127 10.9273 46.8781 11.2427 46.5701 11.624C46.2621 11.9907 45.9174 12.3573 45.5361 12.724C45.1547 13.0907 44.7807 13.406 44.4141 13.67C44.2234 13.8167 43.9594 13.9487 43.6221 14.066C43.2994 14.198 42.9914 14.264 42.6981 14.264ZM52.85 14.22C52.6007 14.22 52.366 14.1613 52.146 14.044C51.9407 13.9267 51.7867 13.7067 51.684 13.384C51.64 13.252 51.618 13.0687 51.618 12.834C51.618 12.5113 51.662 12.152 51.75 11.756C51.838 11.36 51.9334 11.0227 52.036 10.744C51.9627 10.7733 51.8234 10.9053 51.618 11.14C51.4274 11.36 51.1854 11.6313 50.892 11.954C50.6134 12.262 50.298 12.5773 49.946 12.9C49.6087 13.208 49.2567 13.4647 48.89 13.67C48.5234 13.8753 48.164 13.978 47.812 13.978C47.5774 13.978 47.328 13.912 47.064 13.78C46.8 13.6333 46.5874 13.45 46.426 13.23C46.206 12.9367 46.096 12.636 46.096 12.328C46.096 11.932 46.228 11.5213 46.492 11.096C46.7707 10.6707 47.1227 10.26 47.548 9.864C47.988 9.45333 48.45 9.08667 48.934 8.764C49.4327 8.42667 49.902 8.148 50.342 7.928C50.7967 7.69333 51.1634 7.53933 51.442 7.466C51.7354 7.378 52.0654 7.334 52.432 7.334C52.6374 7.334 52.85 7.36333 53.07 7.422C53.29 7.466 53.4734 7.54667 53.62 7.664C53.7374 7.72267 53.8327 7.80333 53.906 7.906C53.9794 8.00867 54.016 8.11867 54.016 8.236C54.016 8.35333 53.9647 8.39 53.862 8.346C53.7447 8.17 53.5834 8.06 53.378 8.016C53.1874 7.95733 52.9894 7.928 52.784 7.928C52.1974 7.928 51.552 8.11867 50.848 8.5C50.144 8.88133 49.5134 9.32867 48.956 9.842C48.78 9.98867 48.538 10.2453 48.23 10.612C47.9367 10.964 47.6654 11.3527 47.416 11.778C47.1667 12.2033 47.042 12.592 47.042 12.944C47.042 13.1347 47.0934 13.3033 47.196 13.45C47.2547 13.5527 47.35 13.604 47.482 13.604C47.6874 13.604 47.9587 13.494 48.296 13.274C48.648 13.054 49.0074 12.79 49.374 12.482C49.7407 12.1593 50.0707 11.8513 50.364 11.558C50.672 11.2647 50.892 11.052 51.024 10.92C51.0974 10.8467 51.2367 10.7 51.442 10.48C51.662 10.2453 51.8967 9.996 52.146 9.732C52.3954 9.468 52.6154 9.24067 52.806 9.05C53.0114 8.85933 53.1434 8.764 53.202 8.764C53.2754 8.764 53.3927 8.786 53.554 8.83C53.73 8.85933 53.8767 8.91067 53.994 8.984C54.1114 9.05733 54.1334 9.15267 54.06 9.27C53.6787 9.82733 53.3707 10.414 53.136 11.03C52.916 11.6313 52.784 12.108 52.74 12.46C52.7254 12.5187 52.718 12.5773 52.718 12.636C52.718 12.68 52.718 12.7313 52.718 12.79C52.718 13.3767 52.9234 13.67 53.334 13.67C53.554 13.67 53.8474 13.538 54.214 13.274C54.5807 13.01 54.9547 12.6947 55.336 12.328C55.7174 11.9613 56.062 11.6093 56.37 11.272C56.6927 10.92 56.9127 10.656 57.03 10.48C57.074 10.436 57.118 10.414 57.162 10.414C57.2207 10.414 57.272 10.4433 57.316 10.502C57.36 10.546 57.36 10.6047 57.316 10.678C57.1547 10.942 56.92 11.2573 56.612 11.624C56.304 11.9907 55.9594 12.3573 55.578 12.724C55.1967 13.0907 54.8227 13.406 54.456 13.67C54.2654 13.8167 54.0234 13.9413 53.73 14.044C53.4367 14.1613 53.1434 14.22 52.85 14.22Z" fill="white"/>
</svg>
