<svg width="63" height="17" viewBox="0 0 63 17" fill="none" xmlns="http://www.w3.org/2000/svg">
<path d="M3.57988 16.992C3.05188 16.992 2.54788 16.904 2.06788 16.728C1.58788 16.552 1.19588 16.272 0.891875 15.888C0.587875 15.504 0.435875 15.016 0.435875 14.424C0.435875 14.28 0.467875 14.152 0.531875 14.04C0.611875 13.912 0.683875 13.848 0.747875 13.848C0.875875 13.848 0.939875 14.04 0.939875 14.424C0.939875 14.968 1.17188 15.392 1.63588 15.696C2.00388 15.936 2.49988 16.056 3.12388 16.056C3.74788 16.056 4.39588 15.944 5.06788 15.72C5.73988 15.496 6.37988 15.176 6.98788 14.76C7.70788 14.28 8.50788 13.592 9.38788 12.696C10.2839 11.784 11.2119 10.792 12.1719 9.72C11.4039 9.64 10.6359 9.552 9.86788 9.456C9.11588 9.36 8.35588 9.312 7.58788 9.312C7.07588 9.312 6.56388 9.368 6.05188 9.48C5.53988 9.576 5.07588 9.768 4.65988 10.056C4.24388 10.344 3.93188 10.768 3.72388 11.328C3.70788 11.392 3.68388 11.464 3.65188 11.544C3.63588 11.624 3.62788 11.704 3.62788 11.784C3.62788 11.944 3.66788 12.088 3.74788 12.216C3.77988 12.312 3.79588 12.368 3.79588 12.384C3.79588 12.528 3.73188 12.6 3.60388 12.6C3.49188 12.6 3.40388 12.544 3.33987 12.432C3.17988 12.144 3.09988 11.776 3.09988 11.328C3.09988 10.48 3.25188 9.832 3.55588 9.384C3.87588 8.936 4.29988 8.632 4.82788 8.472C5.35588 8.312 5.92388 8.232 6.53188 8.232C6.80388 8.232 7.08388 8.248 7.37188 8.28C7.67588 8.296 7.97188 8.32 8.25988 8.352C8.96388 8.416 9.69188 8.528 10.4439 8.688C11.1959 8.832 11.9479 8.984 12.6999 9.144C13.5319 8.168 14.3479 7.184 15.1479 6.192C15.9639 5.2 16.7239 4.264 17.4279 3.384C18.1319 2.488 18.7319 1.72 19.2279 1.08C19.2439 1.032 19.2759 1 19.3239 0.983999C19.3559 0.951999 19.3799 0.935999 19.3959 0.935999C19.5719 0.84 19.7959 0.76 20.0679 0.696C20.3399 0.616 20.5239 0.576 20.6199 0.576C20.7799 0.576 20.8599 0.664 20.8599 0.839999C20.8599 0.888 20.8199 0.975999 20.7399 1.104C19.9399 2.464 19.2519 3.856 18.6759 5.28C18.1159 6.704 17.6199 8.168 17.1879 9.672L17.1399 9.84C17.2359 9.84 17.3319 9.848 17.4279 9.864C17.5399 9.864 17.6359 9.864 17.7159 9.864C18.4039 9.912 18.9879 9.84 19.4679 9.648C19.8199 9.52 20.0599 9.336 20.1879 9.096C20.2359 9.032 20.2759 9 20.3079 9C20.3879 9 20.4439 9.048 20.4759 9.144C20.5079 9.224 20.4999 9.304 20.4519 9.384C20.2759 9.688 19.9639 9.912 19.5159 10.056C19.2599 10.168 18.9639 10.24 18.6279 10.272C18.3079 10.304 17.9719 10.312 17.6199 10.296H17.4759L17.1879 10.272H17.0439C16.8039 11.152 16.6359 12.064 16.5399 13.008C16.5239 13.088 16.5159 13.168 16.5159 13.248C16.5159 13.312 16.5159 13.384 16.5159 13.464C16.5159 14.376 16.7639 14.832 17.2599 14.832C17.5799 14.832 17.9559 14.688 18.3879 14.4C18.8359 14.112 19.2839 13.76 19.7319 13.344C20.1959 12.928 20.6119 12.52 20.9799 12.12C21.3479 11.704 21.6199 11.376 21.7959 11.136C21.8279 11.104 21.8759 11.088 21.9399 11.088C22.0999 11.088 22.1479 11.176 22.0839 11.352C22.0519 11.4 21.9159 11.592 21.6759 11.928C21.4359 12.248 21.1079 12.64 20.6919 13.104C20.2759 13.552 19.7879 14 19.2279 14.448C18.7799 14.8 18.3319 15.024 17.8839 15.12C17.4519 15.232 17.1239 15.288 16.8999 15.288C16.4519 15.288 16.0919 15.088 15.8199 14.688C15.5639 14.272 15.4359 13.744 15.4359 13.104C15.4359 12.64 15.4839 12.16 15.5799 11.664C15.6759 11.168 15.7879 10.672 15.9159 10.176C15.4519 10.128 14.9799 10.08 14.4999 10.032C14.0199 9.968 13.5399 9.904 13.0599 9.84C12.0999 11.008 11.1399 12.104 10.1799 13.128C9.23588 14.136 8.34788 14.952 7.51588 15.576C6.89188 16.024 6.24388 16.368 5.57188 16.608C4.91588 16.864 4.25188 16.992 3.57988 16.992ZM16.0119 9.72C16.2999 8.6 16.6359 7.48 17.0199 6.36C17.4199 5.224 17.8119 4.192 18.1959 3.264L18.3159 2.976C17.6279 3.936 16.8679 4.96 16.0359 6.048C15.2199 7.136 14.3879 8.216 13.5399 9.288C13.9559 9.368 14.3719 9.448 14.7879 9.528C15.2039 9.592 15.6119 9.656 16.0119 9.72ZM22.9882 15.24C22.3162 15.24 21.8442 15.072 21.5722 14.736C21.3162 14.4 21.1882 13.984 21.1882 13.488C21.1882 13.024 21.2922 12.44 21.5002 11.736C21.7242 11.032 22.0122 10.272 22.3642 9.456C22.7162 8.64 23.0922 7.832 23.4922 7.032C23.9082 6.216 24.3162 5.472 24.7162 4.8C25.1322 4.112 25.4922 3.56 25.7962 3.144C26.1002 2.744 26.4282 2.344 26.7802 1.944C27.1322 1.544 27.5242 1.208 27.9562 0.935999C28.3882 0.663999 28.8762 0.527999 29.4202 0.527999C29.7882 0.527999 30.1002 0.631999 30.3562 0.839999C30.6282 1.032 30.7642 1.328 30.7642 1.728C30.7642 1.888 30.7322 2.072 30.6682 2.28C30.6202 2.488 30.5322 2.704 30.4042 2.928C29.4282 4.624 28.2602 6.192 26.9002 7.632C25.5562 9.072 24.1322 10.408 22.6282 11.64C22.5642 11.88 22.5002 12.096 22.4362 12.288C22.3882 12.48 22.3482 12.632 22.3162 12.744C22.3002 12.824 22.2922 12.912 22.2922 13.008C22.2922 13.088 22.2922 13.168 22.2922 13.248C22.2922 13.632 22.3562 13.968 22.4842 14.256C22.6122 14.544 22.8282 14.688 23.1322 14.688C23.4202 14.688 23.7722 14.552 24.1882 14.28C24.6202 13.992 25.0522 13.648 25.4842 13.248C25.9162 12.832 26.3082 12.432 26.6602 12.048C27.0122 11.664 27.2602 11.368 27.4042 11.16C27.4522 11.112 27.5002 11.088 27.5482 11.088C27.6122 11.088 27.6602 11.12 27.6922 11.184C27.7402 11.248 27.7402 11.328 27.6922 11.424C27.5322 11.696 27.2762 12.032 26.9242 12.432C26.5722 12.832 26.1802 13.24 25.7482 13.656C25.3162 14.056 24.9002 14.408 24.5002 14.712C24.0042 15.064 23.5002 15.24 22.9882 15.24ZM22.9642 10.68C23.5722 10.264 24.2042 9.728 24.8602 9.072C25.5162 8.4 26.1562 7.672 26.7802 6.888C27.4202 6.104 27.9962 5.328 28.5082 4.56C29.0362 3.792 29.4602 3.096 29.7802 2.472C29.8762 2.296 29.9402 2.144 29.9722 2.016C30.0202 1.872 30.0442 1.744 30.0442 1.632C30.0442 1.328 29.9162 1.176 29.6602 1.176C29.4362 1.176 29.1562 1.296 28.8202 1.536C27.9562 2.208 27.1562 3.072 26.4202 4.128C25.6842 5.168 25.0282 6.264 24.4522 7.416C23.8762 8.568 23.3802 9.656 22.9642 10.68ZM28.6132 15.24C27.9412 15.24 27.4692 15.072 27.1972 14.736C26.9412 14.4 26.8132 13.984 26.8132 13.488C26.8132 13.024 26.9172 12.44 27.1252 11.736C27.3492 11.032 27.6372 10.272 27.9892 9.456C28.3412 8.64 28.7172 7.832 29.1172 7.032C29.5332 6.216 29.9412 5.472 30.3412 4.8C30.7572 4.112 31.1172 3.56 31.4212 3.144C31.7252 2.744 32.0532 2.344 32.4052 1.944C32.7572 1.544 33.1492 1.208 33.5812 0.935999C34.0132 0.663999 34.5012 0.527999 35.0452 0.527999C35.4132 0.527999 35.7252 0.631999 35.9812 0.839999C36.2532 1.032 36.3892 1.328 36.3892 1.728C36.3892 1.888 36.3572 2.072 36.2932 2.28C36.2452 2.488 36.1572 2.704 36.0292 2.928C35.0532 4.624 33.8852 6.192 32.5252 7.632C31.1812 9.072 29.7572 10.408 28.2532 11.64C28.1892 11.88 28.1252 12.096 28.0612 12.288C28.0132 12.48 27.9732 12.632 27.9412 12.744C27.9252 12.824 27.9172 12.912 27.9172 13.008C27.9172 13.088 27.9172 13.168 27.9172 13.248C27.9172 13.632 27.9812 13.968 28.1092 14.256C28.2372 14.544 28.4532 14.688 28.7572 14.688C29.0452 14.688 29.3972 14.552 29.8132 14.28C30.2452 13.992 30.6772 13.648 31.1092 13.248C31.5412 12.832 31.9332 12.432 32.2852 12.048C32.6372 11.664 32.8852 11.368 33.0292 11.16C33.0772 11.112 33.1252 11.088 33.1732 11.088C33.2372 11.088 33.2852 11.12 33.3172 11.184C33.3652 11.248 33.3652 11.328 33.3172 11.424C33.1572 11.696 32.9012 12.032 32.5492 12.432C32.1972 12.832 31.8052 13.24 31.3732 13.656C30.9412 14.056 30.5252 14.408 30.1252 14.712C29.6292 15.064 29.1252 15.24 28.6132 15.24ZM28.5892 10.68C29.1972 10.264 29.8292 9.728 30.4852 9.072C31.1412 8.4 31.7812 7.672 32.4052 6.888C33.0452 6.104 33.6212 5.328 34.1332 4.56C34.6612 3.792 35.0852 3.096 35.4052 2.472C35.5012 2.296 35.5652 2.144 35.5972 2.016C35.6452 1.872 35.6692 1.744 35.6692 1.632C35.6692 1.328 35.5412 1.176 35.2852 1.176C35.0612 1.176 34.7812 1.296 34.4452 1.536C33.5812 2.208 32.7812 3.072 32.0452 4.128C31.3092 5.168 30.6532 6.264 30.0772 7.416C29.5012 8.568 29.0052 9.656 28.5892 10.68ZM39.1102 15.24C38.8222 15.24 38.5662 15.176 38.3422 15.048C38.1182 14.92 37.9502 14.68 37.8382 14.328C37.8222 14.248 37.7982 14.16 37.7662 14.064C37.7502 13.952 37.7422 13.84 37.7422 13.728C37.7422 13.344 37.7902 12.912 37.8862 12.432C37.9982 11.952 38.1182 11.552 38.2462 11.232C38.1822 11.28 38.0702 11.44 37.9102 11.712C37.7502 11.984 37.5502 12.304 37.3102 12.672C37.0702 13.024 36.7982 13.384 36.4942 13.752C36.2062 14.104 35.8862 14.4 35.5342 14.64C35.1982 14.864 34.8382 14.976 34.4542 14.976C34.1982 14.976 33.8862 14.904 33.5182 14.76C33.1662 14.616 32.9102 14.416 32.7502 14.16C32.5902 13.904 32.5102 13.584 32.5102 13.2C32.5102 12.736 32.6142 12.232 32.8222 11.688C33.0302 11.128 33.2942 10.608 33.6142 10.128C33.7262 9.968 33.8542 9.776 33.9982 9.552C34.1422 9.328 34.2862 9.136 34.4302 8.976C34.5742 8.8 34.6782 8.704 34.7422 8.688C34.9342 8.624 35.1582 8.592 35.4142 8.592C35.6862 8.592 35.8862 8.624 36.0142 8.688C36.1262 8.736 36.1822 8.792 36.1822 8.856C36.1822 8.936 36.1182 9.04 35.9902 9.168C35.8142 9.328 35.5742 9.568 35.2702 9.888C34.9662 10.208 34.6622 10.592 34.3582 11.04C34.0702 11.488 33.8302 11.984 33.6382 12.528C33.4782 12.96 33.3982 13.336 33.3982 13.656C33.3982 14.216 33.6222 14.496 34.0702 14.496C34.4542 14.496 34.8622 14.336 35.2942 14.016C35.7262 13.696 36.1422 13.304 36.5422 12.84C36.9582 12.376 37.3262 11.92 37.6462 11.472C37.9822 11.008 38.2382 10.64 38.4142 10.368C38.5742 10.144 38.7502 9.856 38.9422 9.504C39.1502 9.152 39.3502 8.808 39.5422 8.472C39.7342 8.136 39.8862 7.888 39.9982 7.728C40.1102 7.728 40.2782 7.752 40.5022 7.8C40.7422 7.832 40.9422 7.896 41.1022 7.992C41.2782 8.088 41.3262 8.208 41.2462 8.352C41.1502 8.512 40.9982 8.76 40.7902 9.096C40.5982 9.432 40.3982 9.776 40.1902 10.128C39.9982 10.464 39.8462 10.736 39.7342 10.944C39.3502 11.68 39.1022 12.472 38.9902 13.32C38.9742 13.384 38.9662 13.448 38.9662 13.512C38.9662 13.56 38.9662 13.616 38.9662 13.68C38.9662 14.32 39.1822 14.64 39.6142 14.64C39.8542 14.64 40.1742 14.496 40.5742 14.208C40.9742 13.92 41.3822 13.576 41.7982 13.176C42.2302 12.776 42.6142 12.392 42.9502 12.024C43.3022 11.64 43.5422 11.352 43.6702 11.16C43.7022 11.112 43.7502 11.088 43.8142 11.088C43.8782 11.088 43.9262 11.112 43.9582 11.16C44.0062 11.208 44.0062 11.272 43.9582 11.352C43.8142 11.624 43.5662 11.968 43.2142 12.384C42.8782 12.784 42.5022 13.192 42.0862 13.608C41.6702 14.008 41.2622 14.352 40.8622 14.64C40.6542 14.8 40.3902 14.936 40.0702 15.048C39.7502 15.176 39.4302 15.24 39.1102 15.24ZM46.5343 15.288C46.2623 15.288 46.0223 15.224 45.8143 15.096C45.6063 14.984 45.4623 14.76 45.3823 14.424C45.3343 14.248 45.3103 14.072 45.3103 13.896C45.3103 13.416 45.4303 12.952 45.6703 12.504C45.9263 12.04 46.2223 11.616 46.5583 11.232C46.8943 10.832 47.1823 10.496 47.4223 10.224C47.5503 10.096 47.6943 9.928 47.8543 9.72C48.0303 9.512 48.1183 9.304 48.1183 9.096C48.1183 8.968 48.0543 8.848 47.9263 8.736C47.7983 8.608 47.5663 8.52 47.2303 8.472C47.0383 8.44 46.8543 8.416 46.6783 8.4C46.5183 8.368 46.3503 8.352 46.1743 8.352C45.7263 8.96 45.2863 9.576 44.8543 10.2C44.4383 10.808 43.9903 11.408 43.5103 12C43.3983 12.112 43.3023 12.168 43.2223 12.168C43.1263 12.168 43.0783 12.12 43.0783 12.024C43.0783 11.928 43.1263 11.832 43.2223 11.736C44.0863 10.68 44.8303 9.552 45.4543 8.352C45.3743 8.352 45.2543 8.352 45.0943 8.352C44.9343 8.336 44.8063 8.32 44.7103 8.304C44.5983 8.272 44.5103 8.224 44.4463 8.16C44.3823 8.096 44.3503 8.032 44.3503 7.968C44.3503 7.872 44.3903 7.816 44.4703 7.8C44.6783 7.736 44.9023 7.64 45.1423 7.512C45.3823 7.384 45.6063 7.216 45.8143 7.008C46.0383 6.784 46.2463 6.552 46.4383 6.312C46.6303 6.056 46.7823 5.864 46.8943 5.736C47.0063 5.656 47.1263 5.616 47.2543 5.616C47.3343 5.616 47.4063 5.64 47.4703 5.688C47.5503 5.736 47.5903 5.808 47.5903 5.904C47.5903 6.016 47.5423 6.16 47.4463 6.336C47.3023 6.56 47.1423 6.808 46.9663 7.08C46.8063 7.352 46.6543 7.6 46.5103 7.824C46.7983 7.84 47.0863 7.856 47.3743 7.872C47.6623 7.888 47.9583 7.896 48.2623 7.896C48.4223 7.896 48.5743 7.896 48.7183 7.896C48.8783 7.88 49.0383 7.872 49.1983 7.872C49.6783 7.872 49.9183 7.992 49.9183 8.232C49.9183 8.392 49.8303 8.592 49.6543 8.832C49.4943 9.056 49.2943 9.304 49.0543 9.576C48.5103 10.2 48.0463 10.856 47.6623 11.544C47.2783 12.232 47.0223 12.76 46.8943 13.128C46.7663 13.512 46.7023 13.8 46.7023 13.992C46.7023 14.376 46.8543 14.568 47.1583 14.568C47.4303 14.568 47.7583 14.432 48.1423 14.16C48.5423 13.888 48.9503 13.56 49.3663 13.176C49.7823 12.776 50.1583 12.392 50.4943 12.024C50.8303 11.64 51.0703 11.352 51.2143 11.16C51.2463 11.112 51.2943 11.088 51.3583 11.088C51.4223 11.088 51.4783 11.12 51.5263 11.184C51.5743 11.232 51.5743 11.296 51.5263 11.376C51.3503 11.648 51.0943 11.992 50.7583 12.408C50.4223 12.808 50.0463 13.208 49.6303 13.608C49.2143 14.008 48.8063 14.352 48.4062 14.64C48.1983 14.8 47.9103 14.944 47.5423 15.072C47.1903 15.216 46.8543 15.288 46.5343 15.288ZM57.6091 15.24C57.3371 15.24 57.0811 15.176 56.8411 15.048C56.6171 14.92 56.4491 14.68 56.3371 14.328C56.2891 14.184 56.2651 13.984 56.2651 13.728C56.2651 13.376 56.3131 12.984 56.4091 12.552C56.5051 12.12 56.6091 11.752 56.7211 11.448C56.6411 11.48 56.4891 11.624 56.2651 11.88C56.0571 12.12 55.7931 12.416 55.4731 12.768C55.1691 13.104 54.8251 13.448 54.4411 13.8C54.0731 14.136 53.6891 14.416 53.2891 14.64C52.8891 14.864 52.4971 14.976 52.1131 14.976C51.8571 14.976 51.5851 14.904 51.2971 14.76C51.0091 14.6 50.7771 14.4 50.6011 14.16C50.3611 13.84 50.2411 13.512 50.2411 13.176C50.2411 12.744 50.3851 12.296 50.6731 11.832C50.9771 11.368 51.3611 10.92 51.8251 10.488C52.3051 10.04 52.8091 9.64 53.3371 9.288C53.8811 8.92 54.3931 8.616 54.8731 8.376C55.3691 8.12 55.7691 7.952 56.0731 7.872C56.3931 7.776 56.7531 7.728 57.1531 7.728C57.3771 7.728 57.6091 7.76 57.8491 7.824C58.0891 7.872 58.2891 7.96 58.4491 8.088C58.5771 8.152 58.6811 8.24 58.7611 8.352C58.8411 8.464 58.8811 8.584 58.8811 8.712C58.8811 8.84 58.8251 8.88 58.7131 8.832C58.5851 8.64 58.4091 8.52 58.1851 8.472C57.9771 8.408 57.7611 8.376 57.5371 8.376C56.8971 8.376 56.1931 8.584 55.4251 9C54.6571 9.416 53.9691 9.904 53.3611 10.464C53.1691 10.624 52.9051 10.904 52.5691 11.304C52.2491 11.688 51.9531 12.112 51.6811 12.576C51.4091 13.04 51.2731 13.464 51.2731 13.848C51.2731 14.056 51.3291 14.24 51.4411 14.4C51.5051 14.512 51.6091 14.568 51.7531 14.568C51.9771 14.568 52.2731 14.448 52.6411 14.208C53.0251 13.968 53.4171 13.68 53.8171 13.344C54.2171 12.992 54.5771 12.656 54.8971 12.336C55.2331 12.016 55.4731 11.784 55.6171 11.64C55.6971 11.56 55.8491 11.4 56.0731 11.16C56.3131 10.904 56.5691 10.632 56.8411 10.344C57.1131 10.056 57.3531 9.808 57.5611 9.6C57.7851 9.392 57.9291 9.288 57.9931 9.288C58.0731 9.288 58.2011 9.312 58.3771 9.36C58.5691 9.392 58.7291 9.448 58.8571 9.528C58.9851 9.608 59.0091 9.712 58.9291 9.84C58.5131 10.448 58.1771 11.088 57.9211 11.76C57.6811 12.416 57.5371 12.936 57.4891 13.32C57.4731 13.384 57.4651 13.448 57.4651 13.512C57.4651 13.56 57.4651 13.616 57.4651 13.68C57.4651 14.32 57.6891 14.64 58.1371 14.64C58.3771 14.64 58.6971 14.496 59.0971 14.208C59.4971 13.92 59.9051 13.576 60.3211 13.176C60.7371 12.776 61.1131 12.392 61.4491 12.024C61.8011 11.64 62.0411 11.352 62.1691 11.16C62.2171 11.112 62.2651 11.088 62.3131 11.088C62.3771 11.088 62.4331 11.12 62.4811 11.184C62.5291 11.232 62.5291 11.296 62.4811 11.376C62.3051 11.664 62.0491 12.008 61.7131 12.408C61.3771 12.808 61.0011 13.208 60.5851 13.608C60.1691 14.008 59.7611 14.352 59.3611 14.64C59.1531 14.8 58.8891 14.936 58.5691 15.048C58.2491 15.176 57.9291 15.24 57.6091 15.24Z" fill="#D2D2D2"/>
</svg>
