<svg xmlns="http://www.w3.org/2000/svg" fill="none" width="63" height="17" viewBox="0 0 63 17"><path d="M3.58 16.992a4.357 4.357 0 0 1-1.512-.264 2.614 2.614 0 0 1-1.176-.84c-.304-.384-.456-.872-.456-1.464a.76.76 0 0 1 .096-.384c.08-.128.152-.192.216-.192.128 0 .192.192.192.576 0 .544.232.968.696 1.272.368.24.864.36 1.488.36s1.272-.112 1.944-.336a7.703 7.703 0 0 0 1.92-.96c.72-.48 1.52-1.168 2.4-2.064a88.39 88.39 0 0 0 2.784-2.976 112.78 112.78 0 0 1-2.304-.264 17.987 17.987 0 0 0-2.28-.144c-.512 0-1.024.056-1.536.168a3.573 3.573 0 0 0-1.392.576c-.416.288-.728.712-.936 1.272-.016.064-.04.136-.072.216-.016.08-.024.16-.024.24 0 .16.04.304.12.432.032.096.048.152.048.168 0 .144-.064.216-.192.216-.112 0-.2-.056-.264-.168-.16-.288-.24-.656-.24-1.104 0-.848.152-1.496.456-1.944.32-.448.744-.752 1.272-.912a5.848 5.848 0 0 1 1.704-.24c.272 0 .552.016.84.048.304.016.6.04.888.072.704.064 1.432.176 2.184.336.752.144 1.504.296 2.256.456.832-.976 1.648-1.96 2.448-2.952.816-.992 1.576-1.928 2.28-2.808.704-.896 1.304-1.664 1.8-2.304a.144.144 0 0 1 .096-.096c.032-.032.056-.048.072-.048.176-.096.4-.176.672-.24.272-.08.456-.12.552-.12.16 0 .24.088.24.264 0 .048-.04.136-.12.264a31.604 31.604 0 0 0-2.064 4.176 48.82 48.82 0 0 0-1.488 4.392l-.048.168c.096 0 .192.008.288.024h.288c.688.048 1.272-.024 1.752-.216.352-.128.592-.312.72-.552.048-.064.088-.096.12-.096.08 0 .136.048.168.144.032.08.024.16-.024.24-.176.304-.488.528-.936.672a2.892 2.892 0 0 1-.888.216c-.32.032-.656.04-1.008.024h-.144l-.288-.024h-.144c-.24.88-.408 1.792-.504 2.736-.016.08-.024.16-.024.24v.216c0 .912.248 1.368.744 1.368.32 0 .696-.144 1.128-.432.448-.288.896-.64 1.344-1.056.464-.416.88-.824 1.248-1.224.368-.416.64-.744.816-.984.032-.032.08-.048.144-.048.16 0 .208.088.144.264-.032.048-.168.24-.408.576-.24.32-.568.712-.984 1.176-.416.448-.904.896-1.464 1.344-.448.352-.896.576-1.344.672-.432.112-.76.168-.984.168-.448 0-.808-.2-1.08-.6-.256-.416-.384-.944-.384-1.584 0-.464.048-.944.144-1.44.096-.496.208-.992.336-1.488l-1.416-.144-1.44-.192a67.115 67.115 0 0 1-2.88 3.288c-.944 1.008-1.832 1.824-2.664 2.448a7.866 7.866 0 0 1-1.944 1.032 5.44 5.44 0 0 1-1.992.384ZM16.012 9.72c.288-1.12.624-2.24 1.008-3.36.4-1.136.792-2.168 1.176-3.096l.12-.288c-.688.96-1.448 1.984-2.28 3.072a158.798 158.798 0 0 1-2.496 3.24l1.248.24c.416.064.824.128 1.224.192Zm6.976 5.52c-.672 0-1.144-.168-1.416-.504-.256-.336-.384-.752-.384-1.248 0-.464.104-1.048.312-1.752a24.73 24.73 0 0 1 .864-2.28c.352-.816.728-1.624 1.128-2.424.416-.816.824-1.56 1.224-2.232.416-.688.776-1.24 1.08-1.656.304-.4.632-.8.984-1.2.352-.4.744-.736 1.176-1.008A2.69 2.69 0 0 1 29.42.528c.368 0 .68.104.936.312.272.192.408.488.408.888 0 .16-.032.344-.096.552a2.405 2.405 0 0 1-.264.648A24.97 24.97 0 0 1 26.9 7.632a43.845 43.845 0 0 1-4.272 4.008c-.064.24-.128.456-.192.648-.048.192-.088.344-.12.456-.016.08-.024.168-.024.264v.24c0 .384.064.72.192 1.008.128.288.344.432.648.432.288 0 .64-.136 1.056-.408.432-.288.864-.632 1.296-1.032a27.06 27.06 0 0 0 1.176-1.2c.352-.384.6-.68.744-.888.048-.048.096-.072.144-.072.064 0 .112.032.144.096.048.064.048.144 0 .24-.16.272-.416.608-.768 1.008-.352.4-.744.808-1.176 1.224-.432.4-.848.752-1.248 1.056-.496.352-1 .528-1.512.528Zm-.024-4.56c.608-.416 1.24-.952 1.896-1.608.656-.672 1.296-1.4 1.92-2.184a30.05 30.05 0 0 0 1.728-2.328 19.32 19.32 0 0 0 1.272-2.088c.096-.176.16-.328.192-.456.048-.144.072-.272.072-.384 0-.304-.128-.456-.384-.456-.224 0-.504.12-.84.36-.864.672-1.664 1.536-2.4 2.592a25.162 25.162 0 0 0-1.968 3.288 46.326 46.326 0 0 0-1.488 3.264Zm5.65 4.56c-.673 0-1.145-.168-1.417-.504-.256-.336-.384-.752-.384-1.248 0-.464.104-1.048.312-1.752a24.73 24.73 0 0 1 .864-2.28c.352-.816.728-1.624 1.128-2.424.416-.816.824-1.56 1.224-2.232.416-.688.776-1.24 1.08-1.656.304-.4.632-.8.984-1.2.352-.4.744-.736 1.176-1.008a2.69 2.69 0 0 1 1.464-.408c.368 0 .68.104.936.312.272.192.408.488.408.888 0 .16-.032.344-.096.552a2.405 2.405 0 0 1-.264.648 24.97 24.97 0 0 1-3.504 4.704 43.845 43.845 0 0 1-4.272 4.008c-.064.24-.128.456-.192.648-.048.192-.088.344-.12.456-.016.08-.024.168-.024.264v.24c0 .384.064.72.192 1.008.128.288.344.432.648.432.288 0 .64-.136 1.056-.408.432-.288.864-.632 1.296-1.032a27.06 27.06 0 0 0 1.176-1.2c.352-.384.6-.68.744-.888.048-.048.096-.072.144-.072.064 0 .112.032.144.096.048.064.048.144 0 .24-.16.272-.416.608-.768 1.008-.352.4-.744.808-1.176 1.224-.432.4-.848.752-1.248 1.056-.496.352-1 .528-1.512.528Zm-.025-4.56c.608-.416 1.24-.952 1.896-1.608.656-.672 1.296-1.4 1.92-2.184a30.05 30.05 0 0 0 1.728-2.328 19.32 19.32 0 0 0 1.272-2.088c.096-.176.16-.328.192-.456.048-.144.072-.272.072-.384 0-.304-.128-.456-.384-.456-.224 0-.504.12-.84.36-.864.672-1.664 1.536-2.4 2.592a25.162 25.162 0 0 0-1.968 3.288 46.326 46.326 0 0 0-1.488 3.264Zm10.521 4.56a1.52 1.52 0 0 1-.768-.192c-.224-.128-.392-.368-.504-.72a2.219 2.219 0 0 0-.072-.264 2.373 2.373 0 0 1-.024-.336c0-.384.048-.816.144-1.296.112-.48.232-.88.36-1.2-.064.048-.176.208-.336.48-.16.272-.36.592-.6.96-.24.352-.512.712-.816 1.08a4.558 4.558 0 0 1-.96.888 1.912 1.912 0 0 1-1.08.336c-.256 0-.568-.072-.936-.216-.352-.144-.608-.344-.768-.6-.16-.256-.24-.576-.24-.96 0-.464.104-.968.312-1.512.208-.56.472-1.08.792-1.56.112-.16.24-.352.384-.576.144-.224.288-.416.432-.576.144-.176.248-.272.312-.288.192-.064.416-.096.672-.096.272 0 .472.032.6.096.112.048.168.104.168.168 0 .08-.064.184-.192.312-.176.16-.416.4-.72.72-.304.32-.608.704-.912 1.152a7.124 7.124 0 0 0-.72 1.488c-.16.432-.24.808-.24 1.128 0 .56.224.84.672.84.384 0 .792-.16 1.224-.48.432-.32.848-.712 1.248-1.176.416-.464.784-.92 1.104-1.368.336-.464.592-.832.768-1.104.16-.224.336-.512.528-.864.208-.352.408-.696.6-1.032.192-.336.344-.584.456-.744.112 0 .28.024.504.072.24.032.44.096.6.192.176.096.224.216.144.36-.096.16-.248.408-.456.744-.192.336-.392.68-.6 1.032-.192.336-.344.608-.456.816a7.106 7.106 0 0 0-.744 2.376.789.789 0 0 0-.024.192v.168c0 .64.216.96.648.96.24 0 .56-.144.96-.432.4-.288.808-.632 1.224-1.032.432-.4.816-.784 1.152-1.152.352-.384.592-.672.72-.864a.162.162 0 0 1 .144-.072c.064 0 .112.024.144.072.048.048.048.112 0 .192-.144.272-.392.616-.744 1.032-.336.4-.712.808-1.128 1.224-.416.4-.824.744-1.224 1.032-.208.16-.472.296-.792.408-.32.128-.64.192-.96.192Zm7.424.048c-.272 0-.512-.064-.72-.192-.208-.112-.352-.336-.432-.672a1.999 1.999 0 0 1-.072-.528c0-.48.12-.944.36-1.392.256-.464.552-.888.888-1.272.336-.4.624-.736.864-1.008a5.25 5.25 0 0 0 .432-.504c.176-.208.264-.416.264-.624 0-.128-.064-.248-.192-.36-.128-.128-.36-.216-.696-.264a7.486 7.486 0 0 0-.552-.072 2.565 2.565 0 0 0-.504-.048 77.03 77.03 0 0 0-1.32 1.848A27.65 27.65 0 0 1 43.51 12c-.112.112-.208.168-.288.168-.096 0-.144-.048-.144-.144 0-.096.048-.192.144-.288a19.642 19.642 0 0 0 2.232-3.384h-.36a6.195 6.195 0 0 1-.384-.048.597.597 0 0 1-.264-.144c-.064-.064-.096-.128-.096-.192 0-.096.04-.152.12-.168.208-.064.432-.16.672-.288.24-.128.464-.296.672-.504.224-.224.432-.456.624-.696.192-.256.344-.448.456-.576a.608.608 0 0 1 .36-.12c.08 0 .152.024.216.072.08.048.12.12.12.216 0 .112-.048.256-.144.432l-.48.744c-.16.272-.312.52-.456.744l.864.048c.288.016.584.024.888.024h.456c.16-.016.32-.024.48-.024.48 0 .72.12.72.36 0 .16-.088.36-.264.6-.16.224-.36.472-.6.744a11.587 11.587 0 0 0-1.392 1.968c-.384.688-.64 1.216-.768 1.584-.128.384-.192.672-.192.864 0 .384.152.576.456.576.272 0 .6-.136.984-.408.4-.272.808-.6 1.224-.984.416-.4.792-.784 1.128-1.152.336-.384.576-.672.72-.864a.162.162 0 0 1 .144-.072c.064 0 .12.032.168.096.048.048.048.112 0 .192-.176.272-.432.616-.768 1.032-.336.4-.712.8-1.128 1.2-.416.4-.824.744-1.224 1.032-.208.16-.496.304-.864.432a2.662 2.662 0 0 1-1.008.216Zm11.075-.048c-.272 0-.528-.064-.768-.192-.224-.128-.392-.368-.504-.72a1.973 1.973 0 0 1-.072-.6c0-.352.048-.744.144-1.176.096-.432.2-.8.312-1.104-.08.032-.232.176-.456.432-.208.24-.472.536-.792.888-.304.336-.648.68-1.032 1.032a6.214 6.214 0 0 1-1.152.84c-.4.224-.792.336-1.176.336a1.83 1.83 0 0 1-.816-.216c-.288-.16-.52-.36-.696-.6-.24-.32-.36-.648-.36-.984 0-.432.144-.88.432-1.344a7.358 7.358 0 0 1 1.152-1.344c.48-.448.984-.848 1.512-1.2a13.724 13.724 0 0 1 1.536-.912c.496-.256.896-.424 1.2-.504.32-.096.68-.144 1.08-.144.224 0 .456.032.696.096.24.048.44.136.6.264a.836.836 0 0 1 .312.264c.08.112.12.232.12.36 0 .128-.056.168-.168.12a.82.82 0 0 0-.528-.36 2.19 2.19 0 0 0-.648-.096c-.64 0-1.344.208-2.112.624a10.2 10.2 0 0 0-2.064 1.464c-.192.16-.456.44-.792.84-.32.384-.616.808-.888 1.272-.272.464-.408.888-.408 1.272 0 .208.056.392.168.552.064.112.168.168.312.168.224 0 .52-.12.888-.36.384-.24.776-.528 1.176-.864.4-.352.76-.688 1.08-1.008.336-.32.576-.552.72-.696.08-.08.232-.24.456-.48l.768-.816c.272-.288.512-.536.72-.744.224-.208.368-.312.432-.312.08 0 .208.024.384.072.192.032.352.088.48.168.128.08.152.184.072.312a9.176 9.176 0 0 0-1.008 1.92c-.24.656-.384 1.176-.432 1.56a.789.789 0 0 0-.024.192v.168c0 .64.224.96.672.96.24 0 .56-.144.96-.432.4-.288.808-.632 1.224-1.032.416-.4.792-.784 1.128-1.152.352-.384.592-.672.72-.864.048-.048.096-.072.144-.072.064 0 .12.032.168.096.048.048.048.112 0 .192a8.878 8.878 0 0 1-.768 1.032c-.336.4-.712.8-1.128 1.2-.416.4-.824.744-1.224 1.032-.208.16-.472.296-.792.408-.32.128-.64.192-.96.192Z" fill="#D2D2D2"/></svg>