<svg xmlns="http://www.w3.org/2000/svg" fill="none" width="67" height="20" viewBox="0 0 67 20"><path d="M5.376.464S4.992.224 3.984.392L.336 16.544s.744.24 1.176.12l1.152-5.784 4.656-.192 1.56 6.216s.768.048 1.272-.216L5.376.464ZM2.88 9.944l1.872-7.848L7.2 9.824l-4.32.12Zm8.722-4.416.168 11.304 1.56-.024s-.552-6.912.696-9.576c0 0 1.992-3.696 3.096.864l-.24 8.544 1.32-.048.096-8.568s2.328-4.68 3.96 0c0 0 .312 5.28.024 8.952h1.296v-.144l-.216-8.568s-.648-5.832-5.448-1.584c0 0-2.424-3.84-4.968.096l-.072-1.368s-.672-.936-1.272.12Zm21.997-.408s-9.048-1.584-8.448 7.536c0 0 1.368 5.904 5.64 3.408 0 0 1.176-.408 2.52-4.464 0 0-.216 4.368.096 5.088l1.272.144s0-9.36.096-10.392c0 0 .48-1.632-1.176-1.32Zm-1.272 5.832c-1.632 6.96-4.776 4.464-4.776 4.464-2.112-2.496-1.032-5.832-1.032-5.832 1.488-3.984 6.936-3.84 6.936-3.84-.36 2.352-1.128 5.208-1.128 5.208Zm4.218-5.112L36.4 16.88l1.656.072-.144-8.016s.264-2.088 1.944-3.096c0 0 2.088-1.032 3.336.504 0 0 .696.624.552 3.36l-.312 7.152 1.272.096.072-9.024s-.432-3.096-3.864-2.952c0 0-1.92-.024-3 1.704V5.672s-.984-1.152-1.368.168ZM55.24 1.712c-.047-.888-1.584-.984-1.608-.096-.023.888 0 3.576 0 3.576s-5.4-2.28-7.2 5.856c0 0-.72 6.24 4.872 6.24 0 0 1.176-.264 1.68-1.728l-.047 1.272h1.392s.96-14.232.911-15.12Zm-2.424 12.6c-2.4 4.728-4.535.6-4.535.6-1.657-3.72.72-7.104.72-7.104 1.92-3.168 4.584-1.56 4.584-1.56-.145 6.792-.769 8.064-.769 8.064ZM65.123 5.12s-9.048-1.584-8.448 7.536c0 0 1.368 5.904 5.64 3.408 0 0 1.176-.408 2.52-4.464 0 0-.216 4.368.096 5.088l1.272.144s0-9.36.096-10.392c0 0 .48-1.632-1.176-1.32Zm-1.272 5.832c-1.632 6.96-4.776 4.464-4.776 4.464-2.112-2.496-1.032-5.832-1.032-5.832 1.488-3.984 6.936-3.84 6.936-3.84-.36 2.352-1.128 5.208-1.128 5.208Z" fill="#D2D2D2"/></svg>