<svg width="45" height="14" viewBox="0 0 45 14" fill="none" xmlns="http://www.w3.org/2000/svg">
<path d="M3.97463 0.976C3.97463 0.976 3.71863 0.815999 3.04663 0.927999L0.614625 11.696C0.614625 11.696 1.11063 11.856 1.39863 11.776L2.16663 7.92L5.27063 7.792L6.31063 11.936C6.31063 11.936 6.82263 11.968 7.15863 11.792L3.97463 0.976ZM2.31063 7.296L3.55863 2.064L5.19063 7.216L2.31063 7.296ZM8.125 4.352L8.237 11.888L9.277 11.872C9.277 11.872 8.909 7.264 9.741 5.488C9.741 5.488 11.069 3.024 11.805 6.064L11.645 11.76L12.525 11.728L12.589 6.016C12.589 6.016 14.141 2.896 15.229 6.016C15.229 6.016 15.437 9.536 15.245 11.984H16.109V11.888L15.965 6.176C15.965 6.176 15.533 2.288 12.333 5.12C12.333 5.12 10.717 2.56 9.021 5.184L8.973 4.272C8.973 4.272 8.525 3.648 8.125 4.352ZM22.7901 4.08C22.7901 4.08 16.7581 3.024 17.1581 9.104C17.1581 9.104 18.0701 13.04 20.9181 11.376C20.9181 11.376 21.7021 11.104 22.5981 8.4C22.5981 8.4 22.4541 11.312 22.6621 11.792L23.5101 11.888C23.5101 11.888 23.5101 5.648 23.5741 4.96C23.5741 4.96 23.8941 3.872 22.7901 4.08ZM21.9421 7.968C20.8541 12.608 18.7581 10.944 18.7581 10.944C17.3501 9.28 18.0701 7.056 18.0701 7.056C19.0621 4.4 22.6941 4.496 22.6941 4.496C22.4541 6.064 21.9421 7.968 21.9421 7.968ZM24.7538 4.56L24.6578 11.92L25.7618 11.968L25.6658 6.624C25.6658 6.624 25.8418 5.232 26.9618 4.56C26.9618 4.56 28.3538 3.872 29.1858 4.896C29.1858 4.896 29.6498 5.312 29.5538 7.136L29.3458 11.904L30.1938 11.968L30.2418 5.952C30.2418 5.952 29.9538 3.888 27.6658 3.984C27.6658 3.984 26.3858 3.968 25.6658 5.12V4.448C25.6658 4.448 25.0098 3.68 24.7538 4.56ZM37.2176 1.808C37.1856 1.216 36.1616 1.152 36.1456 1.744C36.1296 2.336 36.1456 4.128 36.1456 4.128C36.1456 4.128 32.5456 2.608 31.3456 8.032C31.3456 8.032 30.8656 12.192 34.5936 12.192C34.5936 12.192 35.3776 12.016 35.7136 11.04L35.6816 11.888H36.6096C36.6096 11.888 37.2496 2.4 37.2176 1.808ZM35.6016 10.208C34.0016 13.36 32.5776 10.608 32.5776 10.608C31.4736 8.128 33.0576 5.872 33.0576 5.872C34.3376 3.76 36.1136 4.832 36.1136 4.832C36.0176 9.36 35.6016 10.208 35.6016 10.208ZM43.8058 4.08C43.8058 4.08 37.7737 3.024 38.1738 9.104C38.1738 9.104 39.0858 13.04 41.9338 11.376C41.9338 11.376 42.7178 11.104 43.6138 8.4C43.6138 8.4 43.4698 11.312 43.6778 11.792L44.5258 11.888C44.5258 11.888 44.5258 5.648 44.5898 4.96C44.5898 4.96 44.9098 3.872 43.8058 4.08ZM42.9578 7.968C41.8698 12.608 39.7738 10.944 39.7738 10.944C38.3658 9.28 39.0858 7.056 39.0858 7.056C40.0778 4.4 43.7098 4.496 43.7098 4.496C43.4698 6.064 42.9578 7.968 42.9578 7.968Z" fill="white"/>
</svg>
