<svg width="68" height="22" viewBox="0 0 68 22" fill="none" xmlns="http://www.w3.org/2000/svg">
<path d="M8.44707 7.8C7.89374 7.62 7.46707 7.39333 7.16707 7.12C6.86707 6.84667 6.65374 6.54 6.52707 6.2C6.40707 5.86 6.35707 5.49667 6.37707 5.11C6.40374 4.72333 6.46374 4.33 6.55707 3.93C6.67707 3.40333 6.8904 2.93 7.19707 2.51C7.5104 2.09 7.90374 1.73667 8.37707 1.45C8.85707 1.16333 9.4104 0.949999 10.0371 0.809999C10.6637 0.663332 11.3571 0.603332 12.1171 0.629999C12.5904 0.649999 13.0071 0.709999 13.3671 0.809999C13.7337 0.909999 14.0537 1.03667 14.3271 1.19C14.6071 1.33667 14.8404 1.50333 15.0271 1.69C15.2204 1.87667 15.3837 2.06667 15.5171 2.26C15.8237 2.71333 16.0104 3.22 16.0771 3.78L15.0071 5.06C14.9871 4.87333 14.9637 4.68333 14.9371 4.49C14.9171 4.32333 14.8904 4.14333 14.8571 3.95C14.8304 3.75 14.8004 3.55333 14.7671 3.36C14.7271 3.18 14.6471 2.96667 14.5271 2.72C14.4071 2.47333 14.2404 2.24 14.0271 2.02C13.8137 1.79333 13.5504 1.6 13.2371 1.44C12.9237 1.28 12.5537 1.19 12.1271 1.17C11.6537 1.15 11.2171 1.22333 10.8171 1.39C10.4237 1.55 10.0671 1.77333 9.74707 2.06C9.43374 2.34 9.1604 2.66333 8.92707 3.03C8.69374 3.39667 8.50374 3.77333 8.35707 4.16C8.2104 4.54667 8.10374 4.92667 8.03707 5.3C7.97707 5.67333 7.96374 6.00667 7.99707 6.3C8.06374 7.02 8.21374 7.52 8.44707 7.8ZM5.60707 13.95C5.6604 13.8633 5.70707 13.7267 5.74707 13.54C5.78707 13.3467 5.8204 13.0867 5.84707 12.76C5.87374 12.3933 5.8304 12.08 5.71707 11.82C5.6104 11.5533 5.46374 11.3367 5.27707 11.17C5.09707 11.0033 4.89374 10.8833 4.66707 10.81C4.4404 10.7367 4.22374 10.71 4.01707 10.73C3.50374 10.7767 3.0704 10.97 2.71707 11.31C2.3704 11.6433 2.1004 12.0667 1.90707 12.58C1.71374 13.0933 1.59374 13.67 1.54707 14.31C1.50707 14.95 1.53707 15.5933 1.63707 16.24C1.69707 16.6333 1.79707 17 1.93707 17.34C2.07707 17.68 2.2504 17.9767 2.45707 18.23C2.66374 18.4767 2.89707 18.67 3.15707 18.81C3.41707 18.95 3.69374 19.0133 3.98707 19C4.39374 18.9867 4.81707 18.81 5.25707 18.47C5.69707 18.13 6.14374 17.6767 6.59707 17.11C7.05707 16.5433 7.5204 15.8867 7.98707 15.14C8.4604 14.3933 8.9304 13.6033 9.39707 12.77C9.8704 11.93 10.3404 11.07 10.8071 10.19C11.2804 9.31 11.7437 8.46 12.1971 7.64C12.6571 6.81333 13.1071 6.04 13.5471 5.32C13.9871 4.59333 14.4104 3.96667 14.8171 3.44C14.8371 3.41333 14.8637 3.43667 14.8971 3.51C14.9304 3.58333 14.9637 3.67 14.9971 3.77C15.0371 3.89 15.0804 4.03 15.1271 4.19C14.4804 5.10333 13.8804 6.03333 13.3271 6.98C12.7804 7.92667 12.2637 8.86333 11.7771 9.79C11.2971 10.7167 10.8404 11.62 10.4071 12.5C9.9804 13.3733 9.56374 14.2 9.15707 14.98C8.7504 15.7533 8.34707 16.4667 7.94707 17.12C7.55374 17.7667 7.14707 18.3267 6.72707 18.8C6.31374 19.2667 5.8804 19.6333 5.42707 19.9C4.9804 20.1667 4.5004 20.3033 3.98707 20.31C3.48707 20.3167 3.02374 20.2167 2.59707 20.01C2.17707 19.8033 1.80374 19.51 1.47707 19.13C1.15707 18.7567 0.890404 18.31 0.67707 17.79C0.463737 17.2633 0.31707 16.6867 0.23707 16.06C0.130404 15.2333 0.15707 14.4667 0.31707 13.76C0.47707 13.0533 0.730404 12.43 1.07707 11.89C1.42374 11.3433 1.84707 10.8967 2.34707 10.55C2.85374 10.1967 3.39707 9.96667 3.97707 9.86C4.3504 9.78667 4.7204 9.80333 5.08707 9.91C5.4604 10.01 5.7904 10.1667 6.07707 10.38C6.3704 10.5933 6.60374 10.85 6.77707 11.15C6.95707 11.45 7.04374 11.7633 7.03707 12.09C7.03707 12.4167 6.92374 12.7433 6.69707 13.07C6.47707 13.39 6.11374 13.6833 5.60707 13.95ZM11.8671 12.76C11.9004 13.12 11.9171 13.43 11.9171 13.69C11.9171 13.8033 11.9137 13.91 11.9071 14.01C11.9004 14.1033 11.8871 14.1833 11.8671 14.25C11.8537 14.3167 11.8304 14.36 11.7971 14.38C11.7637 14.3933 11.7237 14.3733 11.6771 14.32C11.4571 14.0933 11.2437 13.9233 11.0371 13.81C10.8304 13.6967 10.6271 13.63 10.4271 13.61C10.2271 13.5833 10.0271 13.5933 9.82707 13.64C9.63374 13.6867 9.43707 13.76 9.23707 13.86C9.19707 13.8267 9.17374 13.7767 9.16707 13.71C9.1604 13.6567 9.16707 13.5833 9.18707 13.49C9.21374 13.39 9.2704 13.2633 9.35707 13.11C9.42374 12.9833 9.5104 12.8833 9.61707 12.81C9.7304 12.73 9.85374 12.67 9.98707 12.63C10.1204 12.59 10.2571 12.5667 10.3971 12.56C10.5437 12.5533 10.6871 12.5533 10.8271 12.56C11.1537 12.5867 11.5004 12.6533 11.8671 12.76ZM14.3871 4.67C14.3937 4.67 14.4304 4.63 14.4971 4.55C14.5637 4.46333 14.6437 4.36 14.7371 4.24C14.8304 4.12 14.9337 3.99333 15.0471 3.86C15.1671 3.72 15.2804 3.6 15.3871 3.5C15.5004 3.4 15.6037 3.32667 15.6971 3.28C15.7904 3.23333 15.8637 3.23667 15.9171 3.29C15.9971 3.37667 16.0571 3.48 16.0971 3.6C16.1371 3.71333 16.1637 3.83333 16.1771 3.96C16.1971 4.08667 16.2004 4.21667 16.1871 4.35C16.1804 4.48333 16.1671 4.61 16.1471 4.73C16.1404 4.79 16.0737 5.03 15.9471 5.45C15.8271 5.86333 15.6704 6.4 15.4771 7.06C15.2904 7.72 15.0804 8.47333 14.8471 9.32C14.6204 10.16 14.3937 11.0367 14.1671 11.95C13.9471 12.8633 13.7404 13.7833 13.5471 14.71C13.3604 15.63 13.2104 16.5 13.0971 17.32C12.9904 18.14 12.9371 18.8767 12.9371 19.53C12.9371 20.1833 13.0137 20.7 13.1671 21.08C13.2271 21.2333 13.2304 21.3567 13.1771 21.45C13.1304 21.55 13.0504 21.6 12.9371 21.6C12.8971 21.6 12.8237 21.5633 12.7171 21.49C12.6104 21.4167 12.4871 21.3067 12.3471 21.16C12.2071 21.02 12.0571 20.8367 11.8971 20.61C11.7437 20.39 11.5971 20.13 11.4571 19.83C11.3237 19.5367 11.2071 19.2033 11.1071 18.83C11.0137 18.45 10.9571 18.0333 10.9371 17.58C10.9171 17.24 10.9504 16.7933 11.0371 16.24C11.1237 15.6867 11.2437 15.0767 11.3971 14.41C11.5571 13.7433 11.7404 13.04 11.9471 12.3C12.1537 11.5533 12.3637 10.82 12.5771 10.1C12.7971 9.38 13.0137 8.69333 13.2271 8.04C13.4404 7.38 13.6304 6.80333 13.7971 6.31C13.9704 5.81 14.1104 5.41333 14.2171 5.12C14.3237 4.82 14.3804 4.67 14.3871 4.67ZM15.9082 11.36C16.2282 11.3733 16.4816 11.5033 16.6682 11.75C16.8549 11.9967 16.9416 12.35 16.9282 12.81C16.9149 13.1433 16.8616 13.4833 16.7682 13.83C16.6749 14.17 16.5616 14.51 16.4282 14.85C16.3016 15.1833 16.1682 15.5133 16.0282 15.84C15.8882 16.1667 15.7682 16.4833 15.6682 16.79C15.5749 17.09 15.5116 17.38 15.4782 17.66C15.4516 17.9333 15.4816 18.1833 15.5682 18.41C15.5949 18.47 15.5782 18.5433 15.5182 18.63C15.4649 18.7167 15.3849 18.7967 15.2782 18.87C15.1782 18.9433 15.0549 19.0033 14.9082 19.05C14.7682 19.1033 14.6216 19.12 14.4682 19.1C14.3149 19.08 14.1682 19.0267 14.0282 18.94C13.8816 18.8467 13.7616 18.7233 13.6682 18.57C13.5682 18.41 13.5016 18.2233 13.4682 18.01C13.4282 17.7967 13.4449 17.56 13.5182 17.3C13.6249 16.8933 13.7482 16.5067 13.8882 16.14C14.0216 15.7667 14.1516 15.41 14.2782 15.07C14.4049 14.73 14.5182 14.41 14.6182 14.11C14.7182 13.8033 14.7882 13.5133 14.8282 13.24C14.8616 13.0267 14.8649 12.8367 14.8382 12.67C14.8116 12.4967 14.7416 12.36 14.6282 12.26C14.5682 12.2067 14.5382 12.15 14.5382 12.09C14.5382 12.0233 14.5482 11.9633 14.5682 11.91C14.5882 11.8567 14.6116 11.8133 14.6382 11.78C14.6716 11.74 14.6916 11.7133 14.6982 11.7C14.7116 11.6933 14.7449 11.67 14.7982 11.63C14.8516 11.5833 14.9282 11.54 15.0282 11.5C15.1282 11.46 15.2482 11.4267 15.3882 11.4C15.5349 11.3667 15.7082 11.3533 15.9082 11.36ZM18.5582 18.65C18.3982 18.75 18.2149 18.8033 18.0082 18.81C17.8016 18.81 17.6082 18.7633 17.4282 18.67C17.2482 18.5767 17.1049 18.44 16.9982 18.26C16.8916 18.0733 16.8616 17.8433 16.9082 17.57C16.9549 17.2433 17.0149 16.9367 17.0882 16.65C17.1616 16.3567 17.2416 16.07 17.3282 15.79C17.4149 15.51 17.5016 15.2267 17.5882 14.94C17.6816 14.6467 17.7749 14.3367 17.8682 14.01C17.9482 13.71 17.9849 13.4967 17.9782 13.37C17.9782 13.2367 17.9482 13.1667 17.8882 13.16C17.8282 13.1467 17.7482 13.1867 17.6482 13.28C17.5482 13.3667 17.4382 13.48 17.3182 13.62C17.0449 13.9467 16.7049 14.42 16.2982 15.04C16.3316 14.8467 16.3616 14.6733 16.3882 14.52C16.4149 14.3867 16.4382 14.2633 16.4582 14.15C16.4782 14.0367 16.4949 13.9733 16.5082 13.96C16.5816 13.82 16.6716 13.66 16.7782 13.48C16.8916 13.3 17.0182 13.1233 17.1582 12.95C17.2982 12.7767 17.4482 12.6133 17.6082 12.46C17.7749 12.3067 17.9482 12.1867 18.1282 12.1C18.3149 12.0067 18.5049 11.9567 18.6982 11.95C18.8982 11.9433 19.0982 11.9967 19.2982 12.11C19.4782 12.2167 19.6049 12.38 19.6782 12.6C19.7582 12.8133 19.7982 13.0467 19.7982 13.3C19.7982 13.5467 19.7716 13.7933 19.7182 14.04C19.6649 14.28 19.6049 14.4733 19.5382 14.62C19.3982 14.92 19.2582 15.2533 19.1182 15.62C18.9849 15.98 18.8682 16.3433 18.7682 16.71C18.6682 17.0767 18.5949 17.43 18.5482 17.77C18.5082 18.11 18.5116 18.4033 18.5582 18.65ZM21.6382 17.7C21.6049 17.88 21.6182 17.9733 21.6782 17.98C21.7382 17.98 21.8449 17.92 21.9982 17.8C22.2649 17.6133 22.5249 17.3867 22.7782 17.12C23.0316 16.8467 23.2682 16.56 23.4882 16.26C23.7149 15.96 23.9216 15.66 24.1082 15.36C24.3016 15.0533 24.4682 14.7733 24.6082 14.52C24.7549 14.2667 24.8716 14.05 24.9582 13.87C25.0516 13.69 25.1082 13.5767 25.1282 13.53C25.2216 13.3367 25.3049 13.22 25.3782 13.18C25.4582 13.1333 25.5182 13.14 25.5582 13.2C25.6049 13.2533 25.6249 13.35 25.6182 13.49C25.6182 13.6233 25.5882 13.7767 25.5282 13.95C25.4549 14.1567 25.3416 14.41 25.1882 14.71C25.0349 15.01 24.8516 15.3333 24.6382 15.68C24.4316 16.02 24.2016 16.3667 23.9482 16.72C23.6949 17.0733 23.4282 17.4033 23.1482 17.71C22.8682 18.0167 22.5816 18.2867 22.2882 18.52C22.0016 18.7533 21.7182 18.92 21.4382 19.02C21.2782 19.08 21.1016 19.0833 20.9082 19.03C20.7216 18.9833 20.5516 18.8933 20.3982 18.76C20.2516 18.62 20.1316 18.45 20.0382 18.25C19.9516 18.0433 19.9282 17.8167 19.9682 17.57C20.0216 17.2433 20.0849 16.9367 20.1582 16.65C20.2316 16.3567 20.3082 16.07 20.3882 15.79C20.4749 15.51 20.5649 15.2267 20.6582 14.94C20.7516 14.6467 20.8416 14.3367 20.9282 14.01C21.0082 13.71 21.0449 13.4967 21.0382 13.37C21.0382 13.2367 21.0082 13.1667 20.9482 13.16C20.8949 13.1467 20.8182 13.1867 20.7182 13.28C20.6182 13.3667 20.5082 13.48 20.3882 13.62C20.1149 13.9467 19.7749 14.42 19.3682 15.04C19.4016 14.8467 19.4316 14.6733 19.4582 14.52C19.4849 14.3867 19.5049 14.2633 19.5182 14.15C19.5382 14.0367 19.5549 13.9733 19.5682 13.96C19.6416 13.82 19.7316 13.66 19.8382 13.48C19.9516 13.3 20.0782 13.1233 20.2182 12.95C20.3582 12.7767 20.5116 12.6133 20.6782 12.46C20.8449 12.3067 21.0182 12.1867 21.1982 12.1C21.3849 12.0067 21.5749 11.9567 21.7682 11.95C21.9682 11.9433 22.1682 11.9967 22.3682 12.11C22.5482 12.2167 22.6749 12.38 22.7482 12.6C22.8216 12.8133 22.8582 13.0467 22.8582 13.3C22.8649 13.5467 22.8416 13.7933 22.7882 14.04C22.7349 14.28 22.6716 14.4733 22.5982 14.62C22.4982 14.8333 22.3949 15.07 22.2882 15.33C22.1882 15.5833 22.0949 15.8467 22.0082 16.12C21.9216 16.3867 21.8449 16.6567 21.7782 16.93C21.7116 17.1967 21.6649 17.4533 21.6382 17.7ZM25.4063 13.07C25.393 12.71 25.4263 12.4033 25.5063 12.15C25.5863 11.89 25.693 11.67 25.8263 11.49C25.9663 11.31 26.1196 11.1633 26.2863 11.05C26.4596 10.9367 26.623 10.85 26.7763 10.79C26.9363 10.7233 27.0796 10.6767 27.2063 10.65C27.333 10.6233 27.4196 10.6033 27.4663 10.59C27.573 10.5633 27.6663 10.58 27.7463 10.64C27.833 10.6933 27.893 10.7633 27.9263 10.85C27.9663 10.9367 27.9763 11.0267 27.9563 11.12C27.9363 11.2133 27.8796 11.28 27.7863 11.32C27.753 11.3333 27.703 11.3867 27.6363 11.48C27.5763 11.5667 27.513 11.68 27.4463 11.82C27.3796 11.9533 27.3196 12.1067 27.2663 12.28C27.2196 12.4467 27.1896 12.62 27.1763 12.8C27.1496 13.1333 27.153 13.5233 27.1863 13.97C27.2196 14.4167 27.2463 14.8833 27.2663 15.37C27.293 15.85 27.2996 16.3333 27.2863 16.82C27.2796 17.3 27.223 17.7433 27.1163 18.15C27.0096 18.55 26.8396 18.89 26.6063 19.17C26.373 19.4567 26.0463 19.6433 25.6263 19.73C25.3796 19.7833 25.163 19.7767 24.9763 19.71C24.7896 19.65 24.6396 19.55 24.5263 19.41C24.4063 19.27 24.323 19.1 24.2763 18.9C24.2296 18.7 24.223 18.4967 24.2563 18.29C24.2896 18.0767 24.363 17.8667 24.4763 17.66C24.583 17.4533 24.7363 17.2733 24.9363 17.12C25.1563 16.9533 25.4096 16.7833 25.6963 16.61C25.9896 16.4367 26.293 16.2567 26.6063 16.07C26.9196 15.8833 27.233 15.6867 27.5463 15.48C27.8596 15.2733 28.153 15.05 28.4263 14.81C28.6996 14.57 28.9396 14.3133 29.1463 14.04C29.353 13.7667 29.5063 13.4667 29.6063 13.14C29.653 12.98 29.713 12.88 29.7863 12.84C29.8663 12.8 29.9363 12.8033 29.9963 12.85C30.0563 12.8967 30.0963 12.98 30.1163 13.1C30.143 13.22 30.1296 13.3633 30.0763 13.53C29.983 13.8233 29.823 14.1167 29.5963 14.41C29.3696 14.6967 29.1063 14.98 28.8063 15.26C28.513 15.5333 28.1963 15.8 27.8563 16.06C27.5163 16.32 27.183 16.5667 26.8563 16.8C26.5296 17.0267 26.223 17.2367 25.9363 17.43C25.6563 17.6233 25.4263 17.79 25.2463 17.93C25.113 18.0367 25.0063 18.1433 24.9263 18.25C24.8463 18.3567 24.7996 18.45 24.7863 18.53C24.773 18.6033 24.7963 18.6567 24.8563 18.69C24.9163 18.7167 25.0163 18.7067 25.1563 18.66C25.3096 18.6133 25.4196 18.4567 25.4863 18.19C25.5596 17.9167 25.6063 17.5867 25.6263 17.2C25.6463 16.8133 25.6463 16.3967 25.6263 15.95C25.6063 15.5033 25.5796 15.0833 25.5463 14.69C25.5196 14.29 25.4896 13.9433 25.4563 13.65C25.423 13.35 25.4063 13.1567 25.4063 13.07ZM30.8583 5.78C31.1783 5.77333 31.425 5.84667 31.5983 6C31.7783 6.15333 31.9083 6.33667 31.9883 6.55C32.0683 6.75667 32.1117 6.96667 32.1183 7.18C32.1317 7.38667 32.1283 7.54333 32.1083 7.65C32.0083 8.29 31.8983 8.86333 31.7783 9.37C31.665 9.87 31.545 10.3433 31.4183 10.79C31.2983 11.23 31.1783 11.66 31.0583 12.08C30.945 12.5 30.835 12.95 30.7283 13.43C30.6283 13.91 30.5383 14.4367 30.4583 15.01C30.3783 15.5767 30.315 16.2333 30.2683 16.98C30.255 17.12 30.255 17.26 30.2683 17.4C30.2817 17.54 30.305 17.6667 30.3383 17.78C30.3717 17.8933 30.4117 17.9867 30.4583 18.06C30.5117 18.1267 30.5717 18.16 30.6383 18.16C30.7583 18.16 30.895 18.09 31.0483 17.95C31.2017 17.81 31.365 17.6267 31.5383 17.4C31.7117 17.1733 31.8883 16.9133 32.0683 16.62C32.255 16.3267 32.435 16.0267 32.6083 15.72C32.7883 15.4133 32.955 15.1133 33.1083 14.82C33.2683 14.5267 33.4083 14.2633 33.5283 14.03C33.6483 13.79 33.745 13.5933 33.8183 13.44C33.8917 13.2867 33.935 13.2033 33.9483 13.19C33.9883 13.1167 34.035 13.07 34.0883 13.05C34.1417 13.03 34.1883 13.0367 34.2283 13.07C34.2683 13.0967 34.2983 13.15 34.3183 13.23C34.3383 13.31 34.3383 13.4133 34.3183 13.54C34.3117 13.5667 34.2717 13.67 34.1983 13.85C34.125 14.0233 34.025 14.2433 33.8983 14.51C33.7783 14.77 33.6317 15.0667 33.4583 15.4C33.2917 15.7333 33.1083 16.07 32.9083 16.41C32.7083 16.75 32.495 17.0833 32.2683 17.41C32.0483 17.73 31.8217 18.0167 31.5883 18.27C31.355 18.5167 31.1217 18.7167 30.8883 18.87C30.6617 19.0233 30.4383 19.1 30.2183 19.1C30.0983 19.1 29.9383 19.0667 29.7383 19C29.545 18.9333 29.3583 18.8033 29.1783 18.61C29.005 18.4167 28.8617 18.14 28.7483 17.78C28.635 17.42 28.5983 16.9467 28.6383 16.36C28.685 15.5533 28.7683 14.7767 28.8883 14.03C29.015 13.2767 29.1717 12.49 29.3583 11.67C29.545 10.85 29.7617 9.96333 30.0083 9.01C30.2617 8.05667 30.545 6.98 30.8583 5.78ZM29.7883 7.62C29.795 7.68667 29.8917 7.72 30.0783 7.72C30.2717 7.71333 30.5183 7.69 30.8183 7.65C31.1183 7.61 31.455 7.56667 31.8283 7.52C32.2017 7.47333 32.575 7.44333 32.9483 7.43C33.3217 7.41 33.675 7.42 34.0083 7.46C34.3483 7.49333 34.6317 7.57333 34.8583 7.7C34.9183 7.73333 34.955 7.79667 34.9683 7.89C34.9817 7.97667 34.9817 8.06667 34.9683 8.16C34.9617 8.24667 34.9417 8.32333 34.9083 8.39C34.875 8.45 34.8417 8.46333 34.8083 8.43C34.6083 8.28333 34.3517 8.19 34.0383 8.15C33.725 8.11 33.385 8.1 33.0183 8.12C32.6583 8.14 32.2883 8.17667 31.9083 8.23C31.535 8.28333 31.1883 8.32333 30.8683 8.35C30.555 8.37667 30.2817 8.38 30.0483 8.36C29.8217 8.33333 29.675 8.25667 29.6083 8.13C29.575 8.06333 29.565 7.99333 29.5783 7.92C29.5917 7.84667 29.6117 7.78333 29.6383 7.73C29.6717 7.67 29.705 7.63 29.7383 7.61C29.7717 7.59 29.7883 7.59333 29.7883 7.62ZM39.241 13.36C39.1343 13.6733 38.9876 14.0367 38.801 14.45C38.6143 14.8633 38.3976 15.29 38.151 15.73C37.9043 16.1633 37.6343 16.5933 37.341 17.02C37.0543 17.44 36.7576 17.8133 36.451 18.14C36.1443 18.46 35.8343 18.7167 35.521 18.91C35.2143 19.1033 34.921 19.19 34.641 19.17C34.221 19.1433 33.8676 19.0433 33.581 18.87C33.301 18.6967 33.0776 18.4833 32.911 18.23C32.7376 17.9767 32.6143 17.7033 32.541 17.41C32.461 17.1167 32.4143 16.8333 32.401 16.56C32.361 15.9333 32.4243 15.3367 32.591 14.77C32.7576 14.1967 32.991 13.69 33.291 13.25C33.591 12.81 33.931 12.46 34.311 12.2C34.6976 11.9333 35.0876 11.7933 35.481 11.78C35.801 11.7667 36.0476 11.81 36.221 11.91C36.401 12.01 36.531 12.1333 36.611 12.28C36.6976 12.4267 36.7443 12.5833 36.751 12.75C36.7643 12.9167 36.7676 13.06 36.761 13.18C36.741 13.44 36.6876 13.6833 36.601 13.91C36.5143 14.1367 36.4043 14.3467 36.271 14.54C36.1443 14.7267 36.001 14.9 35.841 15.06C35.6876 15.2133 35.531 15.35 35.371 15.47C34.9976 15.7567 34.5776 15.9933 34.111 16.18C33.9243 15.98 33.791 15.81 33.711 15.67C33.6776 15.61 33.651 15.5533 33.631 15.5C33.6176 15.4467 33.621 15.4033 33.641 15.37C33.661 15.3367 33.701 15.3167 33.761 15.31C33.821 15.2967 33.911 15.3033 34.031 15.33C34.251 15.3833 34.4843 15.3367 34.731 15.19C34.9776 15.0433 35.2076 14.8533 35.421 14.62C35.641 14.38 35.8276 14.1233 35.981 13.85C36.1343 13.57 36.2243 13.3267 36.251 13.12C36.2643 13.06 36.2676 12.9967 36.261 12.93C36.2543 12.8633 36.241 12.8067 36.221 12.76C36.201 12.7067 36.171 12.6667 36.131 12.64C36.091 12.6133 36.0443 12.6067 35.991 12.62C35.8976 12.6467 35.7876 12.7333 35.661 12.88C35.5343 13.0267 35.4043 13.2167 35.271 13.45C35.1443 13.6767 35.0176 13.94 34.891 14.24C34.7643 14.54 34.651 14.8567 34.551 15.19C34.451 15.5233 34.3676 15.8667 34.301 16.22C34.241 16.5733 34.211 16.9167 34.211 17.25C34.2176 17.5833 34.261 17.8467 34.341 18.04C34.4276 18.2267 34.5776 18.3033 34.791 18.27C34.951 18.2433 35.1243 18.1867 35.311 18.1C35.4976 18.0067 35.6876 17.89 35.881 17.75C36.0743 17.6033 36.2643 17.43 36.451 17.23C36.6443 17.0233 36.8276 16.79 37.001 16.53C37.1876 16.25 37.3743 15.9367 37.561 15.59C37.7543 15.2433 37.9343 14.9 38.101 14.56C38.2676 14.22 38.4143 13.9067 38.541 13.62C38.6743 13.3267 38.7743 13.1 38.841 12.94C38.9343 12.7467 39.0176 12.63 39.091 12.59C39.171 12.5433 39.231 12.55 39.271 12.61C39.3176 12.67 39.341 12.77 39.341 12.91C39.341 13.0433 39.3076 13.1933 39.241 13.36ZM40.3143 18.38C40.4743 18.4 40.6409 18.35 40.8143 18.23C40.9876 18.11 41.1643 17.9433 41.3443 17.73C41.5243 17.5167 41.7009 17.27 41.8743 16.99C42.0543 16.71 42.2243 16.4233 42.3843 16.13C42.5443 15.83 42.6943 15.5333 42.8343 15.24C42.9809 14.94 43.1076 14.67 43.2143 14.43C43.3209 14.19 43.4076 13.99 43.4743 13.83C43.5476 13.6633 43.5909 13.5633 43.6043 13.53C43.6976 13.3367 43.7809 13.22 43.8543 13.18C43.9343 13.1333 43.9943 13.14 44.0343 13.2C44.0809 13.2533 44.1043 13.35 44.1043 13.49C44.1043 13.6233 44.0709 13.7767 44.0043 13.95C43.9243 14.23 43.8076 14.5567 43.6543 14.93C43.5076 15.2967 43.3343 15.6767 43.1343 16.07C42.9409 16.4633 42.7276 16.8533 42.4943 17.24C42.2609 17.6267 42.0176 17.9733 41.7643 18.28C41.5176 18.5867 41.2643 18.8367 41.0043 19.03C40.7443 19.2233 40.4943 19.3267 40.2543 19.34C40.1276 19.3467 39.9776 19.3267 39.8043 19.28C39.6309 19.2333 39.4609 19.1367 39.2943 18.99C39.1343 18.8433 38.9943 18.6367 38.8743 18.37C38.7543 18.1033 38.6809 17.7533 38.6543 17.32C38.6476 17.1933 38.6609 17.0233 38.6943 16.81C38.7276 16.59 38.7743 16.3567 38.8343 16.11C38.8943 15.8567 38.9609 15.6033 39.0343 15.35C39.1076 15.0967 39.1743 14.87 39.2343 14.67C39.3009 14.4633 39.3576 14.2967 39.4043 14.17C39.4509 14.0367 39.4776 13.97 39.4843 13.97C39.4909 13.97 39.4376 13.97 39.3243 13.97C39.2176 13.9633 39.0876 13.9267 38.9343 13.86C38.7876 13.7867 38.6443 13.6667 38.5043 13.5C38.3643 13.3267 38.2709 13.0733 38.2243 12.74C38.2043 12.5867 38.2076 12.4033 38.2343 12.19C38.2676 11.9767 38.3143 11.7533 38.3743 11.52C38.4409 11.2867 38.5209 11.0567 38.6143 10.83C38.7143 10.5967 38.8209 10.3867 38.9343 10.2C39.0543 10.0133 39.1809 9.85667 39.3143 9.73C39.4543 9.60333 39.5943 9.53 39.7343 9.51C39.9076 9.48333 40.0543 9.49 40.1743 9.53C40.3009 9.57 40.4009 9.63 40.4743 9.71C40.5476 9.78333 40.5976 9.87333 40.6243 9.98C40.6509 10.0867 40.6543 10.1967 40.6343 10.31C40.6143 10.4233 40.5576 10.59 40.4643 10.81C40.3709 11.03 40.2709 11.25 40.1643 11.47C40.0443 11.73 39.9076 12.0033 39.7543 12.29C40.0276 12.19 40.2809 12.0967 40.5143 12.01C40.7143 11.9367 40.9143 11.8667 41.1143 11.8C41.3143 11.7267 41.4676 11.68 41.5743 11.66C41.7076 11.6333 41.8109 11.67 41.8843 11.77C41.9643 11.8633 42.0176 11.98 42.0443 12.12C42.0709 12.26 42.0743 12.4067 42.0543 12.56C42.0343 12.7067 41.9943 12.82 41.9343 12.9C41.7809 13.1133 41.6109 13.39 41.4243 13.73C41.2443 14.0633 41.0709 14.42 40.9043 14.8C40.7376 15.18 40.5876 15.5667 40.4543 15.96C40.3209 16.3533 40.2176 16.7167 40.1443 17.05C40.0776 17.3833 40.0543 17.67 40.0743 17.91C40.0943 18.15 40.1743 18.3067 40.3143 18.38ZM46.7252 12.33C46.7252 12.3367 46.7419 12.2467 46.7752 12.06C46.8152 11.8733 46.8619 11.6233 46.9152 11.31C46.9752 10.9967 47.0352 10.64 47.0952 10.24C47.1619 9.84 47.2219 9.43333 47.2752 9.02C47.3352 8.6 47.3819 8.19 47.4152 7.79C47.4485 7.39 47.4652 7.03667 47.4652 6.73C47.4652 6.41667 47.4385 6.17 47.3852 5.99C47.3385 5.80333 47.2552 5.71667 47.1352 5.73C46.9752 5.75 46.8385 5.84 46.7252 6C46.6119 6.16 46.5219 6.36667 46.4552 6.62C46.3885 6.86667 46.3452 7.15 46.3252 7.47C46.3119 7.79 46.3152 8.12 46.3352 8.46C46.3619 8.79333 46.4085 9.12667 46.4752 9.46C46.5419 9.78667 46.6285 10.0867 46.7352 10.36C46.8419 10.6267 46.9652 10.8533 47.1052 11.04C47.2452 11.22 47.4052 11.3367 47.5852 11.39C47.6119 11.4033 47.6285 11.4467 47.6352 11.52C47.6485 11.5933 47.6519 11.6733 47.6452 11.76C47.6385 11.84 47.6219 11.9133 47.5952 11.98C47.5752 12.0467 47.5419 12.0733 47.4952 12.06C47.2085 11.98 46.9552 11.8133 46.7352 11.56C46.5152 11.3067 46.3285 11 46.1752 10.64C46.0285 10.2733 45.9119 9.87333 45.8252 9.44C45.7385 9 45.6885 8.56 45.6752 8.12C45.6619 7.68 45.6819 7.25667 45.7352 6.85C45.7952 6.43667 45.8885 6.07667 46.0152 5.77C46.1419 5.46333 46.3052 5.22333 46.5052 5.05C46.7052 4.87 46.9419 4.79333 47.2152 4.82C47.6419 4.86 47.9719 5.04 48.2052 5.36C48.4452 5.67333 48.6119 6.08333 48.7052 6.59C48.7985 7.09 48.8285 7.66333 48.7952 8.31C48.7619 8.95 48.6919 9.62 48.5852 10.32C48.4852 11.02 48.3585 11.7267 48.2052 12.44C48.0585 13.1467 47.9085 13.8167 47.7552 14.45C47.6019 15.0767 47.4585 15.6467 47.3252 16.16C47.1985 16.6667 47.1085 17.07 47.0552 17.37C46.9819 17.7167 46.9719 17.9133 47.0252 17.96C47.0785 18 47.1952 17.9467 47.3752 17.8C47.6085 17.6133 47.8352 17.3867 48.0552 17.12C48.2752 16.8467 48.4819 16.56 48.6752 16.26C48.8685 15.96 49.0452 15.66 49.2052 15.36C49.3719 15.0533 49.5152 14.7733 49.6352 14.52C49.7619 14.2667 49.8619 14.05 49.9352 13.87C50.0152 13.69 50.0652 13.5767 50.0852 13.53C50.1785 13.3367 50.2619 13.22 50.3352 13.18C50.4152 13.1333 50.4752 13.14 50.5152 13.2C50.5619 13.2533 50.5819 13.35 50.5752 13.49C50.5752 13.6233 50.5452 13.7767 50.4852 13.95C50.4052 14.1833 50.2852 14.47 50.1252 14.81C49.9719 15.15 49.7919 15.5067 49.5852 15.88C49.3785 16.2533 49.1485 16.6267 48.8952 17C48.6419 17.3733 48.3752 17.71 48.0952 18.01C47.8219 18.3033 47.5352 18.5433 47.2352 18.73C46.9419 18.91 46.6485 19 46.3552 19C46.2819 19 46.1952 18.9833 46.0952 18.95C45.9952 18.9167 45.8952 18.8567 45.7952 18.77C45.7019 18.6767 45.6185 18.55 45.5452 18.39C45.4785 18.2233 45.4452 18.0133 45.4452 17.76C45.4452 17.7133 45.4719 17.58 45.5252 17.36C45.5785 17.1333 45.6452 16.8567 45.7252 16.53C45.8052 16.1967 45.8919 15.8333 45.9852 15.44C46.0852 15.0467 46.1819 14.6567 46.2752 14.27C46.3685 13.8833 46.4552 13.52 46.5352 13.18C46.6152 12.8333 46.6785 12.55 46.7252 12.33ZM42.6752 16.68C42.6485 16.4533 42.6519 16.1767 42.6852 15.85C42.7185 15.5233 42.7819 15.1833 42.8752 14.83C42.9685 14.4767 43.0952 14.1233 43.2552 13.77C43.4219 13.41 43.6252 13.0867 43.8652 12.8C44.1119 12.5133 44.3952 12.2733 44.7152 12.08C45.0419 11.88 45.4119 11.7633 45.8252 11.73C45.9652 11.7167 46.0985 11.7467 46.2252 11.82C46.3519 11.8867 46.4585 12 46.5452 12.16C46.6385 12.32 46.7052 12.5233 46.7452 12.77C46.7852 13.0167 46.7852 13.31 46.7452 13.65C46.7452 13.6833 46.7252 13.75 46.6852 13.85C46.6519 13.9433 46.6152 14.0333 46.5752 14.12C46.5419 14.2 46.5085 14.2633 46.4752 14.31C46.4485 14.35 46.4419 14.3333 46.4552 14.26C46.5219 13.8333 46.5119 13.4867 46.4252 13.22C46.3452 12.9533 46.2352 12.8133 46.0952 12.8C45.9352 12.78 45.7585 12.88 45.5652 13.1C45.3785 13.3133 45.1985 13.6067 45.0252 13.98C44.8519 14.3467 44.7019 14.7667 44.5752 15.24C44.4485 15.7133 44.3719 16.1933 44.3452 16.68C44.3385 16.7333 44.3419 16.8267 44.3552 16.96C44.3685 17.0933 44.3919 17.2267 44.4252 17.36C44.4585 17.4933 44.5019 17.6133 44.5552 17.72C44.6152 17.82 44.6885 17.87 44.7752 17.87C44.8619 17.87 44.9552 17.8067 45.0552 17.68C45.1619 17.5533 45.2619 17.4133 45.3552 17.26C45.4619 17.08 45.5652 16.8733 45.6652 16.64L46.0852 17.2C45.9785 17.5133 45.8385 17.7733 45.6652 17.98C45.4985 18.18 45.3152 18.3433 45.1152 18.47C44.9219 18.59 44.7252 18.6733 44.5252 18.72C44.3252 18.7667 44.1419 18.7867 43.9752 18.78C43.7419 18.76 43.5452 18.67 43.3852 18.51C43.2319 18.35 43.1052 18.16 43.0052 17.94C42.9052 17.72 42.8285 17.4933 42.7752 17.26C42.7219 17.0267 42.6885 16.8333 42.6752 16.68ZM53.2186 11.94C53.2253 11.84 53.262 11.7833 53.3286 11.77C53.402 11.7567 53.4853 11.78 53.5786 11.84C53.6786 11.8933 53.782 11.9767 53.8886 12.09C53.9953 12.1967 54.0953 12.3233 54.1886 12.47C54.282 12.61 54.3553 12.7633 54.4086 12.93C54.4686 13.09 54.4986 13.25 54.4986 13.41C54.4986 13.4633 54.4753 13.5733 54.4286 13.74C54.3886 13.9 54.3353 14.0967 54.2686 14.33C54.2086 14.5633 54.1386 14.82 54.0586 15.1C53.9786 15.3733 53.902 15.6467 53.8286 15.92C53.7553 16.1933 53.6853 16.4567 53.6186 16.71C53.5586 16.9633 53.512 17.1833 53.4786 17.37C53.4053 17.7167 53.3953 17.9133 53.4486 17.96C53.502 18 53.6153 17.9467 53.7886 17.8C54.022 17.6133 54.252 17.38 54.4786 17.1C54.712 16.8133 54.932 16.51 55.1386 16.19C55.3453 15.8633 55.5353 15.5367 55.7086 15.21C55.8886 14.8767 56.0453 14.5733 56.1786 14.3C56.312 14.02 56.422 13.7833 56.5086 13.59C56.5953 13.3967 56.6486 13.2767 56.6686 13.23C56.7553 13.0367 56.8353 12.92 56.9086 12.88C56.9886 12.8333 57.0486 12.84 57.0886 12.9C57.1353 12.9533 57.1586 13.05 57.1586 13.19C57.1586 13.3233 57.1253 13.4767 57.0586 13.65C56.972 13.8833 56.8486 14.1767 56.6886 14.53C56.5286 14.8833 56.3386 15.26 56.1186 15.66C55.8986 16.0533 55.6553 16.45 55.3886 16.85C55.122 17.25 54.8453 17.61 54.5586 17.93C54.272 18.2433 53.9753 18.5 53.6686 18.7C53.3686 18.9 53.072 19 52.7786 19C52.7053 19 52.6153 18.9833 52.5086 18.95C52.4086 18.9167 52.312 18.8567 52.2186 18.77C52.1253 18.6767 52.042 18.55 51.9686 18.39C51.902 18.2233 51.8653 18.0133 51.8586 17.76C51.8586 17.72 51.8753 17.6133 51.9086 17.44C51.9486 17.2667 51.9986 17.0533 52.0586 16.8C52.1253 16.5467 52.1953 16.26 52.2686 15.94C52.3486 15.62 52.4286 15.2933 52.5086 14.96C52.5953 14.6267 52.6786 14.2967 52.7586 13.97C52.8386 13.6433 52.912 13.3433 52.9786 13.07C53.0453 12.7967 53.0986 12.56 53.1386 12.36C53.1853 12.16 53.212 12.02 53.2186 11.94ZM49.0886 16.68C49.0686 16.4533 49.0753 16.1767 49.1086 15.85C49.1353 15.5233 49.1986 15.1833 49.2986 14.83C49.392 14.4767 49.5186 14.1233 49.6786 13.77C49.8453 13.41 50.0486 13.0867 50.2886 12.8C50.5353 12.5133 50.8186 12.2733 51.1386 12.08C51.4653 11.88 51.8353 11.7633 52.2486 11.73C52.382 11.7167 52.512 11.7467 52.6386 11.82C52.7653 11.8867 52.872 12 52.9586 12.16C53.052 12.32 53.1186 12.5233 53.1586 12.77C53.1986 13.0167 53.1986 13.31 53.1586 13.65C53.1586 13.6833 53.142 13.75 53.1086 13.85C53.0753 13.9433 53.0386 14.0333 52.9986 14.12C52.9586 14.2 52.922 14.2633 52.8886 14.31C52.862 14.35 52.8553 14.3333 52.8686 14.26C52.902 14.0467 52.9153 13.8533 52.9086 13.68C52.902 13.5 52.8786 13.3467 52.8386 13.22C52.8053 13.0933 52.7586 12.9933 52.6986 12.92C52.6453 12.8467 52.5853 12.8067 52.5186 12.8C52.3586 12.78 52.182 12.88 51.9886 13.1C51.7953 13.3133 51.612 13.6067 51.4386 13.98C51.2653 14.3467 51.1153 14.7667 50.9886 15.24C50.862 15.7133 50.7853 16.1933 50.7586 16.68C50.7586 16.7333 50.762 16.8267 50.7686 16.96C50.782 17.0933 50.8053 17.2267 50.8386 17.36C50.8786 17.4933 50.9253 17.6133 50.9786 17.72C51.0386 17.82 51.112 17.87 51.1986 17.87C51.2853 17.87 51.3786 17.8067 51.4786 17.68C51.5853 17.5533 51.6853 17.4133 51.7786 17.26C51.8853 17.08 51.9886 16.8733 52.0886 16.64L52.5086 17.2C52.3953 17.5133 52.252 17.7733 52.0786 17.98C51.912 18.18 51.7286 18.3433 51.5286 18.47C51.3353 18.59 51.1386 18.6733 50.9386 18.72C50.7453 18.7667 50.5653 18.7867 50.3986 18.78C50.1653 18.76 49.9686 18.67 49.8086 18.51C49.6486 18.35 49.5186 18.16 49.4186 17.94C49.3186 17.72 49.242 17.4933 49.1886 17.26C49.1353 17.0267 49.102 16.8333 49.0886 16.68ZM57.7149 11.36C58.0349 11.3733 58.2882 11.5033 58.4749 11.75C58.6615 11.9967 58.7482 12.35 58.7349 12.81C58.7215 13.1433 58.6682 13.4833 58.5749 13.83C58.4815 14.17 58.3682 14.51 58.2349 14.85C58.1082 15.1833 57.9749 15.5133 57.8349 15.84C57.6949 16.1667 57.5749 16.4833 57.4749 16.79C57.3815 17.09 57.3182 17.38 57.2849 17.66C57.2582 17.9333 57.2882 18.1833 57.3749 18.41C57.4015 18.47 57.3849 18.5433 57.3249 18.63C57.2715 18.7167 57.1915 18.7967 57.0849 18.87C56.9849 18.9433 56.8615 19.0033 56.7149 19.05C56.5749 19.1033 56.4282 19.12 56.2749 19.1C56.1215 19.08 55.9749 19.0267 55.8349 18.94C55.6882 18.8467 55.5682 18.7233 55.4749 18.57C55.3749 18.41 55.3082 18.2233 55.2749 18.01C55.2349 17.7967 55.2515 17.56 55.3249 17.3C55.4315 16.8933 55.5549 16.5067 55.6949 16.14C55.8282 15.7667 55.9582 15.41 56.0849 15.07C56.2115 14.73 56.3249 14.41 56.4249 14.11C56.5249 13.8033 56.5949 13.5133 56.6349 13.24C56.6682 13.0267 56.6715 12.8367 56.6449 12.67C56.6182 12.4967 56.5482 12.36 56.4349 12.26C56.3749 12.2067 56.3449 12.15 56.3449 12.09C56.3449 12.0233 56.3549 11.9633 56.3749 11.91C56.3949 11.8567 56.4182 11.8133 56.4449 11.78C56.4782 11.74 56.4982 11.7133 56.5049 11.7C56.5182 11.6933 56.5515 11.67 56.6049 11.63C56.6582 11.5833 56.7349 11.54 56.8349 11.5C56.9349 11.46 57.0549 11.4267 57.1949 11.4C57.3415 11.3667 57.5149 11.3533 57.7149 11.36ZM60.3649 18.65C60.2049 18.75 60.0215 18.8033 59.8149 18.81C59.6082 18.81 59.4149 18.7633 59.2349 18.67C59.0549 18.5767 58.9115 18.44 58.8049 18.26C58.6982 18.0733 58.6682 17.8433 58.7149 17.57C58.7615 17.2433 58.8215 16.9367 58.8949 16.65C58.9682 16.3567 59.0482 16.07 59.1349 15.79C59.2215 15.51 59.3082 15.2267 59.3949 14.94C59.4882 14.6467 59.5815 14.3367 59.6749 14.01C59.7549 13.71 59.7915 13.4967 59.7849 13.37C59.7849 13.2367 59.7549 13.1667 59.6949 13.16C59.6349 13.1467 59.5549 13.1867 59.4549 13.28C59.3549 13.3667 59.2449 13.48 59.1249 13.62C58.8515 13.9467 58.5115 14.42 58.1049 15.04C58.1382 14.8467 58.1682 14.6733 58.1949 14.52C58.2215 14.3867 58.2449 14.2633 58.2649 14.15C58.2849 14.0367 58.3015 13.9733 58.3149 13.96C58.3882 13.82 58.4782 13.66 58.5849 13.48C58.6982 13.3 58.8249 13.1233 58.9649 12.95C59.1049 12.7767 59.2549 12.6133 59.4149 12.46C59.5815 12.3067 59.7549 12.1867 59.9349 12.1C60.1215 12.0067 60.3115 11.9567 60.5049 11.95C60.7049 11.9433 60.9049 11.9967 61.1049 12.11C61.2849 12.2167 61.4115 12.38 61.4849 12.6C61.5649 12.8133 61.6049 13.0467 61.6049 13.3C61.6049 13.5467 61.5782 13.7933 61.5249 14.04C61.4715 14.28 61.4115 14.4733 61.3449 14.62C61.2049 14.92 61.0649 15.2533 60.9249 15.62C60.7915 15.98 60.6749 16.3433 60.5749 16.71C60.4749 17.0767 60.4015 17.43 60.3549 17.77C60.3149 18.11 60.3182 18.4033 60.3649 18.65ZM63.4449 17.7C63.4115 17.88 63.4249 17.9733 63.4849 17.98C63.5449 17.98 63.6515 17.92 63.8049 17.8C64.0715 17.6133 64.3315 17.3867 64.5849 17.12C64.8382 16.8467 65.0749 16.56 65.2949 16.26C65.5215 15.96 65.7282 15.66 65.9149 15.36C66.1082 15.0533 66.2749 14.7733 66.4149 14.52C66.5616 14.2667 66.6782 14.05 66.7649 13.87C66.8582 13.69 66.9149 13.5767 66.9349 13.53C67.0282 13.3367 67.1115 13.22 67.1849 13.18C67.2649 13.1333 67.3249 13.14 67.3649 13.2C67.4115 13.2533 67.4315 13.35 67.4249 13.49C67.4249 13.6233 67.3949 13.7767 67.3349 13.95C67.2616 14.1567 67.1482 14.41 66.9949 14.71C66.8416 15.01 66.6582 15.3333 66.4449 15.68C66.2382 16.02 66.0082 16.3667 65.7549 16.72C65.5015 17.0733 65.2349 17.4033 64.9549 17.71C64.6749 18.0167 64.3882 18.2867 64.0949 18.52C63.8082 18.7533 63.5249 18.92 63.2449 19.02C63.0849 19.08 62.9082 19.0833 62.7149 19.03C62.5282 18.9833 62.3582 18.8933 62.2049 18.76C62.0582 18.62 61.9382 18.45 61.8449 18.25C61.7582 18.0433 61.7349 17.8167 61.7749 17.57C61.8282 17.2433 61.8915 16.9367 61.9649 16.65C62.0382 16.3567 62.1149 16.07 62.1949 15.79C62.2815 15.51 62.3715 15.2267 62.4649 14.94C62.5582 14.6467 62.6482 14.3367 62.7349 14.01C62.8149 13.71 62.8515 13.4967 62.8449 13.37C62.8449 13.2367 62.8149 13.1667 62.7549 13.16C62.7015 13.1467 62.6249 13.1867 62.5249 13.28C62.4249 13.3667 62.3149 13.48 62.1949 13.62C61.9215 13.9467 61.5815 14.42 61.1749 15.04C61.2082 14.8467 61.2382 14.6733 61.2649 14.52C61.2915 14.3867 61.3115 14.2633 61.3249 14.15C61.3449 14.0367 61.3615 13.9733 61.3749 13.96C61.4482 13.82 61.5382 13.66 61.6449 13.48C61.7582 13.3 61.8849 13.1233 62.0249 12.95C62.1649 12.7767 62.3182 12.6133 62.4849 12.46C62.6515 12.3067 62.8249 12.1867 63.0049 12.1C63.1915 12.0067 63.3815 11.9567 63.5749 11.95C63.7749 11.9433 63.9749 11.9967 64.1749 12.11C64.3549 12.2167 64.4815 12.38 64.5549 12.6C64.6282 12.8133 64.6649 13.0467 64.6649 13.3C64.6715 13.5467 64.6482 13.7933 64.5949 14.04C64.5415 14.28 64.4782 14.4733 64.4049 14.62C64.3049 14.8333 64.2015 15.07 64.0949 15.33C63.9949 15.5833 63.9015 15.8467 63.8149 16.12C63.7282 16.3867 63.6515 16.6567 63.5849 16.93C63.5182 17.1967 63.4715 17.4533 63.4449 17.7Z" fill="#BCBCBC"/>
</svg>
