<svg width="41" height="14" viewBox="0 0 41 14" fill="none" xmlns="http://www.w3.org/2000/svg">
<path d="M8.68828 8.7C8.78162 8.56667 8.91495 8.33333 9.08828 8C9.51495 7.24 9.76828 6.86 9.84828 6.86C9.94162 6.86 9.98828 6.91333 9.98828 7.02C9.98828 7.67333 9.64828 8.5 8.96828 9.5C7.74161 11.3 6.10828 12.2 4.06828 12.2C3.49495 12.2 2.96828 12.0667 2.48828 11.8C2.00828 11.5333 1.62828 11.1933 1.34828 10.78C0.774948 9.94 0.488281 9.06 0.488281 8.14C0.488281 5.82 1.08828 3.95333 2.28828 2.54C3.50161 1.11333 4.93495 0.399999 6.58828 0.399999C7.21495 0.399999 7.72828 0.586666 8.12828 0.959999C8.52828 1.32 8.72828 1.78 8.72828 2.34C8.72828 2.9 8.58828 3.42 8.30828 3.9C8.02828 4.38 7.68828 4.62 7.28828 4.62C6.90161 4.62 6.70828 4.51333 6.70828 4.3C6.70828 4.06 6.83495 3.78667 7.08828 3.48C7.35495 3.17333 7.48828 2.86667 7.48828 2.56C7.48828 1.61333 6.98162 1.14 5.96828 1.14C4.96828 1.14 4.06161 1.81333 3.24828 3.16C2.43495 4.50667 2.02828 5.89333 2.02828 7.32C2.02828 8.30667 2.30828 9.18667 2.86828 9.96C3.42828 10.72 4.21495 11.1 5.22828 11.1C6.42828 11.1 7.58162 10.3 8.68828 8.7ZM14.9905 7.66C15.5238 7.48667 15.8905 7.34 16.0905 7.22C16.3038 7.08667 16.4638 6.98667 16.5705 6.92L16.8105 6.78C16.8771 6.74 16.9305 6.72 16.9705 6.72C17.0771 6.72 17.1305 6.78 17.1305 6.9C17.1305 7.02 16.9238 7.23333 16.5105 7.54C16.0971 7.83333 15.5838 8.1 14.9705 8.34C14.8771 9.46 14.5238 10.3667 13.9105 11.06C13.2971 11.7533 12.4238 12.1 11.2905 12.1C10.4638 12.1 9.83047 11.7733 9.39047 11.12C8.95047 10.4533 8.73047 9.68 8.73047 8.8C8.73047 7.90667 8.99047 7.06667 9.51047 6.28C10.0438 5.49333 10.7238 5.1 11.5505 5.1C11.9238 4.83333 12.3638 4.7 12.8705 4.7C13.3905 4.7 13.8705 4.97333 14.3105 5.52C14.7505 6.06667 14.9771 6.78 14.9905 7.66ZM13.6905 8.68L12.9705 8.72C12.3571 8.72 11.8371 8.54 11.4105 8.18C10.9838 7.80667 10.7705 7.4 10.7705 6.96C10.7705 6.52 10.8438 6.14 10.9905 5.82C10.4171 6.27333 10.1305 7.16667 10.1305 8.5C10.1305 9.14 10.2638 9.75333 10.5305 10.34C10.7971 10.9133 11.2171 11.2 11.7905 11.2C12.3638 11.2 12.8105 10.96 13.1305 10.48C13.4505 9.98667 13.6371 9.38667 13.6905 8.68ZM12.4505 5.36C12.2371 5.36 12.0705 5.46 11.9505 5.66C11.8305 5.84667 11.7705 6.05333 11.7705 6.28C11.7705 6.77333 11.9371 7.17333 12.2705 7.48C12.6171 7.78667 13.0171 7.94 13.4705 7.94H13.7105C13.6838 7.28667 13.5705 6.69333 13.3705 6.16C13.1838 5.62667 12.8771 5.36 12.4505 5.36ZM22.2756 7.66C22.809 7.48667 23.1756 7.34 23.3756 7.22C23.589 7.08667 23.749 6.98667 23.8556 6.92L24.0956 6.78C24.1623 6.74 24.2156 6.72 24.2556 6.72C24.3623 6.72 24.4156 6.78 24.4156 6.9C24.4156 7.02 24.209 7.23333 23.7956 7.54C23.3823 7.83333 22.869 8.1 22.2556 8.34C22.1623 9.46 21.809 10.3667 21.1956 11.06C20.5823 11.7533 19.709 12.1 18.5756 12.1C17.749 12.1 17.1156 11.7733 16.6756 11.12C16.2356 10.4533 16.0156 9.68 16.0156 8.8C16.0156 7.90667 16.2756 7.06667 16.7956 6.28C17.329 5.49333 18.009 5.1 18.8356 5.1C19.209 4.83333 19.649 4.7 20.1556 4.7C20.6756 4.7 21.1556 4.97333 21.5956 5.52C22.0356 6.06667 22.2623 6.78 22.2756 7.66ZM20.9756 8.68L20.2556 8.72C19.6423 8.72 19.1223 8.54 18.6956 8.18C18.269 7.80667 18.0556 7.4 18.0556 6.96C18.0556 6.52 18.129 6.14 18.2756 5.82C17.7023 6.27333 17.4156 7.16667 17.4156 8.5C17.4156 9.14 17.549 9.75333 17.8156 10.34C18.0823 10.9133 18.5023 11.2 19.0756 11.2C19.649 11.2 20.0956 10.96 20.4156 10.48C20.7356 9.98667 20.9223 9.38667 20.9756 8.68ZM19.7356 5.36C19.5223 5.36 19.3556 5.46 19.2356 5.66C19.1156 5.84667 19.0556 6.05333 19.0556 6.28C19.0556 6.77333 19.2223 7.17333 19.5556 7.48C19.9023 7.78667 20.3023 7.94 20.7556 7.94H20.9956C20.969 7.28667 20.8556 6.69333 20.6556 6.16C20.469 5.62667 20.1623 5.36 19.7356 5.36ZM29.7408 12.7L30.2808 12.64C30.3874 12.64 30.4408 12.6933 30.4408 12.8C30.4408 12.9867 30.3141 13.1267 30.0608 13.22C29.8074 13.3133 29.5208 13.36 29.2008 13.36C28.6008 13.36 28.0941 13.12 27.6808 12.64C27.2808 12.16 26.7208 11.2733 26.0008 9.98C25.8274 9.7 25.7408 9.48667 25.7408 9.34C25.7408 9.14 26.0208 8.90667 26.5808 8.64C27.4874 8.17333 27.9408 7.58667 27.9408 6.88C27.9408 6.68 27.8674 6.51333 27.7208 6.38C27.5874 6.23333 27.4074 6.16 27.1808 6.16C26.8608 6.16 26.4808 6.54 26.0408 7.3C25.6008 8.04667 25.3008 8.75333 25.1408 9.42C24.9941 10.0733 24.9208 10.78 24.9208 11.54C24.9208 11.9133 24.8141 12.1 24.6008 12.1C24.2941 12.1 24.0008 12.06 23.7208 11.98C23.4408 11.8867 23.3008 11.7733 23.3008 11.64C23.3008 11.4933 23.3541 10.86 23.4608 9.74C23.5674 8.60667 23.6274 7.79333 23.6408 7.3C23.6941 4.58 23.8541 2.5 24.1208 1.06C24.1608 0.939999 24.3408 0.733333 24.6608 0.44C24.9941 0.146666 25.2608 -4.76837e-07 25.4608 -4.76837e-07C25.6608 -4.76837e-07 25.7541 0.253333 25.7408 0.759999C25.7408 1.25333 25.6341 2.32 25.4208 3.96C25.2074 5.6 25.0741 7.1 25.0208 8.46C25.2608 7.60667 25.6408 6.8 26.1608 6.04C26.6941 5.28 27.2274 4.9 27.7608 4.9C28.6674 4.9 29.1208 5.34 29.1208 6.22C29.1208 6.80667 28.9474 7.34 28.6008 7.82C28.2541 8.28667 27.7874 8.66667 27.2008 8.96C27.0808 9.01333 27.0208 9.07333 27.0208 9.14C27.0208 9.20667 27.0408 9.27333 27.0808 9.34C27.9208 10.82 28.6341 11.86 29.2208 12.46C29.3808 12.62 29.5541 12.7 29.7408 12.7ZM30.8963 2.22C30.8963 1.98 31.0229 1.77333 31.2763 1.6C31.5296 1.42667 31.7563 1.34 31.9563 1.34C32.3163 1.34 32.4963 1.54667 32.4963 1.96C32.4963 2.37333 32.3896 2.73333 32.1763 3.04C31.9629 3.33333 31.6629 3.48 31.2763 3.48C31.0229 3.48 30.8963 3.06 30.8963 2.22ZM31.4762 12.1C30.9563 12.1 30.5629 11.9933 30.2963 11.78C30.2029 11.6867 30.1562 11.3533 30.1562 10.78C30.1562 10.2067 30.1963 9.25333 30.2763 7.92C30.3696 6.57333 30.4496 5.84667 30.5163 5.74C30.5829 5.63333 30.7896 5.43333 31.1363 5.14C31.4829 4.84667 31.7496 4.7 31.9363 4.7C32.1363 4.7 32.2363 4.95333 32.2363 5.46C32.2363 5.59333 32.1963 5.85333 32.1163 6.24C32.0496 6.62667 31.9696 6.90667 31.8763 7.08C31.7029 7.52 31.6163 8.67333 31.6163 10.54C31.6163 10.9 31.6563 11.08 31.7363 11.08C31.9629 11.0667 32.2763 10.7867 32.6763 10.24C33.0763 9.68 33.4696 8.96667 33.8563 8.1C34.2563 7.23333 34.4963 6.8 34.5763 6.8C34.6696 6.8 34.7163 6.85333 34.7163 6.96C34.7163 7.33333 34.5229 7.92667 34.1363 8.74C33.0829 10.98 32.1963 12.1 31.4762 12.1ZM36.0923 12.1C35.3457 12.1 34.7523 11.82 34.3123 11.26C33.8723 10.6867 33.6523 10.04 33.6523 9.32C33.6523 7.86667 33.959 6.76667 34.5723 6.02C35.1857 5.27333 35.979 4.9 36.9523 4.9C37.4057 4.9 37.779 5.02667 38.0723 5.28C38.3657 5.52 38.5123 5.85333 38.5123 6.28C38.5123 7.08 38.1723 7.75333 37.4923 8.3C36.8257 8.83333 36.0057 9.11333 35.0323 9.14C35.0857 9.66 35.259 10.1133 35.5523 10.5C35.859 10.8733 36.2123 11.06 36.6123 11.06C37.0123 11.06 37.3723 10.9667 37.6923 10.78C38.0123 10.5933 38.3057 10.3267 38.5723 9.98C39.1323 9.24667 39.6123 8.41333 40.0123 7.48C40.119 7.24 40.199 7.06667 40.2523 6.96C40.319 6.85333 40.3857 6.8 40.4523 6.8C40.5323 6.8 40.5723 6.85333 40.5723 6.96C40.5723 7.62667 40.1657 8.62667 39.3523 9.96C38.4723 11.3867 37.3857 12.1 36.0923 12.1ZM35.0323 8.66C35.819 8.52667 36.3923 8.27333 36.7523 7.9C37.1257 7.52667 37.3123 7.04 37.3123 6.44C37.3123 5.84 37.119 5.54 36.7323 5.54C36.2657 5.54 35.8723 5.86667 35.5523 6.52C35.2323 7.16 35.059 7.87333 35.0323 8.66Z" fill="white"/>
</svg>
