<svg xmlns="http://www.w3.org/2000/svg" fill="none" width="53" height="18" viewBox="0 0 53 18"><path d="M10.795 11.71c.121-.173.294-.477.52-.91.554-.988.884-1.482.988-1.482.121 0 .182.07.182.208 0 .85-.442 1.924-1.326 3.224-1.595 2.34-3.718 3.51-6.37 3.51-.746 0-1.43-.173-2.054-.52-.624-.347-1.118-.789-1.482-1.326C.507 13.322.135 12.178.135 10.982c0-3.016.78-5.443 2.34-7.28C4.052 1.847 5.915.92 8.065.92c.814 0 1.482.243 2.002.728.52.468.78 1.066.78 1.794s-.182 1.404-.546 2.028c-.364.624-.806.936-1.326.936-.503 0-.754-.139-.754-.416 0-.312.164-.667.494-1.066.346-.399.52-.797.52-1.196 0-1.23-.659-1.846-1.976-1.846-1.3 0-2.479.875-3.536 2.626-1.058 1.75-1.586 3.553-1.586 5.408 0 1.283.364 2.427 1.092 3.432.728.988 1.75 1.482 3.068 1.482 1.56 0 3.06-1.04 4.498-3.12Zm8.193-1.352c.693-.225 1.17-.416 1.43-.572l.624-.39.312-.182a.445.445 0 0 1 .208-.078c.138 0 .208.078.208.234 0 .156-.27.433-.806.832-.538.381-1.205.728-2.002 1.04-.122 1.456-.581 2.635-1.378 3.536-.798.901-1.933 1.352-3.406 1.352-1.075 0-1.898-.425-2.47-1.274-.572-.867-.858-1.872-.858-3.016 0-1.161.338-2.253 1.014-3.276.693-1.023 1.577-1.534 2.652-1.534.485-.347 1.057-.52 1.716-.52.676 0 1.3.355 1.872 1.066.572.71.866 1.638.884 2.782Zm-1.69 1.326-.936.052c-.798 0-1.474-.234-2.028-.702-.555-.485-.832-1.014-.832-1.586 0-.572.095-1.066.286-1.482-.746.59-1.118 1.75-1.118 3.484 0 .832.173 1.63.52 2.392.346.745.892 1.118 1.638 1.118.745 0 1.326-.312 1.742-.936.416-.641.658-1.421.728-2.34Zm-1.612-4.316c-.278 0-.494.13-.65.39a1.46 1.46 0 0 0-.234.806c0 .641.216 1.161.65 1.56.45.399.97.598 1.56.598h.312c-.035-.85-.182-1.62-.442-2.314-.243-.693-.642-1.04-1.196-1.04Zm12.772 2.99c.694-.225 1.17-.416 1.43-.572l.624-.39.312-.182a.445.445 0 0 1 .208-.078c.139 0 .208.078.208.234 0 .156-.268.433-.806.832-.537.381-1.204.728-2.002 1.04-.121 1.456-.58 2.635-1.378 3.536-.797.901-1.932 1.352-3.406 1.352-1.074 0-1.898-.425-2.47-1.274-.572-.867-.858-1.872-.858-3.016 0-1.161.338-2.253 1.014-3.276.694-1.023 1.578-1.534 2.652-1.534.486-.347 1.058-.52 1.716-.52.676 0 1.3.355 1.872 1.066.572.71.867 1.638.884 2.782Zm-1.69 1.326-.936.052c-.797 0-1.473-.234-2.028-.702-.554-.485-.832-1.014-.832-1.586 0-.572.096-1.066.286-1.482-.745.59-1.118 1.75-1.118 3.484 0 .832.174 1.63.52 2.392.347.745.893 1.118 1.638 1.118.746 0 1.326-.312 1.742-.936.416-.641.659-1.421.728-2.34Zm-1.612-4.316c-.277 0-.494.13-.65.39a1.46 1.46 0 0 0-.234.806c0 .641.217 1.161.65 1.56.451.399.971.598 1.56.598h.312c-.034-.85-.182-1.62-.442-2.314-.242-.693-.641-1.04-1.196-1.04Zm13.007 9.542.702-.078c.139 0 .208.07.208.208 0 .243-.165.425-.494.546-.33.121-.702.182-1.118.182-.78 0-1.439-.312-1.976-.936-.52-.624-1.248-1.777-2.184-3.458-.225-.364-.338-.641-.338-.832 0-.26.364-.563 1.092-.91 1.179-.607 1.768-1.37 1.768-2.288a.842.842 0 0 0-.286-.65c-.173-.19-.407-.286-.702-.286-.416 0-.91.494-1.482 1.482-.572.97-.962 1.89-1.17 2.756a12.57 12.57 0 0 0-.286 2.756c0 .485-.139.728-.416.728-.399 0-.78-.052-1.144-.156-.364-.121-.546-.269-.546-.442 0-.19.07-1.014.208-2.47.139-1.473.217-2.53.234-3.172.07-3.536.277-6.24.624-8.112.052-.156.286-.425.702-.806.433-.381.78-.572 1.04-.572s.381.33.364.988c0 .641-.139 2.028-.416 4.16a65.595 65.595 0 0 0-.52 5.85c.312-1.11.806-2.158 1.482-3.146.693-.988 1.387-1.482 2.08-1.482 1.179 0 1.768.572 1.768 1.716a3.47 3.47 0 0 1-.676 2.08c-.45.607-1.057 1.1-1.82 1.482-.156.07-.234.147-.234.234 0 .087.026.173.078.26 1.092 1.924 2.02 3.276 2.782 4.056.208.208.433.312.676.312Zm1.502-13.624c0-.312.165-.58.494-.806.33-.225.624-.338.884-.338.468 0 .702.269.702.806s-.139 1.005-.416 1.404c-.277.381-.667.572-1.17.572-.33 0-.494-.546-.494-1.638Zm.754 12.844c-.676 0-1.187-.139-1.534-.416-.121-.121-.182-.555-.182-1.3s.052-1.985.156-3.718c.121-1.75.225-2.695.312-2.834.087-.139.355-.399.806-.78.45-.381.798-.572 1.04-.572.26 0 .39.33.39.988 0 .173-.052.511-.156 1.014-.087.503-.19.867-.312 1.092-.225.572-.338 2.071-.338 4.498 0 .468.052.702.156.702.295-.017.702-.381 1.222-1.092.52-.728 1.032-1.655 1.534-2.782.52-1.127.832-1.69.936-1.69.122 0 .182.07.182.208 0 .485-.251 1.257-.754 2.314-1.37 2.912-2.522 4.368-3.458 4.368Zm6.001 0c-.97 0-1.742-.364-2.314-1.092a4.036 4.036 0 0 1-.858-2.522c0-1.89.399-3.32 1.196-4.29.797-.97 1.829-1.456 3.094-1.456.59 0 1.075.165 1.456.494.381.312.572.745.572 1.3 0 1.04-.442 1.915-1.326 2.626-.867.693-1.933 1.057-3.198 1.092.07.676.295 1.265.676 1.768.399.485.858.728 1.378.728.52 0 .988-.121 1.404-.364.416-.243.797-.59 1.144-1.04a15.174 15.174 0 0 0 1.872-3.25c.139-.312.243-.537.312-.676.087-.139.173-.208.26-.208.104 0 .156.07.156.208 0 .867-.529 2.167-1.586 3.9-1.144 1.855-2.557 2.782-4.238 2.782Zm-1.378-4.472c1.023-.173 1.768-.503 2.236-.988.485-.485.728-1.118.728-1.898 0-.78-.251-1.17-.754-1.17-.607 0-1.118.425-1.534 1.274-.416.832-.641 1.76-.676 2.782Z" fill="#CBCBCB"/></svg>