<svg xmlns="http://www.w3.org/2000/svg" fill="none" width="66" height="23" viewBox="0 0 66 23"><path d="M4.95 19.88c.387 0 .794-.433 1.22-1.3.44-.853.82-1.9 1.14-3.14-1.64 2.267-2.46 3.687-2.46 4.26 0 .093.034.153.1.18Zm2.2-8.78c0 1.36.134 2.48.4 3.36.307-1.373.46-2.487.46-3.34 0-.867-.153-1.3-.46-1.3-.266 0-.4.427-.4 1.28Zm-5.78 6.68.28-.16c.04 0 .06.02.06.06 0 .107-.166.28-.5.52-.333.24-.593.36-.78.36-.186 0-.28-.093-.28-.28 0-.707.967-2.367 2.9-4.98 1.947-2.613 3.587-4.64 4.92-6.08l.04-.08c0-.027-.02-.04-.06-.04-.52.347-1.606.887-3.26 1.62-1.653.72-2.84 1.08-3.56 1.08-.4 0-.6-.133-.6-.4 0-.08.054-.187.16-.32.12-.147.2-.22.24-.22.054 0 .127.047.22.14.094.08.38.12.86.12.494 0 1.32-.213 2.48-.64 1.16-.44 2.367-1.02 3.62-1.74a6.62 6.62 0 0 0 1.06-.76c.28-.253.6-.573.96-.96a78.3 78.3 0 0 1 .72-.74c.12-.12.334-.347.64-.68.32-.347.574-.613.76-.8.52-.493.947-.74 1.28-.74.107 0 .16.047.16.14 0 .533-.86 1.427-2.58 2.68-.653.493-1.033.8-1.14.92-1.506 1.653-3.32 3.887-5.44 6.7-2.12 2.8-3.186 4.54-3.2 5.22 0 .04.014.06.04.06ZM11.57 15l-1.44.88c-.506.32-.96.48-1.36.48-.386 0-.733-.14-1.04-.42-.373 1.187-.826 2.18-1.36 2.98-.52.8-1.033 1.2-1.54 1.2-.173 0-.26-.08-.26-.24 0-.84.867-2.46 2.6-4.86-.346-.84-.52-2.027-.52-3.56 0-.52.08-.953.24-1.3.16-.347.38-.52.66-.52.64 0 .96.667.96 2 0 .56-.06 1.16-.18 1.8 1.854-2.413 3.967-4.927 6.34-7.54 2.374-2.613 3.96-4.213 4.76-4.8.187-.12.414-.18.68-.18.267 0 .4.047.4.14a.249.249 0 0 1-.08.18 8.567 8.567 0 0 1-.32.3c-.146.133-.273.253-.38.36-4.666 4.667-8.44 8.713-11.32 12.14l-.24.3c-.013.04-.046.187-.1.44-.053.24-.1.42-.14.54.28.48.64.72 1.08.72.254 0 .5-.067.74-.2.4-.227.874-.52 1.42-.88a.595.595 0 0 1 .3-.08c.107 0 .16.013.16.04 0 .027-.02.053-.06.08Zm2.898-2.14c0-.04-.027-.06-.08-.06-.36 0-.92.313-1.68.94a12.01 12.01 0 0 0-1.98 2.06c.666-.213 1.453-.693 2.36-1.44.92-.747 1.38-1.247 1.38-1.5Zm-4.62 4.72c0 .173.066.26.2.26.16 0 .52-.107 1.08-.32.56-.227 1.02-.447 1.38-.66l1.96-1.24.02.26c-1.4.933-2.447 1.527-3.14 1.78-.68.253-1.134.38-1.36.38-.374 0-.56-.233-.56-.7 0-.627.226-1.253.68-1.88.453-.627.98-1.14 1.58-1.54.613-.4 1.2-.727 1.76-.98.573-.253 1.006-.38 1.3-.38.293 0 .44.1.44.3 0 .493-.587 1.093-1.76 1.8-1.16.707-2.127 1.173-2.9 1.4-.454.653-.68 1.16-.68 1.52Zm10.695-2.56.16.18a55.37 55.37 0 0 0-1.5.94c-.386.253-.68.38-.88.38-.293 0-.44-.127-.44-.38 0-.187.1-.553.3-1.1.213-.56.36-.953.44-1.18l-.06-.06c-.053 0-.113.027-.18.08-1.346 1.08-2.22 1.807-2.62 2.18-.386.373-.767.773-1.14 1.2-.36.427-.56.66-.6.7a.6.6 0 0 1-.06.08c-.04.04-.173.06-.4.06-.24 0-.36-.02-.36-.06.027-.04.194-.227.5-.56a47.124 47.124 0 0 0 2.02-2.34l-.58.34a42.62 42.62 0 0 0-1.34.84l-.08-.22 1.26-.8c.454-.293.84-.6 1.16-.92.334-.32.56-.58.68-.78.12-.2.227-.367.32-.5s.18-.2.26-.2c.08 0 .207.047.38.14 0 .133-.107.367-.32.7-.213.333-.427.633-.64.9l-.32.38c0 .027.007.04.02.04.04 0 .087-.02.14-.06.053-.053.273-.24.66-.56.4-.333.747-.613 1.04-.84.294-.24.627-.467 1-.68.387-.213.667-.32.84-.32.174 0 .26.04.26.12 0 .107-.326.333-.98.68-.146.08-.373.467-.68 1.16-.293.68-.44 1.18-.44 1.5 0 .067.06.1.18.1.134 0 .387-.12.76-.36l1.24-.78Zm4.918-5.1c-.573.813-1.5 1.673-2.78 2.58-1.267.907-2.32 1.36-3.16 1.36-.227 0-.393-.06-.5-.18-.094-.133-.14-.347-.14-.64 0-.733.287-1.653.86-2.76A18.456 18.456 0 0 1 21.96 7a12.847 12.847 0 0 1 3.22-2.74c1.267-.773 2.493-1.16 3.68-1.16.813 0 1.22.5 1.22 1.5 0 .667-.347 1.673-1.04 3.02a37.604 37.604 0 0 1-2.3 3.88l-2.3 3.36c-.694 1-1.04 1.527-1.04 1.58.32-.373 1.08-1.167 2.28-2.38a155.238 155.238 0 0 1 3.22-3.14c.947-.88 2.047-1.853 3.3-2.92a53.499 53.499 0 0 1 3.52-2.78 21.393 21.393 0 0 1 3.26-1.94c1.093-.533 2.013-.8 2.76-.8.253 0 .38.053.38.16 0 .133-.373.44-1.12.92-.733.467-1.127.7-1.18.7-.053 0-.08-.02-.08-.06 0-.04.047-.113.14-.22.106-.107.16-.173.16-.2 0-.027-.02-.04-.06-.04-.814 0-2.34.787-4.58 2.36s-4.674 3.56-7.3 5.96c-2.613 2.4-4.807 4.673-6.58 6.82-.28.347-.727.52-1.34.52-.107 0-.16-.02-.16-.06 0-.04.08-.133.24-.28.16-.147.607-.7 1.34-1.66.733-.96 1.207-1.613 1.42-1.96.226-.36.746-1.133 1.56-2.32A126.439 126.439 0 0 0 26.66 10a33.69 33.69 0 0 0 1.8-3.14c.627-1.2 1.007-2.173 1.14-2.92-.027-.453-.287-.68-.78-.68-.72 0-1.647.367-2.78 1.1a20.106 20.106 0 0 0-3.2 2.62 18.852 18.852 0 0 0-2.62 3.26c-.733 1.147-1.1 2.093-1.1 2.84 0 .387.167.58.5.58.787 0 1.693-.373 2.72-1.12 1.04-.76 2.026-1.687 2.96-2.78.067-.08.127-.12.18-.12.053 0 .08.027.08.08 0 .053-.034.12-.1.2Zm6.324 3.58v-.02c-.266.133-.56.453-.88.96-.32.493-.506.92-.56 1.28.96-.987 1.44-1.727 1.44-2.22Zm-4.26 4.18c.507 0 1.327-.533 2.46-1.6v-.1c0-.413.2-.92.6-1.52.414-.613.787-1.007 1.12-1.18a.216.216 0 0 0-.16-.06c-.493 0-1.313.567-2.46 1.7-1.133 1.133-1.7 2.013-1.7 2.64 0 .08.047.12.14.12Zm-.62-.28c0-1 .574-1.993 1.72-2.98 1.16-1 2.12-1.5 2.88-1.5.374 0 .56.167.56.5 0 .947-.506 1.893-1.52 2.84.08.027.16.04.24.04.374 0 .914-.233 1.62-.7l.1.2c-.853.573-1.5.86-1.94.86-.173 0-.3-.033-.38-.1a7.71 7.71 0 0 1-1.64 1.04c-.573.267-.993.4-1.26.4-.253 0-.38-.2-.38-.6Zm5.248-1.36-.06-.24.66-.42c1-.667 1.627-1.133 1.88-1.4.253-.28.407-.453.46-.52.347-.44.54-.687.58-.74.16.053.24.213.24.48-.267.387-.627.853-1.08 1.4-.453.533-.827.98-1.12 1.34-.293.347-.44.547-.44.6 0 .053.007.08.02.08.027 0 .127-.067.3-.2.187-.147.68-.5 1.48-1.06 1.613-1.12 2.64-1.827 3.08-2.12.44-.307.72-.46.84-.46.133 0 .2.133.2.4 0 .253-.2.64-.6 1.16-.4.52-.84 1-1.32 1.44-1.28 1.173-1.92 1.82-1.92 1.94 0 .013.027.02.08.02.16 0 1.06-.527 2.7-1.58l.82-.54.02.26c-2.147 1.427-3.453 2.14-3.92 2.14-.08 0-.12-.04-.12-.12 0-.493.307-1.073.92-1.74a23.635 23.635 0 0 1 1.86-1.82c.613-.547.92-.907.92-1.08 0-.027-.013-.04-.04-.04-.387.187-1.287.78-2.7 1.78-1.4.987-2.22 1.567-2.46 1.74-.627.467-.96.713-1 .74a1.23 1.23 0 0 0-.2.2c-.24.253-.46.38-.66.38-.32-.027-.487-.047-.5-.06-.013-.013-.02-.027-.02-.04 0-.013.113-.14.34-.38l.64-.68a45.444 45.444 0 0 0 1.46-1.68l-1.34.82ZM43.21 17.9c-.307 0-.487-.08-.54-.24 0-.173.573-.947 1.72-2.32a432.623 432.623 0 0 1 3.78-4.46 62.604 62.604 0 0 0 3.78-4.9c1.147-1.667 1.72-2.84 1.72-3.52 0-.427-.22-.64-.66-.64-.72 0-1.48.193-2.28.58-.8.373-1.553.867-2.26 1.48a20.59 20.59 0 0 0-2.02 2.02 16.847 16.847 0 0 0-1.66 2.22c-1.027 1.6-1.54 2.767-1.54 3.5 0 .387.16.58.48.58.44 0 1.153-.373 2.14-1.12a26.88 26.88 0 0 0 2.62-2.24l1.14-1.1c.027-.027.067-.04.12-.04.067 0 .1.02.1.06l-.04.08-.5.5c-.2.213-.587.587-1.16 1.12a40.36 40.36 0 0 1-1.62 1.4c-.493.4-1.027.767-1.6 1.1-.573.333-1.027.5-1.36.5-.48 0-.72-.287-.72-.86 0-.587.167-1.293.5-2.12.347-.84.84-1.713 1.48-2.62.653-.907 1.38-1.76 2.18-2.56.813-.8 1.747-1.46 2.8-1.98 1.053-.52 2.1-.78 3.14-.78.267 0 .527.1.78.3.253.187.38.48.38.88 0 .387-.147.9-.44 1.54-.28.64-.707 1.387-1.28 2.24-.573.853-1.107 1.627-1.6 2.32-.48.68-1.127 1.513-1.94 2.5-.8.987-1.36 1.673-1.68 2.06-.32.373-.793.933-1.42 1.68.013.013.073-.02.18-.1 5.68-5.147 8.887-8.047 9.62-8.7.733-.653 1.127-1.013 1.18-1.08l.14-.14a.543.543 0 0 1 .4-.16c.173 0 .26.08.26.24 0 .4-.587 1.413-1.76 3.04-1.16 1.627-2.32 3.18-3.48 4.66-1.16 1.48-1.74 2.247-1.74 2.3l.02.02c.813-.707 2.48-2.233 5-4.58 2.533-2.36 4.74-4.393 6.62-6.1 1.893-1.707 2.947-2.56 3.16-2.56.147 0 .22.093.22.28 0 .36-.307 1-.92 1.92-.6.92-1.68 2.367-3.24 4.34l-3.24 3.88c-4.613 5.507-6.92 8.687-6.92 9.54 0 .053.04.08.12.08.093 0 .427-.153 1-.46.587-.293.993-.54 1.22-.74.227-.2.36-.3.4-.3.04 0 .06.027.06.08 0 .067-.013.113-.04.14-.147.187-.6.493-1.36.92-.747.427-1.22.64-1.42.64-.2 0-.3-.087-.3-.26 0-.84.713-2.32 2.14-4.44 2.24-3.347 4.953-6.78 8.14-10.3.4-.453 1.14-1.347 2.22-2.68 1.08-1.333 1.62-2.053 1.62-2.16 0-.027-.007-.04-.02-.04-.08 0-2.547 2.227-7.4 6.68-4.84 4.453-7.973 7.36-9.4 8.72-.16.16-.313.24-.46.24-.387 0-.58-.047-.58-.14 0-.093.093-.253.28-.48a461.62 461.62 0 0 1 3-3.68c4.267-5.213 6.4-7.947 6.4-8.2l-.02-.02c-.12.053-1.867 1.613-5.24 4.68-4.933 4.453-7.733 7.04-8.4 7.76Z" fill="#E6E6E6"/></svg>