<svg xmlns="http://www.w3.org/2000/svg" fill="none" width="393" height="138" viewBox="0 0 393 138"><path d="M366.996 90.469 358.773 110h-3.105l-8.203-19.531h3.457l6.328 16.172 6.348-16.172h3.398ZM389.828 110H372.23v-2.168c2.409-2.057 4.46-3.939 6.153-5.644 1.706-1.706 3.092-3.288 4.16-4.747 1.068-1.458 1.849-2.832 2.344-4.12.508-1.29.761-2.54.761-3.75 0-1.264-.24-2.377-.722-3.34-.482-.977-1.153-1.732-2.012-2.266-.859-.547-1.855-.82-2.988-.82-1.289 0-2.52.37-3.692 1.113-1.158.729-2.109 1.738-2.851 3.027l-1.895-2.129c1.003-1.588 2.298-2.825 3.887-3.71a10.344 10.344 0 0 1 5.117-1.329c1.693 0 3.19.378 4.492 1.133a8.027 8.027 0 0 1 3.067 3.086c.742 1.315 1.113 2.832 1.113 4.55 0 1.394-.26 2.833-.781 4.317-.521 1.471-1.296 2.975-2.324 4.512-1.029 1.523-2.305 3.06-3.829 4.609-1.51 1.55-3.255 3.099-5.234 4.649h12.832V110Z" fill="#1C6048" fill-opacity=".88"/><path d="M58.264 110H8.401V28.701h9.539v72.844h40.324V110Zm46.069 1.626c-6.106 0-11.743-1.048-16.91-3.144-5.13-2.095-9.593-5.04-13.387-8.834-3.794-3.83-6.739-8.31-8.834-13.441-2.096-5.167-3.144-10.786-3.144-16.856 0-6.107 1.048-11.725 3.144-16.856 2.095-5.167 5.04-9.648 8.834-13.442 3.794-3.794 8.257-6.738 13.387-8.834 5.167-2.096 10.804-3.144 16.91-3.144 6.107 0 11.726 1.048 16.856 3.144 5.131 2.096 9.594 5.04 13.388 8.834 3.794 3.794 6.738 8.275 8.834 13.442 2.096 5.13 3.144 10.75 3.144 16.856 0 6.07-1.048 11.689-3.144 16.856-2.096 5.13-5.04 9.61-8.834 13.44-3.794 3.795-8.257 6.74-13.388 8.835-5.13 2.096-10.749 3.144-16.856 3.144Zm0-8.455c4.662 0 8.961-.849 12.9-2.547 3.975-1.699 7.425-4.065 10.352-7.1 2.927-3.072 5.185-6.649 6.775-10.732 1.626-4.12 2.439-8.6 2.439-13.441 0-4.842-.813-9.323-2.439-13.442-1.59-4.119-3.848-7.696-6.775-10.731-2.927-3.072-6.377-5.438-10.352-7.1-3.939-1.699-8.238-2.548-12.9-2.548-4.66 0-8.978.85-12.953 2.548a30.394 30.394 0 0 0-10.298 7.1c-2.927 3.035-5.203 6.612-6.83 10.731-1.625 4.12-2.438 8.6-2.438 13.442 0 4.841.813 9.322 2.439 13.441 1.626 4.12 3.902 7.714 6.829 10.786 2.927 3.035 6.36 5.401 10.298 7.1 3.975 1.662 8.292 2.493 12.953 2.493Zm116.854-58.59c-2.999-2.926-6.522-5.166-10.569-6.72-4.047-1.554-8.328-2.33-12.845-2.33-4.697 0-9.015.83-12.954 2.492-3.938 1.626-7.353 3.957-10.243 6.992-2.855 3-5.077 6.558-6.667 10.677-1.554 4.12-2.33 8.654-2.33 13.604 0 4.914.776 9.45 2.33 13.604 1.554 4.12 3.74 7.697 6.558 10.732 2.819 3.035 6.161 5.384 10.027 7.046 3.866 1.662 8.112 2.493 12.737 2.493 4.264 0 8.184-.705 11.761-2.114 3.613-1.445 6.775-3.469 9.485-6.07 2.746-2.638 4.95-5.763 6.612-9.377 1.699-3.65 2.746-7.66 3.144-12.032h-29.81v-7.534h38.265l.271 3.523c0 6.18-.976 11.834-2.927 16.965-1.915 5.13-4.643 9.575-8.184 13.333-3.541 3.758-7.732 6.666-12.574 8.726-4.842 2.023-10.171 3.035-15.989 3.035-5.962 0-11.472-1.048-16.531-3.144-5.022-2.131-9.412-5.094-13.17-8.888-3.722-3.794-6.612-8.238-8.672-13.333-2.059-5.131-3.089-10.714-3.089-16.748 0-6.07 1.048-11.689 3.143-16.856 2.096-5.167 5.023-9.665 8.781-13.495 3.757-3.83 8.184-6.793 13.278-8.89 5.095-2.13 10.642-3.197 16.64-3.197 5.672 0 11.056.976 16.151 2.927 5.131 1.951 9.684 4.751 13.658 8.4l-6.287 6.18Zm67.315 67.045c-6.106 0-11.743-1.048-16.91-3.144-5.131-2.095-9.593-5.04-13.387-8.834-3.794-3.83-6.739-8.31-8.834-13.441-2.096-5.167-3.144-10.786-3.144-16.856 0-6.107 1.048-11.725 3.144-16.856 2.095-5.167 5.04-9.648 8.834-13.442 3.794-3.794 8.256-6.738 13.387-8.834 5.167-2.096 10.804-3.144 16.91-3.144 6.107 0 11.726 1.048 16.856 3.144 5.131 2.096 9.594 5.04 13.388 8.834 3.794 3.794 6.738 8.275 8.834 13.442 2.096 5.13 3.144 10.75 3.144 16.856 0 6.07-1.048 11.689-3.144 16.856-2.096 5.13-5.04 9.61-8.834 13.44-3.794 3.795-8.257 6.74-13.388 8.835-5.13 2.096-10.749 3.144-16.856 3.144Zm0-8.455c4.662 0 8.961-.849 12.9-2.547 3.974-1.699 7.425-4.065 10.352-7.1 2.927-3.072 5.185-6.649 6.775-10.732 1.626-4.12 2.439-8.6 2.439-13.441 0-4.842-.813-9.323-2.439-13.442-1.59-4.119-3.848-7.696-6.775-10.731-2.927-3.072-6.378-5.438-10.352-7.1-3.939-1.699-8.238-2.548-12.9-2.548-4.661 0-8.979.85-12.953 2.548a30.391 30.391 0 0 0-10.298 7.1c-2.927 3.035-5.203 6.612-6.829 10.731-1.626 4.12-2.439 8.6-2.439 13.442 0 4.841.813 9.322 2.439 13.441 1.626 4.12 3.902 7.714 6.829 10.786 2.927 3.035 6.359 5.401 10.298 7.1 3.974 1.662 8.292 2.493 12.953 2.493Z" fill="url(#a)"/><defs><linearGradient id="a" x1="168" x2="168" y1="0" y2="138" gradientUnits="userSpaceOnUse"><stop offset=".115" stop-color="#D7DBDA"/><stop offset="1" stop-color="#0B4732" stop-opacity=".6"/></linearGradient></defs></svg>