<svg width="323" height="85" viewBox="0 0 323 85" fill="none" xmlns="http://www.w3.org/2000/svg">
<path d="M50.2642 83H0.400879V1.70117H9.93994V74.5449H50.2642V83ZM96.3335 84.626C90.2271 84.626 84.5903 83.5781 79.4233 81.4824C74.2925 79.3867 69.8301 76.4419 66.0361 72.6479C62.2422 68.8179 59.2974 64.3374 57.2017 59.2065C55.106 54.0396 54.0581 48.4209 54.0581 42.3506C54.0581 36.2441 55.106 30.6255 57.2017 25.4946C59.2974 20.3276 62.2422 15.8472 66.0361 12.0532C69.8301 8.25928 74.2925 5.31445 79.4233 3.21875C84.5903 1.12305 90.2271 0.0751953 96.3335 0.0751953C102.44 0.0751953 108.059 1.12305 113.189 3.21875C118.32 5.31445 122.783 8.25928 126.577 12.0532C130.371 15.8472 133.315 20.3276 135.411 25.4946C137.507 30.6255 138.555 36.2441 138.555 42.3506C138.555 48.4209 137.507 54.0396 135.411 59.2065C133.315 64.3374 130.371 68.8179 126.577 72.6479C122.783 76.4419 118.32 79.3867 113.189 81.4824C108.059 83.5781 102.44 84.626 96.3335 84.626ZM96.3335 76.1709C100.995 76.1709 105.294 75.3218 109.233 73.6235C113.208 71.9253 116.658 69.5586 119.585 66.5234C122.512 63.4521 124.77 59.875 126.36 55.792C127.986 51.6729 128.799 47.1924 128.799 42.3506C128.799 37.5088 127.986 33.0283 126.36 28.9092C124.77 24.79 122.512 21.2129 119.585 18.1777C116.658 15.1064 113.208 12.7397 109.233 11.0776C105.294 9.37939 100.995 8.53027 96.3335 8.53027C91.6724 8.53027 87.3545 9.37939 83.3799 11.0776C79.4414 12.7397 76.0088 15.1064 73.082 18.1777C70.1553 21.2129 67.8789 24.79 66.2529 28.9092C64.627 33.0283 63.814 37.5088 63.814 42.3506C63.814 47.1924 64.627 51.6729 66.2529 55.792C67.8789 59.9111 70.1553 63.5063 73.082 66.5776C76.0088 69.6128 79.4414 71.9795 83.3799 73.6777C87.3545 75.3398 91.6724 76.1709 96.3335 76.1709ZM213.187 17.5815C210.188 14.6548 206.665 12.4146 202.618 10.8608C198.571 9.30713 194.29 8.53027 189.773 8.53027C185.076 8.53027 180.758 9.36133 176.819 11.0234C172.881 12.6494 169.466 14.98 166.576 18.0151C163.721 21.0142 161.499 24.5732 159.909 28.6924C158.355 32.8115 157.579 37.3462 157.579 42.2964C157.579 47.2104 158.355 51.7451 159.909 55.9004C161.463 60.0195 163.649 63.5967 166.467 66.6318C169.286 69.667 172.628 72.0156 176.494 73.6777C180.36 75.3398 184.606 76.1709 189.231 76.1709C193.495 76.1709 197.415 75.4663 200.992 74.0571C204.605 72.6118 207.767 70.5884 210.477 67.9868C213.223 65.3491 215.427 62.2236 217.089 58.6104C218.788 54.9609 219.835 50.9502 220.233 46.5781H190.423V39.0444H228.688L228.959 42.5674C228.959 48.7461 227.983 54.4009 226.032 59.5317C224.117 64.6626 221.389 69.1069 217.848 72.8647C214.307 76.6226 210.116 79.5312 205.274 81.5908C200.432 83.6143 195.103 84.626 189.285 84.626C183.323 84.626 177.813 83.5781 172.754 81.4824C167.732 79.3506 163.342 76.3877 159.584 72.5938C155.862 68.7998 152.972 64.3555 150.912 59.2607C148.853 54.1299 147.823 48.5474 147.823 42.5132C147.823 36.4429 148.871 30.8242 150.966 25.6572C153.062 20.4902 155.989 15.9917 159.747 12.1616C163.504 8.33154 167.931 5.36865 173.025 3.27295C178.12 1.14111 183.667 0.0751953 189.665 0.0751953C195.337 0.0751953 200.721 1.05078 205.816 3.00195C210.947 4.95312 215.5 7.75342 219.474 11.4028L213.187 17.5815ZM280.502 84.626C274.396 84.626 268.759 83.5781 263.592 81.4824C258.461 79.3867 253.999 76.4419 250.205 72.6479C246.411 68.8179 243.466 64.3374 241.371 59.2065C239.275 54.0396 238.227 48.4209 238.227 42.3506C238.227 36.2441 239.275 30.6255 241.371 25.4946C243.466 20.3276 246.411 15.8472 250.205 12.0532C253.999 8.25928 258.461 5.31445 263.592 3.21875C268.759 1.12305 274.396 0.0751953 280.502 0.0751953C286.609 0.0751953 292.228 1.12305 297.358 3.21875C302.489 5.31445 306.952 8.25928 310.746 12.0532C314.54 15.8472 317.484 20.3276 319.58 25.4946C321.676 30.6255 322.724 36.2441 322.724 42.3506C322.724 48.4209 321.676 54.0396 319.58 59.2065C317.484 64.3374 314.54 68.8179 310.746 72.6479C306.952 76.4419 302.489 79.3867 297.358 81.4824C292.228 83.5781 286.609 84.626 280.502 84.626ZM280.502 76.1709C285.164 76.1709 289.463 75.3218 293.402 73.6235C297.376 71.9253 300.827 69.5586 303.754 66.5234C306.681 63.4521 308.939 59.875 310.529 55.792C312.155 51.6729 312.968 47.1924 312.968 42.3506C312.968 37.5088 312.155 33.0283 310.529 28.9092C308.939 24.79 306.681 21.2129 303.754 18.1777C300.827 15.1064 297.376 12.7397 293.402 11.0776C289.463 9.37939 285.164 8.53027 280.502 8.53027C275.841 8.53027 271.523 9.37939 267.549 11.0776C263.61 12.7397 260.178 15.1064 257.251 18.1777C254.324 21.2129 252.048 24.79 250.422 28.9092C248.796 33.0283 247.983 37.5088 247.983 42.3506C247.983 47.1924 248.796 51.6729 250.422 55.792C252.048 59.9111 254.324 63.5063 257.251 66.5776C260.178 69.6128 263.61 71.9795 267.549 73.6777C271.523 75.3398 275.841 76.1709 280.502 76.1709Z" fill="url(#paint0_linear_10_21)"/>
<defs>
<linearGradient id="paint0_linear_10_21" x1="160" y1="-27" x2="160" y2="111" gradientUnits="userSpaceOnUse">
<stop stop-color="white"/>
<stop offset="1" stop-color="#280940" stop-opacity="0.6"/>
</linearGradient>
</defs>
</svg>
