<svg width="10" height="2" viewBox="0 0 10 2" fill="none" xmlns="http://www.w3.org/2000/svg">
<path d="M0.842141 2C0.798141 2 0.757474 1.98933 0.720141 1.968C0.684141 1.94667 0.655474 1.918 0.634141 1.882C0.612807 1.84467 0.602141 1.804 0.602141 1.76V0.8C0.602141 0.756 0.612807 0.716 0.634141 0.68C0.655474 0.642667 0.684141 0.613333 0.720141 0.592C0.757474 0.570667 0.798141 0.56 0.842141 0.56H1.80214C1.84614 0.56 1.88614 0.570667 1.92214 0.592C1.95947 0.613333 1.98881 0.642667 2.01014 0.68C2.03147 0.716 2.04214 0.756 2.04214 0.8V1.76C2.04214 1.804 2.03147 1.84467 2.01014 1.882C1.98881 1.918 1.95947 1.94667 1.92214 1.968C1.88614 1.98933 1.84614 2 1.80214 2H0.842141ZM0.842141 1.838H1.80214C1.82347 1.838 1.84147 1.83067 1.85614 1.816C1.87214 1.8 1.88014 1.78133 1.88014 1.76V0.8C1.88014 0.778667 1.87214 0.760667 1.85614 0.746C1.84147 0.73 1.82347 0.722 1.80214 0.722H0.842141C0.820807 0.722 0.802141 0.73 0.786141 0.746C0.771474 0.760667 0.764141 0.778667 0.764141 0.8V1.76C0.764141 1.78133 0.771474 1.8 0.786141 1.816C0.802141 1.83067 0.820807 1.838 0.842141 1.838ZM2.25439 2V1.082C2.25439 1.038 2.26506 0.998 2.28639 0.962C2.30906 0.924667 2.33839 0.895333 2.37439 0.874C2.41172 0.851333 2.45239 0.84 2.49639 0.84H3.14839V1.004H2.49639C2.47506 1.004 2.45639 1.012 2.44039 1.028C2.42572 1.04267 2.41839 1.06067 2.41839 1.082V2H2.25439ZM3.28183 2V0.46H3.44583V0.84H4.22183C4.26583 0.84 4.30583 0.851333 4.34183 0.874C4.37916 0.895333 4.40849 0.924667 4.42983 0.962C4.45249 0.998 4.46383 1.038 4.46383 1.082V1.758C4.46383 1.802 4.45249 1.84267 4.42983 1.88C4.40849 1.916 4.37916 1.94533 4.34183 1.968C4.30583 1.98933 4.26583 2 4.22183 2H3.28183ZM3.52583 1.836H4.22183C4.24316 1.836 4.26116 1.82867 4.27583 1.814C4.29183 1.798 4.29983 1.77933 4.29983 1.758V1.082C4.29983 1.06067 4.29183 1.04267 4.27583 1.028C4.26116 1.012 4.24316 1.004 4.22183 1.004H3.52583C3.50449 1.004 3.48583 1.012 3.46983 1.028C3.45383 1.04267 3.44583 1.06067 3.44583 1.082V1.758C3.44583 1.77933 3.45383 1.798 3.46983 1.814C3.48583 1.82867 3.50449 1.836 3.52583 1.836ZM4.61181 2V0.84H4.77581V2H4.61181ZM4.61181 0.624V0.46H4.77581V0.624H4.61181ZM5.27183 2C5.22649 2 5.18516 1.98933 5.14783 1.968C5.11183 1.94533 5.08316 1.916 5.06183 1.88C5.04049 1.84267 5.02983 1.802 5.02983 1.758V0.46H5.19383V0.84H5.69583V1.004H5.19383V1.758C5.19383 1.77933 5.20116 1.798 5.21583 1.814C5.23183 1.82867 5.25049 1.836 5.27183 1.836H5.69583V2H5.27183ZM5.84814 2V1.082C5.84814 1.038 5.85881 0.998 5.88014 0.962C5.90281 0.924667 5.93214 0.895333 5.96814 0.874C6.00547 0.851333 6.04614 0.84 6.09014 0.84H6.74214V1.004H6.09014C6.06881 1.004 6.05014 1.012 6.03414 1.028C6.01947 1.04267 6.01214 1.06067 6.01214 1.082V2H5.84814ZM7.10181 2C7.05781 2 7.01715 1.98933 6.97981 1.968C6.94381 1.94533 6.91448 1.916 6.89181 1.88C6.87048 1.84267 6.85981 1.802 6.85981 1.758V1.082C6.85981 1.038 6.87048 0.998 6.89181 0.962C6.91448 0.924667 6.94381 0.895333 6.97981 0.874C7.01715 0.851333 7.05781 0.84 7.10181 0.84H7.79781C7.84315 0.84 7.88381 0.851333 7.91981 0.874C7.95715 0.895333 7.98648 0.924667 8.00781 0.962C8.03048 0.998 8.04181 1.038 8.04181 1.082V1.758C8.04181 1.802 8.03048 1.84267 8.00781 1.88C7.98648 1.916 7.95715 1.94533 7.91981 1.968C7.88381 1.98933 7.84315 2 7.79781 2H7.10181ZM7.10181 1.836H7.79781C7.81915 1.836 7.83715 1.82867 7.85181 1.814C7.86781 1.798 7.87581 1.77933 7.87581 1.758V1.082C7.87581 1.06067 7.86781 1.04267 7.85181 1.028C7.83715 1.012 7.81915 1.004 7.79781 1.004H7.10181C7.08048 1.004 7.06181 1.012 7.04581 1.028C7.03115 1.04267 7.02381 1.06067 7.02381 1.082V1.758C7.02381 1.77933 7.03115 1.798 7.04581 1.814C7.06181 1.82867 7.08048 1.836 7.10181 1.836ZM8.22128 2V0.84H9.16128C9.20528 0.84 9.24528 0.851333 9.28128 0.874C9.31861 0.895333 9.34795 0.924667 9.36928 0.962C9.39195 0.998 9.40328 1.038 9.40328 1.082V2H9.23928V1.082C9.23928 1.06067 9.23128 1.04267 9.21528 1.028C9.20061 1.012 9.18261 1.004 9.16128 1.004H8.46528C8.44395 1.004 8.42528 1.012 8.40928 1.028C8.39328 1.04267 8.38528 1.06067 8.38528 1.082V2H8.22128Z" fill="white"/>
</svg>
