<svg xmlns="http://www.w3.org/2000/svg" fill="none" width="72" height="13" viewBox="0 0 72 13"><path d="M2.737 13c-.352 0-.677-.085-.976-.256a1.93 1.93 0 0 1-.688-.688 1.933 1.933 0 0 1-.256-.976V3.4c0-.352.085-.672.256-.96.17-.299.4-.533.688-.704.299-.17.624-.256.976-.256h7.68c.352 0 .672.085.96.256.299.17.534.405.704.704.17.288.256.608.256.96v7.68c0 .352-.085.677-.256.976a1.89 1.89 0 0 1-.704.688c-.288.17-.608.256-.96.256h-7.68Zm0-1.296h7.68a.59.59 0 0 0 .432-.176.614.614 0 0 0 .192-.448V3.4a.563.563 0 0 0-.192-.432.563.563 0 0 0-.432-.192h-7.68c-.17 0-.32.064-.448.192a.587.587 0 0 0-.176.432v7.68c0 .17.059.32.176.448a.642.642 0 0 0 .448.176ZM14.035 13V5.656c0-.352.085-.672.256-.96a2.02 2.02 0 0 1 .704-.704 1.85 1.85 0 0 1 .976-.272h5.216v1.312h-5.216c-.17 0-.32.064-.448.192a.587.587 0 0 0-.176.432V13h-1.312Zm8.22 0V.68h1.312v3.04h6.208c.352 0 .672.09.96.272.298.17.533.405.704.704.181.288.272.608.272.96v5.408c0 .352-.091.677-.272.976a2.028 2.028 0 0 1-.704.704c-.288.17-.608.256-.96.256h-7.52Zm1.952-1.312h5.568a.59.59 0 0 0 .432-.176.614.614 0 0 0 .192-.448V5.656a.563.563 0 0 0-.192-.432.563.563 0 0 0-.432-.192h-5.568a.613.613 0 0 0-.448.192.563.563 0 0 0-.192.432v5.408c0 .17.064.32.192.448a.642.642 0 0 0 .448.176ZM32.895 13V3.72h1.311V13h-1.312Zm0-11.008V.68h1.311v1.312h-1.312ZM38.175 13c-.363 0-.694-.085-.992-.256a2.068 2.068 0 0 1-.688-.704 1.934 1.934 0 0 1-.256-.976V.68h1.312v3.04h4.016v1.312H37.55v6.032c0 .17.058.32.176.448a.642.642 0 0 0 .448.176h3.392V13h-3.392Zm4.61 0V5.656c0-.352.086-.672.256-.96a2.02 2.02 0 0 1 .704-.704 1.85 1.85 0 0 1 .976-.272h5.216v1.312h-5.216c-.17 0-.32.064-.448.192a.587.587 0 0 0-.176.432V13h-1.312Zm10.03 0c-.352 0-.678-.085-.976-.256a2.218 2.218 0 0 1-.704-.704 1.933 1.933 0 0 1-.256-.976V5.656c0-.352.085-.672.256-.96.18-.299.416-.533.704-.704.298-.181.623-.272.976-.272h5.568c.362 0 .688.09.975.272.3.17.534.405.705.704.18.288.271.608.271.96v5.408c0 .352-.09.677-.272.976-.17.288-.405.523-.703.704-.288.17-.614.256-.977.256h-5.567Zm0-1.312h5.568c.17 0 .314-.059.431-.176a.614.614 0 0 0 .193-.448V5.656a.563.563 0 0 0-.192-.432.563.563 0 0 0-.432-.192h-5.569c-.17 0-.32.064-.447.192a.587.587 0 0 0-.176.432v5.408c0 .17.058.32.175.448a.642.642 0 0 0 .449.176ZM61.77 13V3.72h7.52c.352 0 .672.09.96.272.299.17.534.405.704.704.182.288.272.608.272.96V13h-1.312V5.656a.563.563 0 0 0-.192-.432.563.563 0 0 0-.432-.192h-5.568c-.17 0-.32.064-.448.192a.563.563 0 0 0-.192.432V13H61.77Z" fill="#D2D2D2"/></svg>