<svg width="47" height="19" viewBox="0 0 47 19" fill="none" xmlns="http://www.w3.org/2000/svg">
<path d="M20.617 2.25C20.8837 2.54333 21.017 2.83 21.017 3.11C21.0237 3.39 20.897 3.68 20.637 3.98C20.4237 4.22667 20.187 4.44667 19.927 4.64C19.6737 4.82667 19.407 5.00667 19.127 5.18C18.1937 5.74667 17.2437 6.27333 16.277 6.76C15.317 7.24 14.347 7.71667 13.367 8.19C12.5203 8.59 11.677 8.98667 10.837 9.38C10.0037 9.77333 9.16366 10.17 8.31699 10.57C8.27699 10.59 8.23366 10.6067 8.18699 10.62C8.14699 10.6333 8.11033 10.6667 8.07699 10.72C8.33033 10.74 8.57699 10.76 8.81699 10.78C9.06366 10.7933 9.31033 10.8133 9.55699 10.84C11.6037 11.04 13.627 11.37 15.627 11.83C15.707 11.85 15.787 11.8667 15.867 11.88C15.947 11.8933 16.0237 11.9067 16.097 11.92C16.357 11.9733 16.5637 12.0967 16.717 12.29C16.737 12.3233 16.7537 12.3567 16.767 12.39C16.787 12.4233 16.7903 12.4567 16.777 12.49C16.7637 12.5233 16.7403 12.5467 16.707 12.56C16.6803 12.5667 16.6503 12.57 16.617 12.57H16.577H16.497C16.277 12.57 16.057 12.5567 15.837 12.53C15.6237 12.5033 15.4103 12.4733 15.197 12.44C14.2103 12.32 13.227 12.2167 12.247 12.13C11.267 12.0433 10.2803 12 9.28699 12C9.14699 12 9.00366 12 8.85699 12C8.71699 12 8.57366 12.0033 8.42699 12.01C8.23366 12.0233 8.03699 12.0367 7.83699 12.05C7.64366 12.0567 7.44699 12.0633 7.24699 12.07C7.14699 12.0767 7.06699 12.1 7.00699 12.14C6.94699 12.18 6.90033 12.25 6.86699 12.35C6.65366 12.9033 6.43699 13.4533 6.21699 14C6.00366 14.5467 5.78699 15.0933 5.56699 15.64C5.53366 15.7333 5.49699 15.8233 5.45699 15.91C5.42366 15.9967 5.38366 16.0833 5.33699 16.17C5.22366 16.39 5.07366 16.5 4.88699 16.5C4.72699 16.5 4.55699 16.4567 4.37699 16.37C4.20366 16.29 4.06033 16.2 3.94699 16.1C3.72033 15.9267 3.57699 15.7567 3.51699 15.59C3.46366 15.4167 3.47366 15.1933 3.54699 14.92C3.66033 14.5333 3.78366 14.1567 3.91699 13.79C4.05699 13.4167 4.20366 13.0433 4.35699 12.67C4.39033 12.5767 4.43366 12.4833 4.48699 12.39C4.54033 12.2967 4.56366 12.2033 4.55699 12.11C4.55699 12.0567 4.54033 12.0167 4.50699 11.99C4.47366 11.9567 4.43366 11.93 4.38699 11.91C4.34699 11.8833 4.30366 11.86 4.25699 11.84C4.21033 11.8133 4.17033 11.78 4.13699 11.74C4.13033 11.7333 4.12366 11.73 4.11699 11.73C4.11033 11.7233 4.10366 11.7133 4.09699 11.7C3.84366 11.4667 3.72699 11.28 3.74699 11.14C3.76699 10.9933 3.93033 10.8433 4.23699 10.69C4.41033 10.6033 4.58366 10.52 4.75699 10.44C4.93699 10.36 5.11366 10.28 5.28699 10.2C5.34033 10.1733 5.38699 10.1433 5.42699 10.11C5.47366 10.0767 5.51033 10.03 5.53699 9.97C5.95033 9.06333 6.37033 8.16667 6.79699 7.28C7.23033 6.38667 7.66699 5.49333 8.10699 4.6C8.11366 4.58667 8.11699 4.57333 8.11699 4.56C8.11699 4.54 8.12366 4.51333 8.13699 4.48C7.65699 4.64667 7.19033 4.81667 6.73699 4.99C6.28366 5.15667 5.83699 5.33667 5.39699 5.53C5.01699 5.70333 4.64033 5.87667 4.26699 6.05C3.89366 6.21667 3.51699 6.38667 3.13699 6.56C2.92366 6.66 2.71366 6.76667 2.50699 6.88C2.30699 6.99333 2.10699 7.11667 1.90699 7.25C1.78699 7.32333 1.64033 7.36 1.46699 7.36C1.24033 7.36 1.02033 7.29667 0.806992 7.17C0.600326 7.04333 0.460326 6.87667 0.386992 6.67C0.353659 6.57667 0.356992 6.5 0.396992 6.44C0.430326 6.37333 0.476992 6.31 0.536992 6.25C0.683659 6.11667 0.836992 5.99667 0.996992 5.89C1.15699 5.77667 1.32366 5.67 1.49699 5.57C2.69033 4.86333 3.91033 4.25 5.15699 3.73C6.40366 3.20333 7.69033 2.74667 9.01699 2.36C9.11699 2.32667 9.20366 2.28667 9.27699 2.24C9.35033 2.18667 9.41366 2.11 9.46699 2.01C9.50033 1.94333 9.55033 1.85333 9.61699 1.74C9.68366 1.62667 9.75699 1.51667 9.83699 1.41C9.92366 1.29667 10.0137 1.2 10.107 1.12C10.2003 1.04 10.2903 0.999999 10.377 0.999999C10.457 0.999999 10.5437 1.01667 10.637 1.05C10.7303 1.08333 10.8203 1.13 10.907 1.19C10.9937 1.24333 11.0737 1.30333 11.147 1.37C11.2203 1.43667 11.277 1.50333 11.317 1.57C11.3703 1.65667 11.437 1.7 11.517 1.7C11.537 1.7 11.5737 1.69333 11.627 1.68C12.5003 1.48667 13.377 1.33 14.257 1.21C15.1437 1.08333 16.037 1.02 16.937 1.02C17.2703 1.02 17.6037 1.03667 17.937 1.07C18.2703 1.10333 18.597 1.16667 18.917 1.26C19.237 1.34667 19.5403 1.47 19.827 1.63C20.1203 1.79 20.3837 1.99667 20.617 2.25ZM18.837 2.74C18.8903 2.66667 18.9137 2.61333 18.907 2.58C18.9003 2.54 18.8437 2.52 18.737 2.52C18.597 2.51333 18.4537 2.50667 18.307 2.5C18.167 2.49333 18.027 2.49 17.887 2.49C16.6803 2.52333 15.4937 2.64667 14.327 2.86C13.1603 3.06667 11.997 3.32667 10.837 3.64C10.7637 3.66 10.7103 3.69333 10.677 3.74C10.6503 3.78667 10.6203 3.84 10.587 3.9C10.3337 4.47333 10.0737 5.04333 9.80699 5.61C9.54699 6.17667 9.28699 6.74667 9.02699 7.32C8.92033 7.55333 8.81366 7.79 8.70699 8.03C8.60699 8.27 8.50366 8.50667 8.39699 8.74C8.41033 8.74667 8.41699 8.75333 8.41699 8.76C8.42366 8.76 8.43366 8.76333 8.44699 8.77C8.52699 8.73667 8.60366 8.70333 8.67699 8.67C9.50366 8.29 10.3203 7.90333 11.127 7.51C11.9337 7.11 12.7403 6.70333 13.547 6.29C14.2203 5.94333 14.8837 5.58667 15.537 5.22C16.1903 4.85333 16.827 4.45 17.447 4.01C17.7003 3.82333 17.9437 3.62667 18.177 3.42C18.417 3.21333 18.637 2.98667 18.837 2.74ZM18.245 13.04C17.9516 12.9267 17.7216 12.77 17.555 12.57C17.3883 12.37 17.295 12.11 17.275 11.79C17.2483 11.4833 17.2716 11.19 17.345 10.91C17.4116 10.6233 17.5116 10.3433 17.645 10.07C18.185 8.92333 19.0116 8.06333 20.125 7.49C20.4383 7.33 20.7483 7.25 21.055 7.25C21.455 7.25 21.8516 7.37667 22.245 7.63C22.285 7.65 22.3216 7.67 22.355 7.69C22.3883 7.70333 22.4283 7.71 22.475 7.71H22.525C22.605 7.71 22.6683 7.71333 22.715 7.72C22.7683 7.72667 22.835 7.74667 22.915 7.78C23.0216 7.82 23.105 7.86333 23.165 7.91C23.225 7.95 23.265 7.99667 23.285 8.05C23.305 8.10333 23.3083 8.16667 23.295 8.24C23.2816 8.31333 23.255 8.4 23.215 8.5C23.0616 8.9 22.8816 9.28333 22.675 9.65C22.4683 10.0167 22.2683 10.39 22.075 10.77C21.995 10.9233 21.9183 11.08 21.845 11.24C21.7783 11.4 21.725 11.5667 21.685 11.74C21.6716 11.8067 21.6583 11.87 21.645 11.93C21.6383 11.99 21.6416 12.0567 21.655 12.13C21.7616 12.0967 21.855 12.05 21.935 11.99C22.0216 11.9233 22.105 11.8567 22.185 11.79C22.5183 11.51 22.835 11.2233 23.135 10.93C23.4416 10.6367 23.7483 10.34 24.055 10.04C24.115 9.98 24.175 9.92667 24.235 9.88C24.3016 9.82667 24.3783 9.8 24.465 9.8C24.5116 9.8 24.565 9.81 24.625 9.83C24.7183 9.87 24.7783 9.91667 24.805 9.97C24.8383 10.0233 24.8216 10.0967 24.755 10.19C24.555 10.49 24.355 10.79 24.155 11.09C23.9616 11.39 23.7483 11.6767 23.515 11.95C23.4083 12.0767 23.2916 12.2 23.165 12.32C23.0383 12.44 22.9016 12.55 22.755 12.65C22.6083 12.7433 22.4516 12.82 22.285 12.88C22.125 12.94 21.9583 12.97 21.785 12.97C21.4783 12.97 21.2016 12.8733 20.955 12.68C20.7083 12.48 20.5316 12.1933 20.425 11.82C20.3716 11.84 20.3316 11.8733 20.305 11.92C20.2783 11.96 20.2483 11.9967 20.215 12.03C20.1083 12.1433 20.0016 12.2567 19.895 12.37C19.795 12.4833 19.6916 12.5967 19.585 12.71C19.4516 12.8433 19.3116 12.95 19.165 13.03C19.025 13.1033 18.875 13.14 18.715 13.14C18.5616 13.14 18.405 13.1067 18.245 13.04ZM19.125 11.45C19.105 11.4967 19.0816 11.5433 19.055 11.59C19.035 11.63 19.0316 11.68 19.045 11.74C19.0916 11.7267 19.115 11.7167 19.115 11.71C19.6216 11.25 20.0783 10.7567 20.485 10.23C20.8916 9.70333 21.2916 9.16 21.685 8.6C21.6983 8.58 21.7116 8.56 21.725 8.54C21.745 8.52 21.7416 8.49667 21.715 8.47C21.695 8.45 21.675 8.44 21.655 8.44C21.635 8.44 21.615 8.45 21.595 8.47C21.5816 8.49 21.565 8.50667 21.545 8.52C21.0183 8.90667 20.5483 9.34 20.135 9.82C19.7283 10.3 19.3916 10.8433 19.125 11.45ZM27.7472 11.6C27.9806 11.8867 28.0906 12.1733 28.0772 12.46C28.0639 12.7467 27.9272 13.0167 27.6672 13.27C27.3539 13.5767 27.0072 13.8 26.6272 13.94C26.2472 14.08 25.8506 14.19 25.4372 14.27C25.2506 14.31 25.0572 14.33 24.8572 14.33C24.7172 14.33 24.5672 14.3167 24.4072 14.29C24.2539 14.2567 24.1039 14.21 23.9572 14.15C23.8039 14.09 23.6639 14.0167 23.5372 13.93C23.4039 13.8433 23.2906 13.7433 23.1972 13.63C22.9039 13.2767 22.9206 12.96 23.2472 12.68C23.5539 12.42 23.8606 12.1633 24.1672 11.91C24.4739 11.65 24.7939 11.4033 25.1272 11.17C25.1539 11.1567 25.1806 11.14 25.2072 11.12C25.2406 11.1 25.2772 11.0767 25.3172 11.05C25.2239 10.9833 25.1339 10.9233 25.0472 10.87C24.9606 10.81 24.8739 10.75 24.7872 10.69C24.6272 10.5633 24.4772 10.4333 24.3372 10.3C24.1972 10.16 24.0806 9.99333 23.9872 9.8C23.8939 9.61333 23.8506 9.43 23.8572 9.25C23.8572 9.07 23.9239 8.9 24.0572 8.74C24.2706 8.48667 24.4972 8.24667 24.7372 8.02C24.9839 7.78667 25.2472 7.58333 25.5272 7.41C25.8072 7.23667 26.1039 7.1 26.4172 7C26.7306 6.9 27.0606 6.85 27.4072 6.85C28.0406 6.85 28.6006 7.07333 29.0872 7.52C29.5939 7.98 29.6006 8.44 29.1072 8.9C29.0139 8.99333 28.9206 9.08 28.8272 9.16C28.7339 9.24 28.6439 9.32667 28.5572 9.42C28.4906 9.48667 28.4139 9.52 28.3272 9.52C28.2472 9.52 28.1639 9.49333 28.0772 9.44C27.9906 9.4 27.9239 9.34667 27.8772 9.28C27.8306 9.21333 27.8206 9.12667 27.8472 9.02C27.8806 8.90667 27.9239 8.8 27.9772 8.7C28.0306 8.59333 28.0772 8.48333 28.1172 8.37C28.1439 8.31 28.1706 8.24667 28.1972 8.18C28.2306 8.10667 28.2272 8.04333 28.1872 7.99C28.1539 7.95667 28.1206 7.94 28.0872 7.94C28.0472 7.94 28.0039 7.95333 27.9572 7.98C27.9106 8.00667 27.8672 8.02667 27.8272 8.04C26.9806 8.35333 26.2872 8.86333 25.7472 9.57C25.6672 9.67667 25.6206 9.78333 25.6072 9.89C25.5939 9.99 25.6072 10.0867 25.6472 10.18C25.6872 10.2667 25.7506 10.3467 25.8372 10.42C25.9239 10.4867 26.0239 10.5467 26.1372 10.6C26.1506 10.6067 26.1672 10.61 26.1872 10.61C26.2206 10.61 26.2506 10.6 26.2772 10.58C26.3039 10.56 26.3339 10.5433 26.3672 10.53C26.8539 10.31 27.3372 10.0933 27.8172 9.88C28.3039 9.66 28.8006 9.46333 29.3072 9.29C29.4606 9.23667 29.6339 9.18 29.8272 9.12C30.0206 9.06 30.2206 9.00333 30.4272 8.95C30.6339 8.89667 30.8372 8.85333 31.0372 8.82C31.2372 8.78667 31.4172 8.77 31.5772 8.77C31.8039 8.77 32.0106 8.82667 32.1972 8.94C32.2306 8.96 32.2639 8.98333 32.2972 9.01C32.3306 9.03667 32.3439 9.07 32.3372 9.11C32.3306 9.16333 32.3006 9.19 32.2472 9.19H32.1672H32.1472C31.8539 9.23 31.5672 9.29333 31.2872 9.38C31.0139 9.46667 30.7372 9.55667 30.4572 9.65C29.3772 10.0167 28.3172 10.4367 27.2772 10.91C27.2439 10.93 27.2072 10.95 27.1672 10.97C27.1272 10.9833 27.0772 11.0067 27.0172 11.04C27.1639 11.1267 27.2972 11.2133 27.4172 11.3C27.5439 11.3867 27.6539 11.4867 27.7472 11.6ZM26.4672 11.78C26.4739 11.6867 26.4506 11.6133 26.3972 11.56C26.3506 11.5 26.2906 11.47 26.2172 11.47C26.1639 11.47 26.1039 11.4867 26.0372 11.52C25.6839 11.7133 25.3572 11.9333 25.0572 12.18C24.7572 12.4267 24.4739 12.6967 24.2072 12.99C24.1606 13.0367 24.1206 13.0867 24.0872 13.14C24.0472 13.1867 24.0172 13.2433 23.9972 13.31C23.9639 13.4233 23.9906 13.48 24.0772 13.48C24.0839 13.48 24.0939 13.48 24.1072 13.48C24.1139 13.4733 24.1239 13.47 24.1372 13.47C24.3306 13.4233 24.5572 13.3567 24.8172 13.27C25.0772 13.1767 25.3239 13.06 25.5572 12.92C25.7906 12.78 25.9939 12.6167 26.1672 12.43C26.3406 12.2367 26.4406 12.02 26.4672 11.78ZM35.7132 3.77C35.3532 4.40333 35.0032 5.04 34.6632 5.68C34.3232 6.31333 33.9699 6.94333 33.6032 7.57C33.0166 8.55667 32.4699 9.55667 31.9632 10.57C31.4632 11.5833 31.0032 12.6233 30.5832 13.69C30.3832 14.19 30.2166 14.7033 30.0832 15.23C29.9432 15.75 29.8666 16.2867 29.8532 16.84C29.8466 17.08 29.8866 17.3067 29.9732 17.52C30.0599 17.74 30.1532 17.9567 30.2532 18.17C30.2866 18.23 30.3366 18.2667 30.4032 18.28C30.4632 18.2933 30.5232 18.31 30.5832 18.33C30.7166 18.37 30.8332 18.4333 30.9332 18.52C31.0399 18.6067 31.0799 18.6833 31.0532 18.75C31.0066 18.8633 30.9399 18.93 30.8532 18.95C30.7666 18.97 30.6766 18.98 30.5832 18.98H30.4932C30.2399 18.98 30.0166 18.9267 29.8232 18.82C29.6299 18.7133 29.4466 18.5733 29.2732 18.4C28.4132 17.5267 28.1266 16.4967 28.4132 15.31C28.5399 14.8033 28.6932 14.31 28.8732 13.83C29.0532 13.3433 29.2532 12.8633 29.4732 12.39C29.8999 11.4767 30.3399 10.58 30.7932 9.7C31.2466 8.82 31.7199 7.94333 32.2132 7.07C32.4799 6.59667 32.7466 6.13 33.0132 5.67C33.2866 5.20333 33.5499 4.73 33.8032 4.25C33.8166 4.21667 33.8332 4.18667 33.8532 4.16C33.8732 4.12667 33.8766 4.08333 33.8632 4.03C33.7699 4.05667 33.6799 4.08 33.5932 4.1C33.5132 4.12 33.4299 4.14333 33.3432 4.17C33.0499 4.24333 32.7632 4.31 32.4832 4.37C32.2099 4.43 31.9199 4.46 31.6132 4.46C30.8399 4.43333 30.1966 4.12 29.6832 3.52C29.6232 3.44667 29.5732 3.36667 29.5332 3.28C29.4866 3.19333 29.4566 3.1 29.4432 3C29.4232 2.8 29.4866 2.7 29.6332 2.7C29.6466 2.7 29.6866 2.70667 29.7532 2.72C30.0199 2.79333 30.2232 2.94333 30.3632 3.17C30.4166 3.26333 30.4799 3.32333 30.5532 3.35C30.6199 3.37667 30.7032 3.39 30.8032 3.39C31.0699 3.37667 31.3299 3.34 31.5832 3.28C31.8432 3.21333 32.0999 3.15333 32.3532 3.1C32.7266 3.02667 33.0966 2.95667 33.4632 2.89C33.8299 2.81667 34.1999 2.74333 34.5732 2.67C34.7199 2.64333 34.8399 2.56333 34.9332 2.43C35.1666 2.10333 35.4032 1.78667 35.6432 1.48C35.8899 1.16667 36.1566 0.866666 36.4432 0.579999C36.5632 0.459999 36.6732 0.399999 36.7732 0.399999C36.8666 0.399999 36.9699 0.443333 37.0832 0.529999C37.2166 0.623332 37.2932 0.709999 37.3132 0.79C37.3399 0.863333 37.3166 0.973332 37.2432 1.12C37.1699 1.28 37.0866 1.44333 36.9932 1.61C36.9066 1.77 36.8132 1.94 36.7132 2.12C37.3999 1.98 38.0899 1.85667 38.7832 1.75C39.4832 1.63667 40.1832 1.58 40.8832 1.58C41.1299 1.58 41.3732 1.59 41.6132 1.61C41.8532 1.63 42.0832 1.67333 42.3032 1.74C42.5299 1.8 42.7432 1.89333 42.9432 2.02C43.1432 2.14 43.3232 2.30333 43.4832 2.51C43.5032 2.54333 43.5232 2.57667 43.5432 2.61C43.5632 2.64333 43.5599 2.68 43.5332 2.72C43.5066 2.76 43.4632 2.78 43.4032 2.78C43.3899 2.78 43.3766 2.78 43.3632 2.78C43.3499 2.77333 43.3366 2.77 43.3232 2.77C43.2499 2.75667 43.1799 2.74 43.1132 2.72C43.0532 2.7 42.9866 2.68333 42.9132 2.67C42.6866 2.63 42.4632 2.60333 42.2432 2.59C42.0232 2.57 41.8032 2.56 41.5832 2.56C41.1299 2.56 40.6666 2.58667 40.1932 2.64C39.7199 2.69333 39.2466 2.76333 38.7732 2.85C38.2999 2.93667 37.8299 3.03667 37.3632 3.15C36.9032 3.26333 36.4566 3.38 36.0232 3.5C35.8899 3.54667 35.7866 3.63667 35.7132 3.77ZM41.0161 9.43C41.0628 9.45 41.0928 9.47333 41.1061 9.5C41.1261 9.52667 41.1128 9.56667 41.0661 9.62C40.8728 9.83333 40.6528 10.0733 40.4061 10.34C40.1595 10.6 39.8928 10.8667 39.6061 11.14C39.3261 11.4133 39.0295 11.68 38.7161 11.94C38.4028 12.2 38.0828 12.43 37.7561 12.63C37.4361 12.83 37.1128 12.9933 36.7861 13.12C36.4595 13.24 36.1395 13.3 35.8261 13.3C35.3661 13.3 34.9428 13.1733 34.5561 12.92C34.1695 12.66 33.8528 12.2867 33.6061 11.8C33.4195 11.44 33.3895 11.0567 33.5161 10.65C33.7028 10.0567 33.9528 9.50667 34.2661 9C34.5861 8.49333 34.9961 8.04667 35.4961 7.66C35.6895 7.51333 35.8828 7.4 36.0761 7.32C36.2761 7.23333 36.4995 7.19 36.7461 7.19C37.0328 7.20333 37.2961 7.26333 37.5361 7.37C37.7828 7.47 38.0028 7.62333 38.1961 7.83C38.3295 7.97 38.4161 8.12333 38.4561 8.29C38.4961 8.45667 38.4761 8.63 38.3961 8.81C38.1428 9.37667 37.8061 9.84 37.3861 10.2C36.9728 10.56 36.4561 10.8067 35.8361 10.94C35.8028 10.9467 35.7728 10.9533 35.7461 10.96C35.7261 10.96 35.6995 10.96 35.6661 10.96C35.5928 10.96 35.5228 10.9533 35.4561 10.94C35.3961 10.92 35.3328 10.9 35.2661 10.88C35.2461 10.8733 35.2161 10.87 35.1761 10.87C35.1295 10.87 35.0928 10.9 35.0661 10.96C34.9928 11.1933 34.9461 11.4233 34.9261 11.65C34.9061 11.87 34.9728 12.09 35.1261 12.31C35.2061 12.4367 35.3128 12.5 35.4461 12.5C35.5461 12.5 35.6661 12.48 35.8061 12.44C35.9528 12.3933 36.1028 12.34 36.2561 12.28C36.4161 12.22 36.5661 12.16 36.7061 12.1C36.8461 12.0333 36.9595 11.9767 37.0461 11.93C37.4461 11.7233 37.8295 11.5 38.1961 11.26C38.5628 11.0133 38.9128 10.74 39.2461 10.44C39.3195 10.3733 39.4295 10.2833 39.5761 10.17C39.7228 10.0567 39.8795 9.94333 40.0461 9.83C40.2128 9.71667 40.3728 9.62 40.5261 9.54C40.6861 9.45333 40.8161 9.41 40.9161 9.41C40.9628 9.41 40.9961 9.41667 41.0161 9.43ZM37.1761 8.09C36.7961 8.35667 36.4728 8.66667 36.2061 9.02C35.9461 9.37333 35.6995 9.75333 35.4661 10.16C35.6861 10.14 35.9095 10.0733 36.1361 9.96C36.3628 9.84 36.5728 9.69333 36.7661 9.52C36.9595 9.34 37.1228 9.14667 37.2561 8.94C37.3895 8.72667 37.4728 8.51667 37.5061 8.31C37.5195 8.25667 37.5261 8.2 37.5261 8.14C37.5328 8.08 37.5128 8.03333 37.4661 8C37.4528 7.98667 37.4295 7.98 37.3961 7.98C37.3561 7.98 37.3161 7.99333 37.2761 8.02C37.2428 8.04 37.2095 8.06333 37.1761 8.09ZM39.4715 13.07C39.2182 12.9233 39.0649 12.7733 39.0115 12.62C38.9515 12.4667 38.9682 12.25 39.0615 11.97C39.2215 11.5167 39.4049 11.0767 39.6115 10.65C39.8182 10.2233 40.0415 9.80667 40.2815 9.4C40.5282 8.99333 40.7849 8.59333 41.0515 8.2C41.3182 7.80667 41.5882 7.41667 41.8615 7.03C41.9549 6.89 42.0815 6.82 42.2415 6.82C42.3549 6.82 42.4715 6.84667 42.5915 6.9C42.7115 6.95333 42.8149 7.01667 42.9015 7.09C42.9749 7.15 43.0315 7.21667 43.0715 7.29C43.1182 7.36333 43.1182 7.45333 43.0715 7.56C43.0582 7.6 43.0515 7.63667 43.0515 7.67C43.0582 7.69667 43.0915 7.71333 43.1515 7.72C43.3049 7.72667 43.4515 7.76 43.5915 7.82C43.7315 7.87333 43.8749 7.92 44.0215 7.96C44.0549 7.96667 44.0815 7.97333 44.1015 7.98C44.1282 7.98 44.1549 7.98 44.1815 7.98C44.2949 7.98 44.4149 7.94333 44.5415 7.87C44.7015 7.76333 44.8582 7.65667 45.0115 7.55C45.1715 7.43667 45.3382 7.33667 45.5115 7.25C45.5915 7.21667 45.6582 7.2 45.7115 7.2C45.7915 7.2 45.8815 7.23333 45.9815 7.3C46.0415 7.33333 46.0815 7.37333 46.1015 7.42C46.1282 7.46667 46.1082 7.52333 46.0415 7.59C45.9882 7.65 45.9549 7.72 45.9415 7.8C45.9349 7.87333 45.9249 7.94667 45.9115 8.02C45.8982 8.15333 45.8582 8.27667 45.7915 8.39C45.7249 8.49667 45.6415 8.59 45.5415 8.67C45.4482 8.74333 45.3415 8.8 45.2215 8.84C45.1015 8.88 44.9749 8.9 44.8415 8.9C44.6882 8.88 44.5282 8.85 44.3615 8.81C44.2015 8.76333 44.0415 8.70333 43.8815 8.63C43.8215 8.60333 43.7582 8.59 43.6915 8.59C43.5849 8.59 43.4849 8.63667 43.3915 8.73C42.8049 9.26333 42.2749 9.86 41.8015 10.52C41.3282 11.1733 40.9682 11.8767 40.7215 12.63C40.7015 12.69 40.6782 12.75 40.6515 12.81C40.6315 12.8633 40.6082 12.92 40.5815 12.98C40.5282 13.0933 40.4749 13.1767 40.4215 13.23C40.3682 13.2767 40.2982 13.3 40.2115 13.3C40.0915 13.3 39.9615 13.2767 39.8215 13.23C39.6882 13.1767 39.5715 13.1233 39.4715 13.07Z" fill="white"/>
</svg>
