<svg width="47" height="19" viewBox="0 0 47 19" fill="none" xmlns="http://www.w3.org/2000/svg">
<path d="M21.117 2.25C21.3837 2.54333 21.517 2.83 21.517 3.11C21.5237 3.39 21.397 3.68 21.137 3.98C20.9237 4.22667 20.687 4.44667 20.427 4.64C20.1737 4.82667 19.907 5.00667 19.627 5.18C18.6937 5.74667 17.7437 6.27333 16.777 6.76C15.817 7.24 14.847 7.71667 13.867 8.19C13.0203 8.59 12.177 8.98667 11.337 9.38C10.5037 9.77333 9.66366 10.17 8.81699 10.57C8.77699 10.59 8.73366 10.6067 8.68699 10.62C8.64699 10.6333 8.61033 10.6667 8.57699 10.72C8.83033 10.74 9.07699 10.76 9.31699 10.78C9.56366 10.7933 9.81033 10.8133 10.057 10.84C12.1037 11.04 14.127 11.37 16.127 11.83C16.207 11.85 16.287 11.8667 16.367 11.88C16.447 11.8933 16.5237 11.9067 16.597 11.92C16.857 11.9733 17.0637 12.0967 17.217 12.29C17.237 12.3233 17.2537 12.3567 17.267 12.39C17.287 12.4233 17.2903 12.4567 17.277 12.49C17.2637 12.5233 17.2403 12.5467 17.207 12.56C17.1803 12.5667 17.1503 12.57 17.117 12.57H17.077H16.997C16.777 12.57 16.557 12.5567 16.337 12.53C16.1237 12.5033 15.9103 12.4733 15.697 12.44C14.7103 12.32 13.727 12.2167 12.747 12.13C11.767 12.0433 10.7803 12 9.78699 12C9.64699 12 9.50366 12 9.35699 12C9.21699 12 9.07366 12.0033 8.92699 12.01C8.73366 12.0233 8.53699 12.0367 8.33699 12.05C8.14366 12.0567 7.94699 12.0633 7.74699 12.07C7.64699 12.0767 7.56699 12.1 7.50699 12.14C7.44699 12.18 7.40033 12.25 7.36699 12.35C7.15366 12.9033 6.93699 13.4533 6.71699 14C6.50366 14.5467 6.28699 15.0933 6.06699 15.64C6.03366 15.7333 5.99699 15.8233 5.95699 15.91C5.92366 15.9967 5.88366 16.0833 5.83699 16.17C5.72366 16.39 5.57366 16.5 5.38699 16.5C5.22699 16.5 5.05699 16.4567 4.87699 16.37C4.70366 16.29 4.56033 16.2 4.44699 16.1C4.22033 15.9267 4.07699 15.7567 4.01699 15.59C3.96366 15.4167 3.97366 15.1933 4.04699 14.92C4.16033 14.5333 4.28366 14.1567 4.41699 13.79C4.55699 13.4167 4.70366 13.0433 4.85699 12.67C4.89033 12.5767 4.93366 12.4833 4.98699 12.39C5.04033 12.2967 5.06366 12.2033 5.05699 12.11C5.05699 12.0567 5.04033 12.0167 5.00699 11.99C4.97366 11.9567 4.93366 11.93 4.88699 11.91C4.84699 11.8833 4.80366 11.86 4.75699 11.84C4.71033 11.8133 4.67033 11.78 4.63699 11.74C4.63033 11.7333 4.62366 11.73 4.61699 11.73C4.61033 11.7233 4.60366 11.7133 4.59699 11.7C4.34366 11.4667 4.22699 11.28 4.24699 11.14C4.26699 10.9933 4.43033 10.8433 4.73699 10.69C4.91033 10.6033 5.08366 10.52 5.25699 10.44C5.43699 10.36 5.61366 10.28 5.78699 10.2C5.84033 10.1733 5.88699 10.1433 5.92699 10.11C5.97366 10.0767 6.01033 10.03 6.03699 9.97C6.45033 9.06333 6.87033 8.16667 7.29699 7.28C7.73033 6.38667 8.16699 5.49333 8.60699 4.6C8.61366 4.58667 8.61699 4.57333 8.61699 4.56C8.61699 4.54 8.62366 4.51333 8.63699 4.48C8.15699 4.64667 7.69033 4.81667 7.23699 4.99C6.78366 5.15667 6.33699 5.33667 5.89699 5.53C5.51699 5.70333 5.14033 5.87667 4.76699 6.05C4.39366 6.21667 4.01699 6.38667 3.63699 6.56C3.42366 6.66 3.21366 6.76667 3.00699 6.88C2.80699 6.99333 2.60699 7.11667 2.40699 7.25C2.28699 7.32333 2.14033 7.36 1.96699 7.36C1.74033 7.36 1.52033 7.29667 1.30699 7.17C1.10033 7.04333 0.960326 6.87667 0.886992 6.67C0.853659 6.57667 0.856992 6.5 0.896992 6.44C0.930326 6.37333 0.976992 6.31 1.03699 6.25C1.18366 6.11667 1.33699 5.99667 1.49699 5.89C1.65699 5.77667 1.82366 5.67 1.99699 5.57C3.19033 4.86333 4.41033 4.25 5.65699 3.73C6.90366 3.20333 8.19033 2.74667 9.51699 2.36C9.61699 2.32667 9.70366 2.28667 9.77699 2.24C9.85033 2.18667 9.91366 2.11 9.96699 2.01C10.0003 1.94333 10.0503 1.85333 10.117 1.74C10.1837 1.62667 10.257 1.51667 10.337 1.41C10.4237 1.29667 10.5137 1.2 10.607 1.12C10.7003 1.04 10.7903 0.999999 10.877 0.999999C10.957 0.999999 11.0437 1.01667 11.137 1.05C11.2303 1.08333 11.3203 1.13 11.407 1.19C11.4937 1.24333 11.5737 1.30333 11.647 1.37C11.7203 1.43667 11.777 1.50333 11.817 1.57C11.8703 1.65667 11.937 1.7 12.017 1.7C12.037 1.7 12.0737 1.69333 12.127 1.68C13.0003 1.48667 13.877 1.33 14.757 1.21C15.6437 1.08333 16.537 1.02 17.437 1.02C17.7703 1.02 18.1037 1.03667 18.437 1.07C18.7703 1.10333 19.097 1.16667 19.417 1.26C19.737 1.34667 20.0403 1.47 20.327 1.63C20.6203 1.79 20.8837 1.99667 21.117 2.25ZM19.337 2.74C19.3903 2.66667 19.4137 2.61333 19.407 2.58C19.4003 2.54 19.3437 2.52 19.237 2.52C19.097 2.51333 18.9537 2.50667 18.807 2.5C18.667 2.49333 18.527 2.49 18.387 2.49C17.1803 2.52333 15.9937 2.64667 14.827 2.86C13.6603 3.06667 12.497 3.32667 11.337 3.64C11.2637 3.66 11.2103 3.69333 11.177 3.74C11.1503 3.78667 11.1203 3.84 11.087 3.9C10.8337 4.47333 10.5737 5.04333 10.307 5.61C10.047 6.17667 9.78699 6.74667 9.52699 7.32C9.42033 7.55333 9.31366 7.79 9.20699 8.03C9.10699 8.27 9.00366 8.50667 8.89699 8.74C8.91033 8.74667 8.91699 8.75333 8.91699 8.76C8.92366 8.76 8.93366 8.76333 8.94699 8.77C9.02699 8.73667 9.10366 8.70333 9.17699 8.67C10.0037 8.29 10.8203 7.90333 11.627 7.51C12.4337 7.11 13.2403 6.70333 14.047 6.29C14.7203 5.94333 15.3837 5.58667 16.037 5.22C16.6903 4.85333 17.327 4.45 17.947 4.01C18.2003 3.82333 18.4437 3.62667 18.677 3.42C18.917 3.21333 19.137 2.98667 19.337 2.74ZM18.745 13.04C18.4516 12.9267 18.2216 12.77 18.055 12.57C17.8883 12.37 17.795 12.11 17.775 11.79C17.7483 11.4833 17.7716 11.19 17.845 10.91C17.9116 10.6233 18.0116 10.3433 18.145 10.07C18.685 8.92333 19.5116 8.06333 20.625 7.49C20.9383 7.33 21.2483 7.25 21.555 7.25C21.955 7.25 22.3516 7.37667 22.745 7.63C22.785 7.65 22.8216 7.67 22.855 7.69C22.8883 7.70333 22.9283 7.71 22.975 7.71H23.025C23.105 7.71 23.1683 7.71333 23.215 7.72C23.2683 7.72667 23.335 7.74667 23.415 7.78C23.5216 7.82 23.605 7.86333 23.665 7.91C23.725 7.95 23.765 7.99667 23.785 8.05C23.805 8.10333 23.8083 8.16667 23.795 8.24C23.7816 8.31333 23.755 8.4 23.715 8.5C23.5616 8.9 23.3816 9.28333 23.175 9.65C22.9683 10.0167 22.7683 10.39 22.575 10.77C22.495 10.9233 22.4183 11.08 22.345 11.24C22.2783 11.4 22.225 11.5667 22.185 11.74C22.1716 11.8067 22.1583 11.87 22.145 11.93C22.1383 11.99 22.1416 12.0567 22.155 12.13C22.2616 12.0967 22.355 12.05 22.435 11.99C22.5216 11.9233 22.605 11.8567 22.685 11.79C23.0183 11.51 23.335 11.2233 23.635 10.93C23.9416 10.6367 24.2483 10.34 24.555 10.04C24.615 9.98 24.675 9.92667 24.735 9.88C24.8016 9.82667 24.8783 9.8 24.965 9.8C25.0116 9.8 25.065 9.81 25.125 9.83C25.2183 9.87 25.2783 9.91667 25.305 9.97C25.3383 10.0233 25.3216 10.0967 25.255 10.19C25.055 10.49 24.855 10.79 24.655 11.09C24.4616 11.39 24.2483 11.6767 24.015 11.95C23.9083 12.0767 23.7916 12.2 23.665 12.32C23.5383 12.44 23.4016 12.55 23.255 12.65C23.1083 12.7433 22.9516 12.82 22.785 12.88C22.625 12.94 22.4583 12.97 22.285 12.97C21.9783 12.97 21.7016 12.8733 21.455 12.68C21.2083 12.48 21.0316 12.1933 20.925 11.82C20.8716 11.84 20.8316 11.8733 20.805 11.92C20.7783 11.96 20.7483 11.9967 20.715 12.03C20.6083 12.1433 20.5016 12.2567 20.395 12.37C20.295 12.4833 20.1916 12.5967 20.085 12.71C19.9516 12.8433 19.8116 12.95 19.665 13.03C19.525 13.1033 19.375 13.14 19.215 13.14C19.0616 13.14 18.905 13.1067 18.745 13.04ZM19.625 11.45C19.605 11.4967 19.5816 11.5433 19.555 11.59C19.535 11.63 19.5316 11.68 19.545 11.74C19.5916 11.7267 19.615 11.7167 19.615 11.71C20.1216 11.25 20.5783 10.7567 20.985 10.23C21.3916 9.70333 21.7916 9.16 22.185 8.6C22.1983 8.58 22.2116 8.56 22.225 8.54C22.245 8.52 22.2416 8.49667 22.215 8.47C22.195 8.45 22.175 8.44 22.155 8.44C22.135 8.44 22.115 8.45 22.095 8.47C22.0816 8.49 22.065 8.50667 22.045 8.52C21.5183 8.90667 21.0483 9.34 20.635 9.82C20.2283 10.3 19.8916 10.8433 19.625 11.45ZM28.2472 11.6C28.4806 11.8867 28.5906 12.1733 28.5772 12.46C28.5639 12.7467 28.4272 13.0167 28.1672 13.27C27.8539 13.5767 27.5072 13.8 27.1272 13.94C26.7472 14.08 26.3506 14.19 25.9372 14.27C25.7506 14.31 25.5572 14.33 25.3572 14.33C25.2172 14.33 25.0672 14.3167 24.9072 14.29C24.7539 14.2567 24.6039 14.21 24.4572 14.15C24.3039 14.09 24.1639 14.0167 24.0372 13.93C23.9039 13.8433 23.7906 13.7433 23.6972 13.63C23.4039 13.2767 23.4206 12.96 23.7472 12.68C24.0539 12.42 24.3606 12.1633 24.6672 11.91C24.9739 11.65 25.2939 11.4033 25.6272 11.17C25.6539 11.1567 25.6806 11.14 25.7072 11.12C25.7406 11.1 25.7772 11.0767 25.8172 11.05C25.7239 10.9833 25.6339 10.9233 25.5472 10.87C25.4606 10.81 25.3739 10.75 25.2872 10.69C25.1272 10.5633 24.9772 10.4333 24.8372 10.3C24.6972 10.16 24.5806 9.99333 24.4872 9.8C24.3939 9.61333 24.3506 9.43 24.3572 9.25C24.3572 9.07 24.4239 8.9 24.5572 8.74C24.7706 8.48667 24.9972 8.24667 25.2372 8.02C25.4839 7.78667 25.7472 7.58333 26.0272 7.41C26.3072 7.23667 26.6039 7.1 26.9172 7C27.2306 6.9 27.5606 6.85 27.9072 6.85C28.5406 6.85 29.1006 7.07333 29.5872 7.52C30.0939 7.98 30.1006 8.44 29.6072 8.9C29.5139 8.99333 29.4206 9.08 29.3272 9.16C29.2339 9.24 29.1439 9.32667 29.0572 9.42C28.9906 9.48667 28.9139 9.52 28.8272 9.52C28.7472 9.52 28.6639 9.49333 28.5772 9.44C28.4906 9.4 28.4239 9.34667 28.3772 9.28C28.3306 9.21333 28.3206 9.12667 28.3472 9.02C28.3806 8.90667 28.4239 8.8 28.4772 8.7C28.5306 8.59333 28.5772 8.48333 28.6172 8.37C28.6439 8.31 28.6706 8.24667 28.6972 8.18C28.7306 8.10667 28.7272 8.04333 28.6872 7.99C28.6539 7.95667 28.6206 7.94 28.5872 7.94C28.5472 7.94 28.5039 7.95333 28.4572 7.98C28.4106 8.00667 28.3672 8.02667 28.3272 8.04C27.4806 8.35333 26.7872 8.86333 26.2472 9.57C26.1672 9.67667 26.1206 9.78333 26.1072 9.89C26.0939 9.99 26.1072 10.0867 26.1472 10.18C26.1872 10.2667 26.2506 10.3467 26.3372 10.42C26.4239 10.4867 26.5239 10.5467 26.6372 10.6C26.6506 10.6067 26.6672 10.61 26.6872 10.61C26.7206 10.61 26.7506 10.6 26.7772 10.58C26.8039 10.56 26.8339 10.5433 26.8672 10.53C27.3539 10.31 27.8372 10.0933 28.3172 9.88C28.8039 9.66 29.3006 9.46333 29.8072 9.29C29.9606 9.23667 30.1339 9.18 30.3272 9.12C30.5206 9.06 30.7206 9.00333 30.9272 8.95C31.1339 8.89667 31.3372 8.85333 31.5372 8.82C31.7372 8.78667 31.9172 8.77 32.0772 8.77C32.3039 8.77 32.5106 8.82667 32.6972 8.94C32.7306 8.96 32.7639 8.98333 32.7972 9.01C32.8306 9.03667 32.8439 9.07 32.8372 9.11C32.8306 9.16333 32.8006 9.19 32.7472 9.19H32.6672H32.6472C32.3539 9.23 32.0672 9.29333 31.7872 9.38C31.5139 9.46667 31.2372 9.55667 30.9572 9.65C29.8772 10.0167 28.8172 10.4367 27.7772 10.91C27.7439 10.93 27.7072 10.95 27.6672 10.97C27.6272 10.9833 27.5772 11.0067 27.5172 11.04C27.6639 11.1267 27.7972 11.2133 27.9172 11.3C28.0439 11.3867 28.1539 11.4867 28.2472 11.6ZM26.9672 11.78C26.9739 11.6867 26.9506 11.6133 26.8972 11.56C26.8506 11.5 26.7906 11.47 26.7172 11.47C26.6639 11.47 26.6039 11.4867 26.5372 11.52C26.1839 11.7133 25.8572 11.9333 25.5572 12.18C25.2572 12.4267 24.9739 12.6967 24.7072 12.99C24.6606 13.0367 24.6206 13.0867 24.5872 13.14C24.5472 13.1867 24.5172 13.2433 24.4972 13.31C24.4639 13.4233 24.4906 13.48 24.5772 13.48C24.5839 13.48 24.5939 13.48 24.6072 13.48C24.6139 13.4733 24.6239 13.47 24.6372 13.47C24.8306 13.4233 25.0572 13.3567 25.3172 13.27C25.5772 13.1767 25.8239 13.06 26.0572 12.92C26.2906 12.78 26.4939 12.6167 26.6672 12.43C26.8406 12.2367 26.9406 12.02 26.9672 11.78ZM36.2132 3.77C35.8532 4.40333 35.5032 5.04 35.1632 5.68C34.8232 6.31333 34.4699 6.94333 34.1032 7.57C33.5166 8.55667 32.9699 9.55667 32.4632 10.57C31.9632 11.5833 31.5032 12.6233 31.0832 13.69C30.8832 14.19 30.7166 14.7033 30.5832 15.23C30.4432 15.75 30.3666 16.2867 30.3532 16.84C30.3466 17.08 30.3866 17.3067 30.4732 17.52C30.5599 17.74 30.6532 17.9567 30.7532 18.17C30.7866 18.23 30.8366 18.2667 30.9032 18.28C30.9632 18.2933 31.0232 18.31 31.0832 18.33C31.2166 18.37 31.3332 18.4333 31.4332 18.52C31.5399 18.6067 31.5799 18.6833 31.5532 18.75C31.5066 18.8633 31.4399 18.93 31.3532 18.95C31.2666 18.97 31.1766 18.98 31.0832 18.98H30.9932C30.7399 18.98 30.5166 18.9267 30.3232 18.82C30.1299 18.7133 29.9466 18.5733 29.7732 18.4C28.9132 17.5267 28.6266 16.4967 28.9132 15.31C29.0399 14.8033 29.1932 14.31 29.3732 13.83C29.5532 13.3433 29.7532 12.8633 29.9732 12.39C30.3999 11.4767 30.8399 10.58 31.2932 9.7C31.7466 8.82 32.2199 7.94333 32.7132 7.07C32.9799 6.59667 33.2466 6.13 33.5132 5.67C33.7866 5.20333 34.0499 4.73 34.3032 4.25C34.3166 4.21667 34.3332 4.18667 34.3532 4.16C34.3732 4.12667 34.3766 4.08333 34.3632 4.03C34.2699 4.05667 34.1799 4.08 34.0932 4.1C34.0132 4.12 33.9299 4.14333 33.8432 4.17C33.5499 4.24333 33.2632 4.31 32.9832 4.37C32.7099 4.43 32.4199 4.46 32.1132 4.46C31.3399 4.43333 30.6966 4.12 30.1832 3.52C30.1232 3.44667 30.0732 3.36667 30.0332 3.28C29.9866 3.19333 29.9566 3.1 29.9432 3C29.9232 2.8 29.9866 2.7 30.1332 2.7C30.1466 2.7 30.1866 2.70667 30.2532 2.72C30.5199 2.79333 30.7232 2.94333 30.8632 3.17C30.9166 3.26333 30.9799 3.32333 31.0532 3.35C31.1199 3.37667 31.2032 3.39 31.3032 3.39C31.5699 3.37667 31.8299 3.34 32.0832 3.28C32.3432 3.21333 32.5999 3.15333 32.8532 3.1C33.2266 3.02667 33.5966 2.95667 33.9632 2.89C34.3299 2.81667 34.6999 2.74333 35.0732 2.67C35.2199 2.64333 35.3399 2.56333 35.4332 2.43C35.6666 2.10333 35.9032 1.78667 36.1432 1.48C36.3899 1.16667 36.6566 0.866666 36.9432 0.579999C37.0632 0.459999 37.1732 0.399999 37.2732 0.399999C37.3666 0.399999 37.4699 0.443333 37.5832 0.529999C37.7166 0.623332 37.7932 0.709999 37.8132 0.79C37.8399 0.863333 37.8166 0.973332 37.7432 1.12C37.6699 1.28 37.5866 1.44333 37.4932 1.61C37.4066 1.77 37.3132 1.94 37.2132 2.12C37.8999 1.98 38.5899 1.85667 39.2832 1.75C39.9832 1.63667 40.6832 1.58 41.3832 1.58C41.6299 1.58 41.8732 1.59 42.1132 1.61C42.3532 1.63 42.5832 1.67333 42.8032 1.74C43.0299 1.8 43.2432 1.89333 43.4432 2.02C43.6432 2.14 43.8232 2.30333 43.9832 2.51C44.0032 2.54333 44.0232 2.57667 44.0432 2.61C44.0632 2.64333 44.0599 2.68 44.0332 2.72C44.0066 2.76 43.9632 2.78 43.9032 2.78C43.8899 2.78 43.8766 2.78 43.8632 2.78C43.8499 2.77333 43.8366 2.77 43.8232 2.77C43.7499 2.75667 43.6799 2.74 43.6132 2.72C43.5532 2.7 43.4866 2.68333 43.4132 2.67C43.1866 2.63 42.9632 2.60333 42.7432 2.59C42.5232 2.57 42.3032 2.56 42.0832 2.56C41.6299 2.56 41.1666 2.58667 40.6932 2.64C40.2199 2.69333 39.7466 2.76333 39.2732 2.85C38.7999 2.93667 38.3299 3.03667 37.8632 3.15C37.4032 3.26333 36.9566 3.38 36.5232 3.5C36.3899 3.54667 36.2866 3.63667 36.2132 3.77ZM41.5161 9.43C41.5628 9.45 41.5928 9.47333 41.6061 9.5C41.6261 9.52667 41.6128 9.56667 41.5661 9.62C41.3728 9.83333 41.1528 10.0733 40.9061 10.34C40.6595 10.6 40.3928 10.8667 40.1061 11.14C39.8261 11.4133 39.5295 11.68 39.2161 11.94C38.9028 12.2 38.5828 12.43 38.2561 12.63C37.9361 12.83 37.6128 12.9933 37.2861 13.12C36.9595 13.24 36.6395 13.3 36.3261 13.3C35.8661 13.3 35.4428 13.1733 35.0561 12.92C34.6695 12.66 34.3528 12.2867 34.1061 11.8C33.9195 11.44 33.8895 11.0567 34.0161 10.65C34.2028 10.0567 34.4528 9.50667 34.7661 9C35.0861 8.49333 35.4961 8.04667 35.9961 7.66C36.1895 7.51333 36.3828 7.4 36.5761 7.32C36.7761 7.23333 36.9995 7.19 37.2461 7.19C37.5328 7.20333 37.7961 7.26333 38.0361 7.37C38.2828 7.47 38.5028 7.62333 38.6961 7.83C38.8295 7.97 38.9161 8.12333 38.9561 8.29C38.9961 8.45667 38.9761 8.63 38.8961 8.81C38.6428 9.37667 38.3061 9.84 37.8861 10.2C37.4728 10.56 36.9561 10.8067 36.3361 10.94C36.3028 10.9467 36.2728 10.9533 36.2461 10.96C36.2261 10.96 36.1995 10.96 36.1661 10.96C36.0928 10.96 36.0228 10.9533 35.9561 10.94C35.8961 10.92 35.8328 10.9 35.7661 10.88C35.7461 10.8733 35.7161 10.87 35.6761 10.87C35.6295 10.87 35.5928 10.9 35.5661 10.96C35.4928 11.1933 35.4461 11.4233 35.4261 11.65C35.4061 11.87 35.4728 12.09 35.6261 12.31C35.7061 12.4367 35.8128 12.5 35.9461 12.5C36.0461 12.5 36.1661 12.48 36.3061 12.44C36.4528 12.3933 36.6028 12.34 36.7561 12.28C36.9161 12.22 37.0661 12.16 37.2061 12.1C37.3461 12.0333 37.4595 11.9767 37.5461 11.93C37.9461 11.7233 38.3295 11.5 38.6961 11.26C39.0628 11.0133 39.4128 10.74 39.7461 10.44C39.8195 10.3733 39.9295 10.2833 40.0761 10.17C40.2228 10.0567 40.3795 9.94333 40.5461 9.83C40.7128 9.71667 40.8728 9.62 41.0261 9.54C41.1861 9.45333 41.3161 9.41 41.4161 9.41C41.4628 9.41 41.4961 9.41667 41.5161 9.43ZM37.6761 8.09C37.2961 8.35667 36.9728 8.66667 36.7061 9.02C36.4461 9.37333 36.1995 9.75333 35.9661 10.16C36.1861 10.14 36.4095 10.0733 36.6361 9.96C36.8628 9.84 37.0728 9.69333 37.2661 9.52C37.4595 9.34 37.6228 9.14667 37.7561 8.94C37.8895 8.72667 37.9728 8.51667 38.0061 8.31C38.0195 8.25667 38.0261 8.2 38.0261 8.14C38.0328 8.08 38.0128 8.03333 37.9661 8C37.9528 7.98667 37.9295 7.98 37.8961 7.98C37.8561 7.98 37.8161 7.99333 37.7761 8.02C37.7428 8.04 37.7095 8.06333 37.6761 8.09ZM39.9715 13.07C39.7182 12.9233 39.5649 12.7733 39.5115 12.62C39.4515 12.4667 39.4682 12.25 39.5615 11.97C39.7215 11.5167 39.9049 11.0767 40.1115 10.65C40.3182 10.2233 40.5415 9.80667 40.7815 9.4C41.0282 8.99333 41.2849 8.59333 41.5515 8.2C41.8182 7.80667 42.0882 7.41667 42.3615 7.03C42.4549 6.89 42.5815 6.82 42.7415 6.82C42.8549 6.82 42.9715 6.84667 43.0915 6.9C43.2115 6.95333 43.3149 7.01667 43.4015 7.09C43.4749 7.15 43.5315 7.21667 43.5715 7.29C43.6182 7.36333 43.6182 7.45333 43.5715 7.56C43.5582 7.6 43.5515 7.63667 43.5515 7.67C43.5582 7.69667 43.5915 7.71333 43.6515 7.72C43.8049 7.72667 43.9515 7.76 44.0915 7.82C44.2315 7.87333 44.3749 7.92 44.5215 7.96C44.5549 7.96667 44.5815 7.97333 44.6015 7.98C44.6282 7.98 44.6549 7.98 44.6815 7.98C44.7949 7.98 44.9149 7.94333 45.0415 7.87C45.2015 7.76333 45.3582 7.65667 45.5115 7.55C45.6715 7.43667 45.8382 7.33667 46.0115 7.25C46.0915 7.21667 46.1582 7.2 46.2115 7.2C46.2915 7.2 46.3815 7.23333 46.4815 7.3C46.5415 7.33333 46.5815 7.37333 46.6015 7.42C46.6282 7.46667 46.6082 7.52333 46.5415 7.59C46.4882 7.65 46.4549 7.72 46.4415 7.8C46.4349 7.87333 46.4249 7.94667 46.4115 8.02C46.3982 8.15333 46.3582 8.27667 46.2915 8.39C46.2249 8.49667 46.1415 8.59 46.0415 8.67C45.9482 8.74333 45.8415 8.8 45.7215 8.84C45.6015 8.88 45.4749 8.9 45.3415 8.9C45.1882 8.88 45.0282 8.85 44.8615 8.81C44.7015 8.76333 44.5415 8.70333 44.3815 8.63C44.3215 8.60333 44.2582 8.59 44.1915 8.59C44.0849 8.59 43.9849 8.63667 43.8915 8.73C43.3049 9.26333 42.7749 9.86 42.3015 10.52C41.8282 11.1733 41.4682 11.8767 41.2215 12.63C41.2015 12.69 41.1782 12.75 41.1515 12.81C41.1315 12.8633 41.1082 12.92 41.0815 12.98C41.0282 13.0933 40.9749 13.1767 40.9215 13.23C40.8682 13.2767 40.7982 13.3 40.7115 13.3C40.5915 13.3 40.4615 13.2767 40.3215 13.23C40.1882 13.1767 40.0715 13.1233 39.9715 13.07Z" fill="#D2D2D2"/>
</svg>
