<svg xmlns="http://www.w3.org/2000/svg" fill="none" width="47" height="19" viewBox="0 0 47 19"><path d="M21.117 2.25c.267.293.4.58.4.86.007.28-.12.57-.38.87-.213.247-.45.467-.71.66-.253.187-.52.367-.8.54a41.097 41.097 0 0 1-2.85 1.58c-.96.48-1.93.957-2.91 1.43-.847.4-1.69.797-2.53 1.19l-2.52 1.19a.75.75 0 0 1-.13.05c-.04.013-.077.047-.11.1l.74.06c.247.013.493.033.74.06 2.047.2 4.07.53 6.07.99.08.02.16.037.24.05l.23.04c.26.053.467.177.62.37.02.033.037.067.05.1.02.033.023.067.01.1a.12.12 0 0 1-.07.07.37.37 0 0 1-.09.01h-.12c-.22 0-.44-.013-.66-.04a21.305 21.305 0 0 1-.64-.09c-.987-.12-1.97-.223-2.95-.31-.98-.087-1.967-.13-2.96-.13h-.43c-.14 0-.283.003-.43.01l-.59.04-.59.02a.49.49 0 0 0-.24.07.39.39 0 0 0-.14.21c-.213.553-.43 1.103-.65 1.65-.213.547-.43 1.093-.65 1.64a3.27 3.27 0 0 1-.11.27 2.258 2.258 0 0 1-.12.26c-.113.22-.263.33-.45.33-.16 0-.33-.043-.51-.13a1.763 1.763 0 0 1-.43-.27c-.227-.173-.37-.343-.43-.51-.053-.173-.043-.397.03-.67.113-.387.237-.763.37-1.13.14-.373.287-.747.44-1.12.033-.093.077-.187.13-.28a.487.487 0 0 0 .07-.28c0-.053-.017-.093-.05-.12a.379.379 0 0 0-.12-.08.803.803 0 0 0-.13-.07.437.437 0 0 1-.12-.1c-.007-.007-.013-.01-.02-.01a.118.118 0 0 1-.02-.03c-.253-.233-.37-.42-.35-.56.02-.147.183-.297.49-.45.173-.087.347-.17.52-.25.18-.08.357-.16.53-.24a.725.725 0 0 0 .14-.09.333.333 0 0 0 .11-.14c.413-.907.833-1.803 1.26-2.69.433-.893.87-1.787 1.31-2.68a.089.089 0 0 0 .01-.04.23.23 0 0 1 .02-.08c-.48.167-.947.337-1.4.51-.453.167-.9.347-1.34.54-.38.173-.757.347-1.13.52-.373.167-.75.337-1.13.51-.213.1-.423.207-.63.32-.2.113-.4.237-.6.37a.829.829 0 0 1-.44.11c-.227 0-.447-.063-.66-.19a.954.954 0 0 1-.42-.5c-.033-.093-.03-.17.01-.23a.734.734 0 0 1 .14-.19c.147-.133.3-.253.46-.36.16-.113.327-.22.5-.32a29.363 29.363 0 0 1 3.66-1.84 35.268 35.268 0 0 1 3.86-1.37c.1-.033.187-.073.26-.12a.663.663 0 0 0 .19-.23 4.78 4.78 0 0 1 .15-.27 3.71 3.71 0 0 1 .22-.33 1.95 1.95 0 0 1 .27-.29.423.423 0 0 1 .27-.12c.08 0 .167.017.26.05s.183.08.27.14c.087.053.167.113.24.18.073.067.13.133.17.2.053.087.12.13.2.13.02 0 .057-.007.11-.02.873-.193 1.75-.35 2.63-.47a18.88 18.88 0 0 1 2.68-.19c.333 0 .667.017 1 .05.333.033.66.097.98.19.32.087.623.21.91.37.293.16.557.367.79.62Zm-1.78.49c.053-.073.077-.127.07-.16-.007-.04-.063-.06-.17-.06l-.43-.02c-.14-.007-.28-.01-.42-.01a23.346 23.346 0 0 0-3.56.37c-1.167.207-2.33.467-3.49.78a.277.277 0 0 0-.16.1l-.09.16a78.736 78.736 0 0 1-.78 1.71 426.019 426.019 0 0 0-1.1 2.42c-.1.24-.203.477-.31.71.013.007.02.013.02.02.007 0 .017.003.03.01a7.51 7.51 0 0 0 .23-.1c.827-.38 1.643-.767 2.45-1.16.807-.4 1.613-.807 2.42-1.22a62.828 62.828 0 0 0 1.99-1.07c.653-.367 1.29-.77 1.91-1.21.253-.187.497-.383.73-.59.24-.207.46-.433.66-.68Zm-.592 10.3a1.647 1.647 0 0 1-.69-.47c-.167-.2-.26-.46-.28-.78a2.57 2.57 0 0 1 .07-.88c.067-.287.167-.567.3-.84a5.418 5.418 0 0 1 2.48-2.58c.313-.16.623-.24.93-.24.4 0 .797.127 1.19.38.04.02.077.04.11.06.033.013.073.02.12.02h.05a.805.805 0 0 1 .39.07.96.96 0 0 1 .25.13c.06.04.1.087.12.14.02.053.023.117.01.19s-.04.16-.08.26c-.153.4-.333.783-.54 1.15-.207.367-.407.74-.6 1.12-.08.153-.157.31-.23.47-.067.16-.12.327-.16.5-.013.067-.027.13-.04.19a.69.69 0 0 0 .01.2c.107-.033.2-.08.28-.14.087-.067.17-.133.25-.2a17 17 0 0 0 .95-.86c.307-.293.613-.59.92-.89.06-.06.12-.113.18-.16a.358.358 0 0 1 .23-.08c.047 0 .1.01.16.03.093.04.153.087.18.14.033.053.017.127-.05.22l-.6.9c-.193.3-.407.587-.64.86a4.54 4.54 0 0 1-.35.37c-.127.12-.263.23-.41.33-.147.093-.303.17-.47.23-.16.06-.327.09-.5.09-.307 0-.583-.097-.83-.29-.247-.2-.423-.487-.53-.86a.223.223 0 0 0-.12.1.722.722 0 0 1-.09.11l-.32.34c-.1.113-.203.227-.31.34-.133.133-.273.24-.42.32a.956.956 0 0 1-.45.11c-.153 0-.31-.033-.47-.1Zm.88-1.59c-.02.047-.043.093-.07.14a.222.222 0 0 0-.01.15c.047-.013.07-.023.07-.03.507-.46.963-.953 1.37-1.48a44.94 44.94 0 0 0 1.2-1.63l.04-.06c.02-.02.017-.043-.01-.07-.02-.02-.04-.03-.06-.03-.02 0-.04.01-.06.03a.18.18 0 0 1-.05.05c-.527.387-.997.82-1.41 1.3a6.63 6.63 0 0 0-1.01 1.63Zm8.622.15c.234.287.344.573.33.86-.013.287-.15.557-.41.81-.313.307-.66.53-1.04.67s-.776.25-1.19.33a2.76 2.76 0 0 1-1.03.02 2.702 2.702 0 0 1-.45-.14 2.088 2.088 0 0 1-.42-.22 1.487 1.487 0 0 1-.34-.3c-.293-.353-.276-.67.05-.95.307-.26.614-.517.92-.77.307-.26.627-.507.96-.74a.518.518 0 0 0 .08-.05c.034-.02.07-.043.11-.07a4.684 4.684 0 0 0-.27-.18l-.26-.18a6.538 6.538 0 0 1-.45-.39 1.818 1.818 0 0 1-.35-.5 1.129 1.129 0 0 1-.13-.55c0-.18.067-.35.2-.51.214-.253.44-.493.68-.72.247-.233.51-.437.79-.61s.577-.31.89-.41c.314-.1.644-.15.99-.15.634 0 1.194.223 1.68.67.507.46.514.92.02 1.38-.093.093-.186.18-.28.26-.093.08-.183.167-.27.26a.316.316 0 0 1-.23.1.478.478 0 0 1-.25-.08.486.486 0 0 1-.2-.16c-.046-.067-.056-.153-.03-.26a1.7 1.7 0 0 1 .13-.32c.054-.107.1-.217.14-.33.027-.06.054-.123.08-.19.034-.073.03-.137-.01-.19-.033-.033-.066-.05-.1-.05a.265.265 0 0 0-.13.04.73.73 0 0 1-.13.06 4.551 4.551 0 0 0-2.08 1.53.676.676 0 0 0-.14.32c-.013.1 0 .197.04.29.04.087.104.167.19.24.087.067.187.127.3.18a.146.146 0 0 0 .14-.02.391.391 0 0 1 .09-.05c.487-.22.97-.437 1.45-.65a16.888 16.888 0 0 1 2.61-.93 7.14 7.14 0 0 1 .61-.13c.2-.033.38-.05.54-.05a1.171 1.171 0 0 1 .72.24.1.1 0 0 1 .04.1c-.006.053-.036.08-.09.08h-.1c-.293.04-.58.103-.86.19a34.28 34.28 0 0 0-4.01 1.53c-.033.02-.07.04-.11.06a.933.933 0 0 0-.15.07c.147.087.28.173.4.26.127.087.237.187.33.3Zm-1.28.18c.007-.093-.016-.167-.07-.22a.218.218 0 0 0-.18-.09.41.41 0 0 0-.18.05c-.353.193-.68.413-.98.66-.3.247-.583.517-.85.81a.855.855 0 0 0-.12.15.46.46 0 0 0-.09.17c-.033.113-.006.17.08.17h.03c.007-.007.017-.01.03-.01a8.43 8.43 0 0 0 .68-.2c.26-.093.507-.21.74-.35a2.74 2.74 0 0 0 .61-.49c.174-.193.274-.41.3-.65Zm9.246-8.01c-.36.633-.71 1.27-1.05 1.91a58.97 58.97 0 0 1-1.06 1.89 47.02 47.02 0 0 0-1.64 3c-.5 1.013-.96 2.053-1.38 3.12-.2.5-.366 1.013-.5 1.54a6.804 6.804 0 0 0-.23 1.61c-.006.24.034.467.12.68.087.22.18.437.28.65.034.06.084.097.15.11.06.013.12.03.18.05a.93.93 0 0 1 .35.19c.107.087.147.163.12.23-.046.113-.113.18-.2.2-.086.02-.176.03-.27.03h-.09c-.253 0-.476-.053-.67-.16a2.466 2.466 0 0 1-.55-.42c-.86-.873-1.146-1.903-.86-3.09.127-.507.28-1 .46-1.48.18-.487.38-.967.6-1.44a77.642 77.642 0 0 1 2.74-5.32c.267-.473.534-.94.8-1.4a36.609 36.609 0 0 0 .84-1.51c.02-.033.024-.077.01-.13a5.4 5.4 0 0 1-.27.07c-.08.02-.163.043-.25.07-.293.073-.58.14-.86.2a4.05 4.05 0 0 1-.87.09c-.773-.027-1.416-.34-1.93-.94a1.116 1.116 0 0 1-.15-.24.815.815 0 0 1-.09-.28c-.02-.2.044-.3.19-.3a.998.998 0 0 1 .73.47.377.377 0 0 0 .19.18c.067.027.15.04.25.04a4.31 4.31 0 0 0 .78-.11c.26-.067.517-.127.77-.18a80.57 80.57 0 0 1 1.11-.21l1.11-.22a.549.549 0 0 0 .36-.24c.234-.327.47-.643.71-.95.247-.313.514-.613.8-.9.12-.12.23-.18.33-.18.094 0 .197.043.31.13.134.093.21.18.23.26.027.073.004.183-.07.33-.073.16-.156.323-.25.49-.086.16-.18.33-.28.51a43.95 43.95 0 0 1 2.07-.37c.7-.113 1.4-.17 2.1-.17.247 0 .49.01.73.03.24.02.47.063.69.13.227.06.44.153.64.28.2.12.38.283.54.49l.06.1c.02.033.017.07-.01.11-.026.04-.07.06-.13.06h-.04a.088.088 0 0 0-.04-.01 1.938 1.938 0 0 1-.21-.05 1.457 1.457 0 0 0-.2-.05 5.91 5.91 0 0 0-.67-.08c-.22-.02-.44-.03-.66-.03-.453 0-.916.027-1.39.08a20.84 20.84 0 0 0-1.42.21 25.24 25.24 0 0 0-1.41.3c-.46.113-.906.23-1.34.35a.557.557 0 0 0-.31.27Zm5.303 5.66c.047.02.077.043.09.07.02.027.007.067-.04.12-.193.213-.413.453-.66.72-.246.26-.513.527-.8.8-.28.273-.577.54-.89.8-.313.26-.633.49-.96.69-.32.2-.643.363-.97.49-.327.12-.647.18-.96.18a2.27 2.27 0 0 1-1.27-.38c-.386-.26-.703-.633-.95-1.12a1.463 1.463 0 0 1-.09-1.15 7.274 7.274 0 0 1 .75-1.65c.32-.507.73-.953 1.23-1.34.194-.147.387-.26.58-.34.2-.087.423-.13.67-.13.287.013.55.073.79.18.247.1.467.253.66.46.134.14.22.293.26.46.04.167.02.34-.06.52a3.883 3.883 0 0 1-1.01 1.39c-.413.36-.93.607-1.55.74a1.974 1.974 0 0 0-.09.02h-.08a1.1 1.1 0 0 1-.21-.02c-.06-.02-.123-.04-.19-.06a.302.302 0 0 0-.09-.01c-.047 0-.083.03-.11.09-.073.233-.12.463-.14.69-.02.22.047.44.2.66.08.127.187.19.32.19.1 0 .22-.02.36-.06.147-.047.297-.1.45-.16.16-.06.31-.12.45-.18a12.96 12.96 0 0 0 1.49-.84c.367-.247.717-.52 1.05-.82a5.26 5.26 0 0 1 .33-.27c.147-.113.303-.227.47-.34a4.85 4.85 0 0 1 .48-.29c.16-.087.29-.13.39-.13a.19.19 0 0 1 .1.02Zm-3.84-1.34c-.38.267-.703.577-.97.93-.26.353-.507.733-.74 1.14.22-.02.444-.087.67-.2a3.14 3.14 0 0 0 .63-.44c.194-.18.357-.373.49-.58a1.704 1.704 0 0 0 .27-.8.14.14 0 0 0-.06-.14c-.013-.013-.037-.02-.07-.02-.04 0-.08.013-.12.04a.92.92 0 0 0-.1.07Zm2.295 4.98c-.253-.147-.406-.297-.46-.45-.06-.153-.043-.37.05-.65.16-.453.344-.893.55-1.32.207-.427.43-.843.67-1.25.247-.407.504-.807.77-1.2.267-.393.537-.783.81-1.17.094-.14.22-.21.38-.21.114 0 .23.027.35.08.12.053.224.117.31.19a.68.68 0 0 1 .17.2c.047.073.047.163 0 .27a.351.351 0 0 0-.02.11c.007.027.04.043.1.05.154.007.3.04.44.1a4.634 4.634 0 0 0 .51.16h.08a.722.722 0 0 0 .36-.11c.16-.107.317-.213.47-.32.16-.113.327-.213.5-.3a.544.544 0 0 1 .2-.05.5.5 0 0 1 .27.1c.06.033.1.073.12.12.027.047.007.103-.06.17a.412.412 0 0 0-.1.21 2.44 2.44 0 0 1-.03.22.896.896 0 0 1-.12.37 1.05 1.05 0 0 1-.57.45c-.12.04-.246.06-.38.06a4.625 4.625 0 0 1-.48-.09 3.513 3.513 0 0 1-.48-.18.42.42 0 0 0-.49.1 11.354 11.354 0 0 0-1.59 1.79 7.62 7.62 0 0 0-1.08 2.11c-.02.06-.043.12-.07.18-.02.053-.043.11-.07.17a.897.897 0 0 1-.16.25.307.307 0 0 1-.21.07c-.12 0-.25-.023-.39-.07a3.556 3.556 0 0 1-.35-.16Z" fill="#D2D2D2"/></svg>