<svg xmlns="http://www.w3.org/2000/svg" fill="none" width="62" height="24" viewBox="0 0 62 24"><path d="M20.075 1.738c.104.104.095.234-.026.39-.277.399-.485.572-.624.52a8.468 8.468 0 0 0-.624-.182 7.115 7.115 0 0 0-.65-.182c-.97.087-1.837.598-2.6 1.534-.763.919-1.447 2.375-2.054 4.368-.901 2.93-2.158 5.13-3.77 6.604-1.595 1.456-3.527 2.184-5.798 2.184-.624 0-1.161-.078-1.612-.234a3.654 3.654 0 0 1-1.118-.65 2.611 2.611 0 0 1-.65-.936 3.049 3.049 0 0 1-.208-1.092c0-1.04.511-1.907 1.534-2.6.07 0 .113.035.13.104.017.07.009.13-.026.182-.243.19-.425.399-.546.624-.104.208-.156.511-.156.91 0 .884.303 1.586.91 2.106.624.503 1.543.754 2.756.754a7.37 7.37 0 0 0 2.288-.338 5.023 5.023 0 0 0 1.898-1.144c.59-.555 1.127-1.291 1.612-2.21.503-.919.98-2.071 1.43-3.458.624-1.941 1.37-3.501 2.236-4.68.867-1.196 1.846-1.941 2.938-2.236a33.327 33.327 0 0 0-3.614-.702 26.999 26.999 0 0 0-3.718-.26c-.97 0-1.837.165-2.6.494a5.352 5.352 0 0 0-1.872 1.274A4.827 4.827 0 0 0 4.449 4.78a5.086 5.086 0 0 0-.182 2.236c-.104.156-.2.165-.286.026a6.37 6.37 0 0 1 .182-2.496 5.681 5.681 0 0 1 1.222-2.184c.572-.641 1.317-1.153 2.236-1.534.919-.381 2.002-.572 3.25-.572 1.855 0 3.536.156 5.044.468 1.525.295 2.912.633 4.16 1.014Zm.992 13.624c.035-.035.078-.035.13 0 .052.035.07.087.052.156-.364.503-.728.875-1.092 1.118-.347.243-.642.364-.884.364-.156 0-.286-.078-.39-.234a1.778 1.778 0 0 1-.182-.624 5.46 5.46 0 0 1 .026-.91c.052-.347.13-.702.234-1.066a12.22 12.22 0 0 1-1.482 1.898c-.52.52-1.023.832-1.508.936-.312 0-.58-.147-.806-.442-.208-.312-.312-.789-.312-1.43 0-.572.113-1.135.338-1.69a5.593 5.593 0 0 1 .962-1.534c.399-.468.858-.84 1.378-1.118a3.434 3.434 0 0 1 1.638-.416c.312 0 .58.035.806.104.225.07.433.173.624.312.104-.087.242-.165.416-.234.19-.087.364-.13.52-.13.087 0 .113.043.078.13a8.553 8.553 0 0 0-1.04 1.612c-.277.59-.494 1.161-.65 1.716a9.927 9.927 0 0 0-.312 1.482c-.035.416 0 .702.104.858.087.121.242.13.468.026.225-.121.52-.416.884-.884Zm-4.524.754c.19 0 .433-.13.728-.39.312-.277.633-.633.962-1.066.33-.433.65-.919.962-1.456.33-.555.615-1.11.858-1.664-.07-.225-.234-.407-.494-.546a1.7 1.7 0 0 0-.858-.208 2.09 2.09 0 0 0-1.092.312 2.84 2.84 0 0 0-.884.832c-.26.347-.468.763-.624 1.248a5.248 5.248 0 0 0-.234 1.612c0 .381.06.702.182.962.139.243.303.364.494.364Zm12.479-.78a.13.13 0 0 1 .155 0c.053.035.07.087.053.156a6.435 6.435 0 0 1-.989 1.066c-.346.295-.675.442-.988.442-.537 0-.805-.347-.805-1.04 0-.59.104-1.24.311-1.95.209-.728.494-1.456.858-2.184a.728.728 0 0 0 .104-.364c0-.19-.086-.286-.26-.286-.64 0-1.351.442-2.131 1.326-.763.884-1.474 2.27-2.132 4.16-.035.104-.13.19-.287.26a1.4 1.4 0 0 1-.442.078c-.19 0-.26-.078-.207-.234.294-.745.598-1.586.91-2.522a36.16 36.16 0 0 0 .857-2.782c.07-.33.01-.494-.181-.494-.174 0-.347.087-.52.26a4.823 4.823 0 0 0-.546.676c-.035.035-.079.026-.13-.026a.172.172 0 0 1-.027-.156c.191-.295.451-.598.78-.91.33-.312.685-.468 1.066-.468.434 0 .581.295.442.884-.069.381-.164.789-.285 1.222-.122.416-.252.832-.39 1.248a8.16 8.16 0 0 1 .858-1.326 7.489 7.489 0 0 1 1.014-1.066 5.872 5.872 0 0 1 1.066-.702c.364-.173.702-.26 1.014-.26.207 0 .363.052.467.156a.468.468 0 0 1 .183.364c0 .225-.052.45-.157.676a14.09 14.09 0 0 0-.936 2.08c-.242.71-.363 1.37-.363 1.976 0 .433.138.65.415.65.364 0 .772-.303 1.223-.91Zm6.11-5.356c.052-.035.104-.026.156.026.052.035.06.087.026.156a2.682 2.682 0 0 1-.52.572c-.208.156-.468.225-.78.208.156.26.234.598.234 1.014 0 .399-.06.763-.182 1.092a7.73 7.73 0 0 1-.416.936 9.58 9.58 0 0 1-.494.832 4.94 4.94 0 0 0-.39.806c-.087.277-.13.563-.13.858.017.277.121.59.312.936.156.295.294.555.416.78.139.243.251.468.338.676.104.225.173.45.208.676.052.225.078.468.078.728 0 .416-.087.806-.26 1.17-.174.381-.425.71-.754.988-.33.295-.728.52-1.196.676-.468.173-.997.26-1.586.26a4.848 4.848 0 0 1-1.638-.26 3.646 3.646 0 0 1-1.222-.702 2.67 2.67 0 0 1-.78-.988 2.628 2.628 0 0 1-.26-1.144c0-.52.19-.98.572-1.378.364-.381.892-.667 1.586-.858.087 0 .147.026.182.078a.18.18 0 0 1-.052.182 2.055 2.055 0 0 0-.884.624c-.226.277-.338.65-.338 1.118 0 .884.303 1.595.91 2.132.607.537 1.404.806 2.392.806.832 0 1.447-.217 1.846-.65.398-.416.598-.962.598-1.638 0-.399-.06-.754-.182-1.066a6.96 6.96 0 0 0-.546-1.066c-.33-.555-.477-1.083-.442-1.586.052-.52.234-1.057.546-1.612.035-.07.07-.13.104-.182.052-.07.095-.147.13-.234-.19.208-.416.39-.676.546-.243.156-.45.234-.624.234-.85 0-1.274-.555-1.274-1.664 0-.364.07-.763.208-1.196.139-.433.33-.832.572-1.196.26-.381.554-.693.884-.936a1.951 1.951 0 0 1 1.144-.364c.606 0 1.075-.017 1.404-.052.33-.052.59-.165.78-.338Zm-2.08 4.342c.104-.243.19-.494.26-.754s.104-.52.104-.78c0-.503-.087-.893-.26-1.17-.156-.295-.416-.442-.78-.442-.416 0-.771.208-1.066.624-.277.416-.416 1.005-.416 1.768 0 .503.078.867.234 1.092.173.225.424.338.754.338.19 0 .399-.06.624-.182a1.5 1.5 0 0 0 .546-.494Zm7.019-2.834c0 .243-.096.468-.286.676a2.84 2.84 0 0 1-.78.572 9.38 9.38 0 0 1-1.144.442 19.93 19.93 0 0 1-1.326.39l-.052.572v.624c0 .433.095.797.286 1.092.19.295.46.442.806.442.346 0 .667-.087.962-.26a2.88 2.88 0 0 0 .832-.702c.07-.035.121-.026.156.026s.035.113 0 .182a4.292 4.292 0 0 1-1.118 1.04 2.514 2.514 0 0 1-1.378.416c-.45 0-.824-.147-1.118-.442-.278-.295-.416-.728-.416-1.3 0-.52.095-1.066.286-1.638.19-.59.442-1.127.754-1.612a4.783 4.783 0 0 1 1.066-1.196c.416-.312.85-.468 1.3-.468.33 0 .606.121.832.364.225.225.338.485.338.78Zm-1.716-.468c-.399 0-.754.173-1.066.52-.312.347-.538.893-.676 1.638.832-.121 1.438-.295 1.82-.52.398-.243.598-.511.598-.806 0-.243-.06-.442-.182-.598a.592.592 0 0 0-.494-.234Zm4.863.052c0 .26-.026.563-.078.91-.052.347-.121.693-.208 1.04.347-.832.728-1.482 1.144-1.95.416-.485.867-.728 1.352-.728.19 0 .364.052.52.156a.5.5 0 0 1 .234.442c0 .139-.052.32-.156.546a1.815 1.815 0 0 1-.312.468c-.104.07-.156.043-.156-.078 0-.295-.2-.442-.598-.442-.606 0-1.152.46-1.638 1.378-.485.901-.944 2.158-1.378 3.77-.034.173-.156.286-.364.338-.19.052-.355.078-.494.078-.19 0-.234-.095-.13-.286.156-.364.304-.754.442-1.17.139-.433.269-.867.39-1.3.139-.433.252-.858.338-1.274.087-.416.156-.797.208-1.144.07-.52-.017-.78-.26-.78-.138 0-.303.078-.494.234a3.788 3.788 0 0 0-.494.546c-.07.035-.13.035-.182 0-.052-.052-.06-.113-.026-.182.26-.33.546-.624.858-.884.33-.277.633-.416.91-.416.382 0 .572.243.572.728Zm3.284 1.092c-.052.035-.104.026-.156-.026-.034-.07-.034-.13 0-.182.243-.243.572-.52.988-.832a8.196 8.196 0 0 1 1.248-.78c.14 0 .208.078.208.234-.225.399-.45.832-.676 1.3-.208.468-.398.936-.572 1.404-.156.45-.286.893-.39 1.326-.104.416-.156.763-.156 1.04 0 .364.122.546.364.546.191 0 .373-.078.546-.234.191-.173.408-.399.65-.676.035-.035.078-.026.13.026.052.052.061.113.026.182a8.23 8.23 0 0 1-1.014 1.04c-.346.312-.676.468-.988.468-.45 0-.676-.286-.676-.858 0-.33.052-.72.156-1.17.122-.468.27-.936.442-1.404.174-.468.364-.919.572-1.352.226-.433.442-.806.65-1.118-.19.139-.433.32-.728.546a6.083 6.083 0 0 0-.624.52Zm2.34-2.938c-.052.052-.104.06-.156.026a.576.576 0 0 1-.078-.182 1.464 1.464 0 0 1-.026-.286c0-.104.026-.19.078-.26.451-.624 1.084-1.291 1.898-2.002.052-.017.104 0 .156.052.052.035.061.07.026.104-.364.33-.71.728-1.04 1.196-.329.45-.615.901-.858 1.352Zm7.525 6.11a.13.13 0 0 1 .156 0c.052.035.07.087.052.156a6.435 6.435 0 0 1-.988 1.066c-.347.295-.676.442-.988.442-.537 0-.806-.347-.806-1.04 0-.59.104-1.24.312-1.95.208-.728.494-1.456.858-2.184a.728.728 0 0 0 .104-.364c0-.19-.087-.286-.26-.286-.641 0-1.352.442-2.132 1.326-.762.884-1.473 2.27-2.132 4.16-.035.104-.13.19-.286.26a1.4 1.4 0 0 1-.442.078c-.19 0-.26-.078-.208-.234.295-.745.598-1.586.91-2.522.33-.936.615-1.863.858-2.782.07-.33.009-.494-.182-.494-.173 0-.346.087-.52.26a4.823 4.823 0 0 0-.546.676c-.035.035-.078.026-.13-.026a.172.172 0 0 1-.026-.156c.19-.295.45-.598.78-.91.33-.312.685-.468 1.066-.468.434 0 .58.295.442.884-.07.381-.165.789-.286 1.222-.121.416-.251.832-.39 1.248.243-.468.529-.91.858-1.326.33-.416.667-.771 1.014-1.066.364-.295.72-.529 1.066-.702.364-.173.702-.26 1.014-.26.208 0 .364.052.468.156a.468.468 0 0 1 .182.364c0 .225-.052.45-.156.676a14.09 14.09 0 0 0-.936 2.08c-.243.71-.364 1.37-.364 1.976 0 .433.139.65.416.65.364 0 .771-.303 1.222-.91Zm5.59-3.848c0 .243-.095.468-.285.676a2.846 2.846 0 0 1-.78.572c-.33.156-.711.303-1.144.442a19.93 19.93 0 0 1-1.326.39l-.052.572v.624c0 .433.095.797.286 1.092.19.295.459.442.806.442.346 0 .667-.087.962-.26.312-.173.589-.407.832-.702.069-.035.12-.026.156.026.034.052.034.113 0 .182a4.295 4.295 0 0 1-1.118 1.04 2.514 2.514 0 0 1-1.378.416c-.451 0-.824-.147-1.118-.442-.278-.295-.416-.728-.416-1.3 0-.52.095-1.066.286-1.638a6.88 6.88 0 0 1 .754-1.612 4.78 4.78 0 0 1 1.066-1.196c.416-.312.849-.468 1.3-.468.329 0 .606.121.832.364.225.225.338.485.338.78Zm-1.715-.468c-.4 0-.754.173-1.066.52-.312.347-.538.893-.676 1.638.832-.121 1.438-.295 1.82-.52.398-.243.598-.511.598-.806a.947.947 0 0 0-.182-.598.593.593 0 0 0-.494-.234Z" fill="#DFDFDF"/></svg>