<svg width="53" height="21" viewBox="0 0 53 21" fill="none" xmlns="http://www.w3.org/2000/svg">
<path d="M17.1789 2.086C17.2669 2.174 17.2595 2.284 17.1569 2.416C16.9222 2.75333 16.7462 2.9 16.6289 2.856C16.4529 2.79733 16.2769 2.746 16.1009 2.702C15.9249 2.64333 15.7415 2.592 15.5509 2.548C14.7295 2.62133 13.9962 3.054 13.3509 3.846C12.7055 4.62333 12.1262 5.85533 11.6129 7.542C10.8502 10.0207 9.78686 11.8833 8.42286 13.13C7.07353 14.362 5.43819 14.978 3.51686 14.978C2.98886 14.978 2.53419 14.912 2.15286 14.78C1.77153 14.6333 1.45619 14.45 1.20686 14.23C0.957526 13.9953 0.774193 13.7313 0.656859 13.438C0.539526 13.13 0.480859 12.822 0.480859 12.514C0.480859 11.634 0.913526 10.9007 1.77886 10.314C1.83753 10.314 1.87419 10.3433 1.88886 10.402C1.90353 10.4607 1.89619 10.512 1.86686 10.556C1.66153 10.7173 1.50753 10.8933 1.40486 11.084C1.31686 11.26 1.27286 11.5167 1.27286 11.854C1.27286 12.602 1.52953 13.196 2.04286 13.636C2.57086 14.0613 3.34819 14.274 4.37486 14.274C5.07886 14.274 5.72419 14.1787 6.31086 13.988C6.89753 13.7973 7.43286 13.4747 7.91686 13.02C8.41553 12.5507 8.87019 11.9273 9.28086 11.15C9.70619 10.3727 10.1095 9.39733 10.4909 8.224C11.0189 6.58133 11.6495 5.26133 12.3829 4.264C13.1162 3.252 13.9449 2.62133 14.8689 2.372C13.8862 2.12267 12.8669 1.92467 11.8109 1.778C10.7549 1.63133 9.70619 1.558 8.66486 1.558C7.84353 1.558 7.11019 1.69733 6.46486 1.976C5.83419 2.24 5.30619 2.59933 4.88086 3.054C4.45553 3.50867 4.14753 4.044 3.95686 4.66C3.76619 5.26133 3.71486 5.892 3.80286 6.552C3.71486 6.684 3.63419 6.69133 3.56086 6.574C3.47286 5.85533 3.52419 5.15133 3.71486 4.462C3.92019 3.77267 4.26486 3.15667 4.74886 2.614C5.23286 2.07133 5.86353 1.63867 6.64086 1.316C7.41819 0.993332 8.33486 0.831999 9.39086 0.831999C10.9602 0.831999 12.3829 0.963999 13.6589 1.228C14.9495 1.47733 16.1229 1.76333 17.1789 2.086ZM18.0181 13.614C18.0475 13.5847 18.0841 13.5847 18.1281 13.614C18.1721 13.6433 18.1868 13.6873 18.1721 13.746C17.8641 14.1713 17.5561 14.4867 17.2481 14.692C16.9548 14.8973 16.7055 15 16.5001 15C16.3681 15 16.2581 14.934 16.1701 14.802C16.0968 14.67 16.0455 14.494 16.0161 14.274C16.0015 14.0393 16.0088 13.7827 16.0381 13.504C16.0821 13.2107 16.1481 12.91 16.2361 12.602C15.8401 13.218 15.4221 13.7533 14.9821 14.208C14.5421 14.648 14.1168 14.912 13.7061 15C13.4421 15 13.2148 14.8753 13.0241 14.626C12.8481 14.362 12.7601 13.9587 12.7601 13.416C12.7601 12.932 12.8555 12.4553 13.0461 11.986C13.2515 11.502 13.5228 11.0693 13.8601 10.688C14.1975 10.292 14.5861 9.97667 15.0261 9.742C15.4661 9.50733 15.9281 9.39 16.4121 9.39C16.6761 9.39 16.9035 9.41933 17.0941 9.478C17.2848 9.53667 17.4608 9.62467 17.6221 9.742C17.7101 9.66867 17.8275 9.60267 17.9741 9.544C18.1355 9.47067 18.2821 9.434 18.4141 9.434C18.4875 9.434 18.5095 9.47067 18.4801 9.544C18.1428 9.95467 17.8495 10.4093 17.6001 10.908C17.3655 11.4067 17.1821 11.8907 17.0501 12.36C16.9181 12.8293 16.8301 13.2473 16.7861 13.614C16.7568 13.966 16.7861 14.208 16.8741 14.34C16.9475 14.4427 17.0795 14.45 17.2701 14.362C17.4608 14.2593 17.7101 14.01 18.0181 13.614ZM14.1901 14.252C14.3515 14.252 14.5568 14.142 14.8061 13.922C15.0701 13.6873 15.3415 13.3867 15.6201 13.02C15.8988 12.6533 16.1701 12.2427 16.4341 11.788C16.7128 11.3187 16.9548 10.8493 17.1601 10.38C17.1015 10.1893 16.9621 10.0353 16.7421 9.918C16.5368 9.80067 16.2948 9.742 16.0161 9.742C15.6935 9.742 15.3855 9.83 15.0921 10.006C14.8135 10.1673 14.5641 10.402 14.3441 10.71C14.1241 11.0033 13.9481 11.3553 13.8161 11.766C13.6841 12.1767 13.6181 12.6313 13.6181 13.13C13.6181 13.4527 13.6695 13.724 13.7721 13.944C13.8895 14.1493 14.0288 14.252 14.1901 14.252ZM24.7489 13.592C24.7929 13.5627 24.8369 13.5627 24.8809 13.592C24.9249 13.6213 24.9396 13.6653 24.9249 13.724C24.6756 14.0613 24.3969 14.362 24.0889 14.626C23.7956 14.8753 23.5169 15 23.2529 15C22.7983 15 22.5709 14.7067 22.5709 14.12C22.5709 13.6213 22.6589 13.0713 22.8349 12.47C23.0109 11.854 23.2529 11.238 23.5609 10.622C23.6196 10.5193 23.6489 10.4167 23.6489 10.314C23.6489 10.1527 23.5756 10.072 23.4289 10.072C22.8863 10.072 22.2849 10.446 21.6249 11.194C20.9796 11.942 20.3783 13.1153 19.8209 14.714C19.7916 14.802 19.7109 14.8753 19.5789 14.934C19.4469 14.978 19.3223 15 19.2049 15C19.0436 15 18.9849 14.934 19.0289 14.802C19.2783 14.1713 19.5349 13.46 19.7989 12.668C20.0776 11.876 20.3196 11.0913 20.5249 10.314C20.5836 10.0353 20.5323 9.896 20.3709 9.896C20.2243 9.896 20.0776 9.96933 19.9309 10.116C19.7843 10.2627 19.6303 10.4533 19.4689 10.688C19.4396 10.7173 19.4029 10.71 19.3589 10.666C19.3296 10.622 19.3223 10.578 19.3369 10.534C19.4983 10.2847 19.7183 10.028 19.9969 9.764C20.2756 9.5 20.5763 9.368 20.8989 9.368C21.2656 9.368 21.3903 9.61733 21.2729 10.116C21.2143 10.4387 21.1336 10.7833 21.0309 11.15C20.9283 11.502 20.8183 11.854 20.7009 12.206C20.9063 11.81 21.1483 11.436 21.4269 11.084C21.7056 10.732 21.9916 10.4313 22.2849 10.182C22.5929 9.93267 22.8936 9.73467 23.1869 9.588C23.4949 9.44133 23.7809 9.368 24.0449 9.368C24.2209 9.368 24.3529 9.412 24.4409 9.5C24.5436 9.588 24.5949 9.69067 24.5949 9.808C24.5949 9.99867 24.5509 10.1893 24.4629 10.38C24.1549 10.9373 23.8909 11.524 23.6709 12.14C23.4656 12.7413 23.3629 13.2987 23.3629 13.812C23.3629 14.1787 23.4803 14.362 23.7149 14.362C24.0229 14.362 24.3676 14.1053 24.7489 13.592ZM29.9193 9.06C29.9633 9.03067 30.0073 9.038 30.0513 9.082C30.0953 9.11133 30.1026 9.15533 30.0733 9.214C29.9559 9.39 29.8093 9.55133 29.6333 9.698C29.4573 9.83 29.2373 9.88867 28.9733 9.874C29.1053 10.094 29.1713 10.38 29.1713 10.732C29.1713 11.0693 29.1199 11.3773 29.0173 11.656C28.9146 11.9347 28.7973 12.1987 28.6653 12.448C28.5333 12.6973 28.3939 12.932 28.2473 13.152C28.1153 13.372 28.0053 13.5993 27.9173 13.834C27.8439 14.0687 27.8073 14.3107 27.8073 14.56C27.8219 14.7947 27.9099 15.0587 28.0713 15.352C28.2033 15.6013 28.3206 15.8213 28.4233 16.012C28.5406 16.2173 28.6359 16.408 28.7093 16.584C28.7973 16.7747 28.8559 16.9653 28.8853 17.156C28.9293 17.3467 28.9513 17.552 28.9513 17.772C28.9513 18.124 28.8779 18.454 28.7313 18.762C28.5846 19.0847 28.3719 19.3633 28.0933 19.598C27.8146 19.8473 27.4773 20.038 27.0813 20.17C26.6853 20.3167 26.2379 20.39 25.7393 20.39C25.2259 20.39 24.7639 20.3167 24.3533 20.17C23.9426 20.0233 23.5979 19.8253 23.3193 19.576C23.0259 19.3413 22.8059 19.0627 22.6593 18.74C22.5126 18.432 22.4393 18.1093 22.4393 17.772C22.4393 17.332 22.6006 16.9433 22.9233 16.606C23.2313 16.2833 23.6786 16.0413 24.2653 15.88C24.3386 15.88 24.3899 15.902 24.4193 15.946C24.4339 16.0047 24.4193 16.056 24.3753 16.1C24.0673 16.2173 23.8179 16.3933 23.6273 16.628C23.4366 16.8627 23.3413 17.178 23.3413 17.574C23.3413 18.322 23.5979 18.9233 24.1113 19.378C24.6246 19.8327 25.2993 20.06 26.1353 20.06C26.8393 20.06 27.3599 19.8767 27.6973 19.51C28.0346 19.158 28.2033 18.696 28.2033 18.124C28.2033 17.7867 28.1519 17.486 28.0493 17.222C27.9466 16.958 27.7926 16.6573 27.5873 16.32C27.3086 15.8507 27.1839 15.4033 27.2133 14.978C27.2573 14.538 27.4113 14.0833 27.6753 13.614C27.7046 13.5553 27.7339 13.504 27.7633 13.46C27.8073 13.4013 27.8439 13.3353 27.8733 13.262C27.7119 13.438 27.5213 13.592 27.3013 13.724C27.0959 13.856 26.9199 13.922 26.7733 13.922C26.0546 13.922 25.6953 13.4527 25.6953 12.514C25.6953 12.206 25.7539 11.8687 25.8713 11.502C25.9886 11.1353 26.1499 10.798 26.3553 10.49C26.5753 10.1673 26.8246 9.90333 27.1033 9.698C27.3966 9.49267 27.7193 9.39 28.0713 9.39C28.5846 9.39 28.9806 9.37533 29.2593 9.346C29.5379 9.302 29.7579 9.20667 29.9193 9.06ZM28.1593 12.734C28.2473 12.5287 28.3206 12.316 28.3793 12.096C28.4379 11.876 28.4673 11.656 28.4673 11.436C28.4673 11.0107 28.3939 10.6807 28.2473 10.446C28.1153 10.1967 27.8953 10.072 27.5873 10.072C27.2353 10.072 26.9346 10.248 26.6853 10.6C26.4506 10.952 26.3333 11.4507 26.3333 12.096C26.3333 12.5213 26.3993 12.8293 26.5313 13.02C26.6779 13.2107 26.8906 13.306 27.1693 13.306C27.3306 13.306 27.5066 13.2547 27.6973 13.152C27.8879 13.0493 28.0419 12.91 28.1593 12.734ZM34.0984 10.336C34.0984 10.5413 34.0177 10.732 33.8564 10.908C33.6951 11.084 33.4751 11.2453 33.1964 11.392C32.9177 11.524 32.5951 11.6487 32.2284 11.766C31.8764 11.8833 31.5024 11.9933 31.1064 12.096C31.0917 12.2573 31.0771 12.4187 31.0624 12.58C31.0624 12.7413 31.0624 12.9173 31.0624 13.108C31.0624 13.4747 31.1431 13.7827 31.3044 14.032C31.4657 14.2813 31.6931 14.406 31.9864 14.406C32.2797 14.406 32.5511 14.3327 32.8004 14.186C33.0644 14.0393 33.2991 13.8413 33.5044 13.592C33.5631 13.5627 33.6071 13.57 33.6364 13.614C33.6657 13.658 33.6657 13.7093 33.6364 13.768C33.3871 14.1053 33.0717 14.3987 32.6904 14.648C32.3237 14.8827 31.9351 15 31.5244 15C31.1431 15 30.8277 14.8753 30.5784 14.626C30.3437 14.3767 30.2264 14.01 30.2264 13.526C30.2264 13.086 30.3071 12.624 30.4684 12.14C30.6297 11.6413 30.8424 11.1867 31.1064 10.776C31.3704 10.3653 31.6711 10.028 32.0084 9.764C32.3604 9.5 32.7271 9.368 33.1084 9.368C33.3871 9.368 33.6217 9.47067 33.8124 9.676C34.0031 9.86667 34.0984 10.0867 34.0984 10.336ZM32.6464 9.94C32.3091 9.94 32.0084 10.0867 31.7444 10.38C31.4804 10.6733 31.2897 11.1353 31.1724 11.766C31.8764 11.6633 32.3897 11.5167 32.7124 11.326C33.0497 11.1207 33.2184 10.8933 33.2184 10.644C33.2184 10.4387 33.1671 10.27 33.0644 10.138C32.9617 10.006 32.8224 9.94 32.6464 9.94ZM36.7616 9.984C36.7616 10.204 36.7396 10.4607 36.6956 10.754C36.6516 11.0473 36.5929 11.3407 36.5196 11.634C36.8129 10.93 37.1356 10.38 37.4876 9.984C37.8396 9.57333 38.2209 9.368 38.6316 9.368C38.7929 9.368 38.9396 9.412 39.0716 9.5C39.2036 9.588 39.2696 9.71267 39.2696 9.874C39.2696 9.99133 39.2256 10.1453 39.1376 10.336C39.0496 10.512 38.9616 10.644 38.8736 10.732C38.7856 10.7907 38.7416 10.7687 38.7416 10.666C38.7416 10.4167 38.5729 10.292 38.2356 10.292C37.7223 10.292 37.2603 10.6807 36.8496 11.458C36.4389 12.2207 36.0503 13.284 35.6836 14.648C35.6543 14.7947 35.5516 14.89 35.3756 14.934C35.2143 14.978 35.0749 15 34.9576 15C34.7963 15 34.7596 14.9193 34.8476 14.758C34.9796 14.45 35.1043 14.12 35.2216 13.768C35.3389 13.4013 35.4489 13.0347 35.5516 12.668C35.6689 12.3013 35.7643 11.942 35.8376 11.59C35.9109 11.238 35.9696 10.9153 36.0136 10.622C36.0723 10.182 35.9989 9.962 35.7936 9.962C35.6763 9.962 35.5369 10.028 35.3756 10.16C35.2289 10.292 35.0896 10.446 34.9576 10.622C34.8989 10.6513 34.8476 10.6513 34.8036 10.622C34.7596 10.578 34.7523 10.5267 34.7816 10.468C35.0016 10.1893 35.2436 9.94 35.5076 9.72C35.7863 9.48533 36.0429 9.368 36.2776 9.368C36.6003 9.368 36.7616 9.57333 36.7616 9.984ZM39.5405 10.908C39.4965 10.9373 39.4525 10.93 39.4085 10.886C39.3792 10.8273 39.3792 10.776 39.4085 10.732C39.6138 10.5267 39.8925 10.292 40.2445 10.028C40.5965 9.764 40.9485 9.544 41.3005 9.368C41.4178 9.368 41.4765 9.434 41.4765 9.566C41.2858 9.90333 41.0952 10.27 40.9045 10.666C40.7285 11.062 40.5672 11.458 40.4205 11.854C40.2885 12.2353 40.1785 12.6093 40.0905 12.976C40.0025 13.328 39.9585 13.6213 39.9585 13.856C39.9585 14.164 40.0612 14.318 40.2665 14.318C40.4278 14.318 40.5818 14.252 40.7285 14.12C40.8898 13.9733 41.0732 13.7827 41.2785 13.548C41.3078 13.5187 41.3445 13.526 41.3885 13.57C41.4325 13.614 41.4398 13.6653 41.4105 13.724C41.1465 14.0467 40.8605 14.34 40.5525 14.604C40.2592 14.868 39.9805 15 39.7165 15C39.3352 15 39.1445 14.758 39.1445 14.274C39.1445 13.9953 39.1885 13.6653 39.2765 13.284C39.3792 12.888 39.5038 12.492 39.6505 12.096C39.7972 11.7 39.9585 11.3187 40.1345 10.952C40.3252 10.5853 40.5085 10.27 40.6845 10.006C40.5232 10.1233 40.3178 10.2773 40.0685 10.468C39.8338 10.644 39.6578 10.7907 39.5405 10.908ZM41.5205 8.422C41.4765 8.466 41.4325 8.47333 41.3885 8.444C41.3592 8.4 41.3372 8.34867 41.3225 8.29C41.3078 8.21667 41.3005 8.136 41.3005 8.048C41.3005 7.96 41.3225 7.88667 41.3665 7.828C41.7478 7.3 42.2832 6.73533 42.9725 6.134C43.0165 6.11933 43.0605 6.134 43.1045 6.178C43.1485 6.20733 43.1558 6.23667 43.1265 6.266C42.8185 6.54467 42.5252 6.882 42.2465 7.278C41.9678 7.65933 41.7258 8.04067 41.5205 8.422ZM47.8876 13.592C47.9316 13.5627 47.9756 13.5627 48.0196 13.592C48.0636 13.6213 48.0783 13.6653 48.0636 13.724C47.8143 14.0613 47.5356 14.362 47.2276 14.626C46.9343 14.8753 46.6556 15 46.3916 15C45.9369 15 45.7096 14.7067 45.7096 14.12C45.7096 13.6213 45.7976 13.0713 45.9736 12.47C46.1496 11.854 46.3916 11.238 46.6996 10.622C46.7583 10.5193 46.7876 10.4167 46.7876 10.314C46.7876 10.1527 46.7143 10.072 46.5676 10.072C46.0249 10.072 45.4236 10.446 44.7636 11.194C44.1183 11.942 43.5169 13.1153 42.9596 14.714C42.9303 14.802 42.8496 14.8753 42.7176 14.934C42.5856 14.978 42.4609 15 42.3436 15C42.1823 15 42.1236 14.934 42.1676 14.802C42.4169 14.1713 42.6736 13.46 42.9376 12.668C43.2163 11.876 43.4583 11.0913 43.6636 10.314C43.7223 10.0353 43.6709 9.896 43.5096 9.896C43.3629 9.896 43.2163 9.96933 43.0696 10.116C42.9229 10.2627 42.7689 10.4533 42.6076 10.688C42.5783 10.7173 42.5416 10.71 42.4976 10.666C42.4683 10.622 42.4609 10.578 42.4756 10.534C42.6369 10.2847 42.8569 10.028 43.1356 9.764C43.4143 9.5 43.7149 9.368 44.0376 9.368C44.4043 9.368 44.5289 9.61733 44.4116 10.116C44.3529 10.4387 44.2723 10.7833 44.1696 11.15C44.0669 11.502 43.9569 11.854 43.8396 12.206C44.0449 11.81 44.2869 11.436 44.5656 11.084C44.8443 10.732 45.1303 10.4313 45.4236 10.182C45.7316 9.93267 46.0323 9.73467 46.3256 9.588C46.6336 9.44133 46.9196 9.368 47.1836 9.368C47.3596 9.368 47.4916 9.412 47.5796 9.5C47.6823 9.588 47.7336 9.69067 47.7336 9.808C47.7336 9.99867 47.6896 10.1893 47.6016 10.38C47.2936 10.9373 47.0296 11.524 46.8096 12.14C46.6043 12.7413 46.5016 13.2987 46.5016 13.812C46.5016 14.1787 46.6189 14.362 46.8536 14.362C47.1616 14.362 47.5063 14.1053 47.8876 13.592ZM52.6179 10.336C52.6179 10.5413 52.5373 10.732 52.3759 10.908C52.2146 11.084 51.9946 11.2453 51.7159 11.392C51.4373 11.524 51.1146 11.6487 50.7479 11.766C50.3959 11.8833 50.0219 11.9933 49.6259 12.096C49.6113 12.2573 49.5966 12.4187 49.5819 12.58C49.5819 12.7413 49.5819 12.9173 49.5819 13.108C49.5819 13.4747 49.6626 13.7827 49.8239 14.032C49.9853 14.2813 50.2126 14.406 50.5059 14.406C50.7993 14.406 51.0706 14.3327 51.3199 14.186C51.5839 14.0393 51.8186 13.8413 52.0239 13.592C52.0826 13.5627 52.1266 13.57 52.1559 13.614C52.1853 13.658 52.1853 13.7093 52.1559 13.768C51.9066 14.1053 51.5913 14.3987 51.2099 14.648C50.8433 14.8827 50.4546 15 50.0439 15C49.6626 15 49.3473 14.8753 49.0979 14.626C48.8633 14.3767 48.7459 14.01 48.7459 13.526C48.7459 13.086 48.8266 12.624 48.9879 12.14C49.1493 11.6413 49.3619 11.1867 49.6259 10.776C49.8899 10.3653 50.1906 10.028 50.5279 9.764C50.8799 9.5 51.2466 9.368 51.6279 9.368C51.9066 9.368 52.1413 9.47067 52.3319 9.676C52.5226 9.86667 52.6179 10.0867 52.6179 10.336ZM51.1659 9.94C50.8286 9.94 50.5279 10.0867 50.2639 10.38C49.9999 10.6733 49.8093 11.1353 49.6919 11.766C50.3959 11.6633 50.9093 11.5167 51.2319 11.326C51.5693 11.1207 51.7379 10.8933 51.7379 10.644C51.7379 10.4387 51.6866 10.27 51.5839 10.138C51.4813 10.006 51.3419 9.94 51.1659 9.94Z" fill="white"/>
</svg>
